<?xml version="1.0" encoding="UTF-8" standalone="no"?>
<svg
   width="120"
   height="60"
   version="1.1"
   id="svg3"
   sodipodi:docname="bitcoin_logo.svg"
   inkscape:version="1.4.2 (ebf0e940d0, 2025-05-08)"
   xmlns:inkscape="http://www.inkscape.org/namespaces/inkscape"
   xmlns:sodipodi="http://sodipodi.sourceforge.net/DTD/sodipodi-0.dtd"
   xmlns="http://www.w3.org/2000/svg"
   xmlns:svg="http://www.w3.org/2000/svg">
  <defs
     id="defs3" />
  <sodipodi:namedview
     id="namedview3"
     pagecolor="#505050"
     bordercolor="#eeeeee"
     borderopacity="1"
     inkscape:showpageshadow="0"
     inkscape:pageopacity="0"
     inkscape:pagecheckerboard="0"
     inkscape:deskcolor="#505050"
     inkscape:zoom="16.766667"
     inkscape:cx="60"
     inkscape:cy="29.970179"
     inkscape:window-width="2560"
     inkscape:window-height="1368"
     inkscape:window-x="0"
     inkscape:window-y="0"
     inkscape:window-maximized="1"
     inkscape:current-layer="svg3" />
  <path
     d="M33.675 32.265c-1.248 4.993-6.3 8.045-11.327 6.796-4.993-1.248-8.045-6.3-6.796-11.327 1.248-4.993 6.3-8.045 11.327-6.796 4.993 1.248 8.045 6.3 6.796 11.327z"
     fill="#f7931a"
     id="path1" />
  <path
     d="M28.728 28.66c.185-1.248-.763-1.92-2.057-2.358l.416-1.688-1.017-.254-.416 1.64-.832-.185.416-1.64-1.017-.254-.416 1.688-.647-.162-1.4-.347-.277 1.086.74.185a.55.55 0 0 1 .485.601l-.485 1.92c.023 0 .07.023.116.023-.023 0-.07-.023-.116-.023l-.67 2.682c-.046.116-.185.324-.462.254 0 .023-.74-.185-.74-.185l-.5 1.18 1.34.324.74.185-.416 1.7 1.017.254.416-1.688.8.208-.416 1.688 1.017.254.416-1.7c1.757.324 3.05.208 3.606-1.387.44-1.27-.023-2-.948-2.497.694-.14 1.18-.578 1.318-1.503zm-2.335 3.306c-.324 1.27-2.45.578-3.144.416l.555-2.265c.694.162 2.913.5 2.6 1.85zm.324-3.306c-.277 1.156-2.08.578-2.658.416l.5-2.057c.578.162 2.45.416 2.15 1.64z"
     fill="#fff"
     id="path2" />
  <path
     d="M42.644 26.3c.763 0 1.4.14 1.965.393.555.277 1.017.624 1.364 1.086.37.462.624.994.8 1.618a7.8 7.8 0 0 1 .254 1.988 8.01 8.01 0 0 1-.601 3.075 7.79 7.79 0 0 1-1.641 2.52 7.87 7.87 0 0 1-2.45 1.7 7.54 7.54 0 0 1-3.075.624h-.74c-.347 0-.763-.046-1.225-.116l-1.456-.277c-.5-.116-.994-.3-1.456-.5l4.092-17.176 3.652-.578-1.456 6.103c.324-.14.624-.254.948-.324a3.62 3.62 0 0 1 1.017-.14zM39.57 36.426c.555 0 1.063-.14 1.55-.393a4.36 4.36 0 0 0 1.271-1.086c.347-.44.624-.948.832-1.526s.3-1.156.3-1.78c0-.763-.116-1.34-.37-1.78-.254-.416-.717-.647-1.387-.647-.23 0-.5.046-.855.116s-.67.254-.948.5l-1.55 6.473c.092.023.185.023.254.046s.14.023.23.046c.07 0 .185.023.277.023h.393zm11.28 2.6h-3.5L50.3 26.58h3.514zm1.688-13.962a2.11 2.11 0 0 1-1.318-.44c-.393-.3-.6-.74-.6-1.34 0-.324.07-.647.208-.925a2.53 2.53 0 0 1 .532-.763 3.39 3.39 0 0 1 .763-.51c.3-.116.6-.185.925-.185a2.11 2.11 0 0 1 1.318.44c.393.3.6.74.6 1.34 0 .324-.07.647-.208.925a2.53 2.53 0 0 1-.532.763c-.208.208-.485.37-.763.5s-.578.185-.925.185zm4.346-1.574l3.676-.578-.902 3.676h3.93l-.717 2.9h-3.907l-1.04 4.346a5.73 5.73 0 0 0-.162 1.017c-.022.323.023.578.116.8a.95.95 0 0 0 .509.532c.254.116.6.185 1.04.185.37 0 .74-.046 1.1-.116a6.11 6.11 0 0 0 1.063-.301l.254 2.705a13.21 13.21 0 0 1-1.526.439c-.555.14-1.202.185-1.965.185-1.086 0-1.92-.162-2.52-.485s-1.017-.763-1.27-1.318-.37-1.202-.324-1.92c.023-.717.14-1.48.324-2.3zm6.542 10.565a9.35 9.35 0 0 1 .509-3.028 7.58 7.58 0 0 1 1.479-2.473c.647-.717 1.433-1.27 2.358-1.688s1.942-.624 3.075-.624c.717 0 1.34.07 1.896.208s1.063.3 1.526.532l-1.202 2.75c-.324-.14-.647-.23-.97-.347-.347-.116-.763-.162-1.248-.162-1.18 0-2.08.393-2.774 1.202s-1.04 1.872-1.04 3.236c0 .8.185 1.456.532 1.942.347.5.994.74 1.92.74a6.06 6.06 0 0 0 1.318-.139 6.76 6.76 0 0 0 1.133-.347l.254 2.82-1.456.462c-.532.14-1.18.208-1.92.208-.97 0-1.803-.14-2.473-.416a4.86 4.86 0 0 1-1.688-1.156 4.19 4.19 0 0 1-.948-1.688 7.33 7.33 0 0 1-.277-2.034zM78.96 39.34c-.832 0-1.572-.14-2.173-.37-.624-.254-1.133-.6-1.526-1.063a4.81 4.81 0 0 1-.902-1.618c-.208-.624-.3-1.318-.3-2.057 0-.948.162-1.896.462-2.843a7.71 7.71 0 0 1 1.364-2.543c.6-.763 1.34-1.387 2.196-1.85.855-.485 1.85-.717 2.982-.717a6.35 6.35 0 0 1 2.173.37c.624.254 1.133.6 1.526 1.063a4.81 4.81 0 0 1 .902 1.618c.208.624.3 1.318.3 2.057 0 .948-.14 1.896-.44 2.843s-.74 1.803-1.318 2.543c-.578.763-1.318 1.364-2.196 1.85s-1.896.717-3.05.717zm1.757-10.125a2.34 2.34 0 0 0-1.364.439c-.393.3-.717.67-.994 1.133s-.462.948-.6 1.503-.208 1.063-.208 1.55c0 .786.14 1.4.37 1.85.254.44.717.67 1.364.67.532 0 .97-.14 1.364-.44s.717-.67.994-1.133.462-.948.6-1.503a6.16 6.16 0 0 0 .208-1.55c0-.786-.116-1.4-.37-1.85s-.717-.67-1.364-.67zm9.063 9.8h-3.5l2.96-12.437h3.514zm1.688-13.962a2.11 2.11 0 0 1-1.318-.44c-.393-.3-.6-.74-.6-1.34 0-.324.07-.647.208-.925a2.53 2.53 0 0 1 .532-.763 3.39 3.39 0 0 1 .763-.51c.3-.116.6-.185.925-.185a2.11 2.11 0 0 1 1.318.44c.393.3.6.74.6 1.34 0 .324-.07.647-.208.925a2.53 2.53 0 0 1-.532.763 3.39 3.39 0 0 1-.763.51c-.278.14-.578.185-.925.185zm3.812 2.08l.878-.277 1.086-.277a10.24 10.24 0 0 1 1.341-.208l1.688-.092c1.85 0 3.12.532 3.814 1.618.694 1.063.832 2.543.37 4.392l-1.618 6.704h-3.514l1.55-6.565.23-1.202c.046-.393.046-.717-.023-1.017a1.22 1.22 0 0 0-.44-.717c-.232-.185-.578-.277-1.063-.277-.462 0-.925.046-1.387.14l-2.3 9.617h-3.514z"
     fill="#4d4d4d"
     id="path3" />
  <path
     style="fill:#ffffff;stroke-width:0.0596421"
     d="m 37.664016,39.243361 c -1.163222,-0.152303 -2.871476,-0.584892 -3.169113,-0.802529 -0.113607,-0.08307 -0.147508,0.114242 0.307674,-1.790733 0.117571,-0.492047 0.293073,-1.230119 0.390003,-1.640159 0.09693,-0.410039 0.26924,-1.134691 0.38291,-1.610338 0.113671,-0.475646 0.328073,-1.374751 0.476451,-1.998012 0.263452,-1.10663 0.493782,-2.06934 0.870442,-3.638171 0.102383,-0.426441 0.195498,-0.815606 0.206921,-0.864811 0.108862,-0.468931 0.293393,-1.246316 0.382252,-1.610338 0.06006,-0.246023 0.167527,-0.702286 0.238824,-1.013916 0.191346,-0.836352 0.52825,-2.24306 0.638504,-2.666015 0.08298,-0.318328 0.118103,-0.373894 0.252365,-0.399263 0.08578,-0.01621 0.61223,-0.100354 1.169884,-0.186988 0.557654,-0.08663 1.302436,-0.204819 1.65507,-0.262633 0.352634,-0.05781 0.641153,-0.08573 0.641153,-0.06204 0,0.04036 -0.157003,0.704041 -0.803844,3.398015 -0.713436,2.971332 -0.662122,2.726553 -0.553015,2.637982 0.041,-0.03329 0.302684,-0.135116 0.581511,-0.226289 0.453454,-0.148272 0.595083,-0.166088 1.341948,-0.168809 0.705489,-0.0026 0.908991,0.01859 1.312127,0.13645 1.965638,0.574653 3.020901,2.28703 3.017676,4.896788 -0.0018,1.438816 -0.229424,2.40611 -0.870309,3.698034 -0.8189,1.650774 -2.294415,3.003821 -4.042106,3.706607 -0.421389,0.169451 -1.047196,0.337306 -1.624147,0.435633 -0.520676,0.08874 -2.220284,0.107858 -2.803181,0.03154 z m 2.479291,-2.886712 c 2.077588,-0.370645 3.617024,-2.81806 3.339286,-5.308838 -0.147771,-1.325216 -0.722454,-1.887886 -1.844589,-1.806028 -0.670488,0.04891 -1.049246,0.149152 -1.363209,0.360783 -0.315435,0.212623 -0.321478,0.228044 -0.669978,1.709561 -0.385031,1.636813 -0.490626,2.082563 -0.755889,3.190855 -0.149173,0.623261 -0.310649,1.27699 -0.358834,1.452733 -0.04819,0.175742 -0.0758,0.331343 -0.06136,0.345779 0.03539,0.03539 0.727836,0.123396 1.024549,0.130214 0.131213,0.003 0.441725,-0.03076 0.690027,-0.07506 z"
     id="path4" />
  <path
     style="fill:#ffffff;stroke-width:0.0596421"
     d="m 47.382576,38.896478 c 0.03326,-0.104788 0.167998,-0.678721 0.478367,-2.037631 0.199121,-0.871828 0.909261,-3.837177 1.014097,-4.234593 0.04759,-0.180417 0.100814,-0.41206 0.118268,-0.514762 0.01745,-0.102702 0.151364,-0.67974 0.297579,-1.282306 0.316422,-1.304009 0.987443,-4.156643 0.987443,-4.197801 0,-0.01594 0.79175,-0.02899 1.759443,-0.02899 0.967694,0 1.759444,0.01104 1.759444,0.02453 0,0.02741 -0.200338,0.879876 -0.512842,2.182226 -0.391504,1.631575 -0.436548,1.820488 -0.590171,2.475149 -0.08467,0.360835 -0.218525,0.924453 -0.297446,1.252485 -0.07892,0.328032 -0.197633,0.824553 -0.263804,1.10338 -0.06617,0.278827 -0.204384,0.855865 -0.307142,1.282306 -0.102758,0.426441 -0.196178,0.815606 -0.207601,0.864811 -0.01142,0.04921 -0.07786,0.331014 -0.147644,0.626243 -0.06978,0.295228 -0.189069,0.805169 -0.265083,1.133201 -0.07601,0.328031 -0.153101,0.63668 -0.171305,0.685884 -0.01821,0.04921 -0.06343,0.243788 -0.100492,0.432406 l -0.06739,0.342942 h -1.759233 c -1.679614,0 -1.757662,-0.005 -1.724485,-0.109486 z"
     id="path5" />
  <path
     style="fill:#ffffff;stroke-width:0.0596421"
     d="m 51.81796,24.9446 c -0.418633,-0.155264 -0.793077,-0.447263 -0.977842,-0.76254 -0.236533,-0.403614 -0.270633,-1.048629 -0.08494,-1.606643 0.492242,-1.479189 2.328185,-2.137698 3.548995,-1.27294 1.166178,0.826059 0.724526,2.815535 -0.78148,3.520281 -0.498528,0.233289 -1.257904,0.287564 -1.704735,0.121842 z"
     id="path6" />
  <path
     style="fill:#ffffff;stroke-width:0.0596421"
     d="m 57.474766,39.23736 c -1.619432,-0.146564 -2.706466,-0.936132 -3.100297,-2.251902 -0.09471,-0.316423 -0.117386,-0.561107 -0.113985,-1.229991 0.0048,-0.950077 0.127299,-1.769037 0.495,-3.310139 0.12914,-0.541252 0.505416,-2.124751 0.836169,-3.518887 0.729708,-3.075751 0.866209,-3.64941 1.014709,-4.264413 0.06337,-0.262426 0.145829,-0.620533 0.183253,-0.795795 0.04903,-0.229617 0.102929,-0.332511 0.192892,-0.368234 0.06867,-0.02727 0.675048,-0.133857 1.347513,-0.236867 0.672465,-0.10301 1.437376,-0.22246 1.699801,-0.265444 0.262426,-0.04298 0.485519,-0.0709 0.495763,-0.06203 0.01024,0.0089 -0.03878,0.253762 -0.108936,0.544214 -0.07016,0.290452 -0.139565,0.581772 -0.154237,0.647379 -0.01467,0.06561 -0.154839,0.642644 -0.311482,1.282306 l -0.284806,1.163022 1.957137,0.01572 1.957137,0.01572 -0.03283,0.13339 c -0.01806,0.07336 -0.173902,0.710427 -0.346319,1.415695 l -0.313484,1.282307 -1.963064,0.02982 -1.963063,0.02982 -0.08378,0.357853 c -0.04608,0.196819 -0.212819,0.894632 -0.370529,1.550695 -0.15771,0.656064 -0.367071,1.52833 -0.465246,1.93837 -0.331555,1.384779 -0.354923,1.95184 -0.100694,2.443464 0.311561,0.602493 1.509263,0.745768 3.016061,0.360795 0.247766,-0.0633 0.491103,-0.130681 0.54075,-0.149732 0.0917,-0.03519 0.14276,0.308404 0.274675,1.848455 0.07728,0.902223 0.139544,0.797596 -0.609846,1.024771 -1.165111,0.3532 -2.448632,0.481838 -3.688256,0.369647 z"
     id="path7" />
  <path
     style="fill:#ffffff;stroke-width:0.0596421"
     d="m 67.670466,39.265023 c -2.020187,-0.305205 -3.426073,-1.435058 -3.9588,-3.181524 -0.345667,-1.133216 -0.36035,-2.841793 -0.03562,-4.145129 0.452698,-1.816959 1.352867,-3.232142 2.705574,-4.253516 0.493672,-0.372751 1.451884,-0.872942 2.057746,-1.074152 1.018468,-0.338238 2.56474,-0.458796 3.632443,-0.28321 0.855409,0.140674 2.182666,0.544859 2.182666,0.66468 0,0.01559 -0.08268,0.208914 -0.183742,0.429615 -0.101058,0.220701 -0.25968,0.589147 -0.352493,0.81877 -0.09281,0.229622 -0.278706,0.655417 -0.413097,0.94621 -0.195985,0.424072 -0.264922,0.522096 -0.348302,0.495267 -0.05718,-0.0184 -0.305249,-0.102342 -0.551272,-0.186545 -0.662557,-0.226762 -1.136899,-0.29231 -1.816584,-0.251025 -0.996002,0.0605 -1.725051,0.369055 -2.304745,0.975446 -0.695335,0.727359 -1.050855,1.484474 -1.185026,2.523629 -0.231936,1.796341 0.244188,3.082828 1.273991,3.442328 0.243755,0.08509 0.489707,0.105741 1.229183,0.103192 0.940317,-0.0032 1.486119,-0.09479 2.103737,-0.352844 l 0.217016,-0.09067 0.03293,0.193532 c 0.01811,0.106443 0.05964,0.542439 0.09229,0.96888 0.03264,0.426442 0.07655,0.98335 0.09757,1.237575 0.02102,0.254224 0.02313,0.462226 0.0047,0.462226 -0.01844,0 -0.33766,0.09588 -0.70937,0.213063 -0.371711,0.117184 -0.89055,0.253856 -1.152976,0.303715 -0.633426,0.120346 -1.954035,0.140774 -2.617804,0.04049 z"
     id="path8" />
  <path
     style="fill:#ffffff;stroke-width:0.0596421"
     d="M 78.399602,39.319039 C 76.4858,39.108075 75.329507,38.36599 74.612678,36.888668 74.267586,36.177462 74.123845,35.544175 74.089659,34.58437 c -0.109501,-3.074295 1.166442,-5.713568 3.534595,-7.31127 0.704054,-0.474998 1.357301,-0.732541 2.251992,-0.887848 0.764768,-0.132754 2.150707,-0.08593 2.81543,0.09511 1.316099,0.358457 2.226803,1.133627 2.779763,2.36607 0.372585,0.830422 0.44313,1.237741 0.442537,2.555157 -4.58e-4,1.016244 -0.02074,1.287064 -0.136976,1.829254 -0.191312,0.89237 -0.388506,1.467377 -0.76353,2.226412 -0.9814,1.986324 -2.742358,3.395619 -4.691821,3.754865 -0.497166,0.09162 -1.536414,0.149427 -1.922047,0.106919 z m 1.3386,-3.00116 c 0.478558,-0.09746 0.868748,-0.328786 1.31297,-0.778399 0.8566,-0.866992 1.3748,-2.312513 1.37393,-3.832581 -4.68e-4,-0.816687 -0.079,-1.246958 -0.311138,-1.704592 -0.264641,-0.521723 -0.582396,-0.724627 -1.195155,-0.763172 -1.000619,-0.06294 -1.808529,0.402781 -2.458001,1.416929 -0.842877,1.316147 -1.139782,3.257016 -0.707856,4.627243 0.106121,0.336655 0.406421,0.747227 0.636662,0.870448 0.360607,0.192991 0.890304,0.257456 1.348588,0.164124 z"
     id="path9" />
  <path
     style="fill:#ffffff;stroke-width:0.0596421"
     d="m 86.332838,38.813036 c 0.02229,-0.10711 0.146513,-0.637589 0.27605,-1.178841 0.513811,-2.146891 0.783466,-3.279584 1.100401,-4.622267 0.147119,-0.62326 0.373698,-1.576043 0.503511,-2.117296 0.129812,-0.541252 0.343819,-1.440358 0.47557,-1.998012 0.131751,-0.557654 0.309902,-1.302435 0.395891,-1.655069 l 0.156342,-0.641153 h 1.752604 1.752604 l -0.03061,0.134194 c -0.03269,0.1433 -0.292117,1.229216 -0.687507,2.877734 -0.133751,0.557654 -0.281399,1.17495 -0.328105,1.371769 -0.04671,0.19682 -0.194321,0.814116 -0.328032,1.37177 -0.133711,0.557654 -0.283284,1.18837 -0.332385,1.40159 -0.0491,0.213221 -0.114248,0.481611 -0.144772,0.596422 -0.03052,0.114811 -0.137675,0.557654 -0.238113,0.984095 -0.230042,0.976715 -0.428254,1.807028 -0.676293,2.833002 l -0.194658,0.805169 -1.746514,0.01582 -1.746514,0.01582 z"
     id="path10" />
  <path
     style="fill:#ffffff;stroke-width:0.0596421"
     d="m 90.948389,24.997823 c -0.57691,-0.12282 -1.167124,-0.642513 -1.315573,-1.158383 -0.364031,-1.265029 0.582154,-2.659885 1.970947,-2.905548 0.967825,-0.171198 1.873312,0.28333 2.18374,1.096175 0.166979,0.437228 0.10417,1.153438 -0.143859,1.640424 -0.242125,0.475396 -0.639113,0.873323 -1.130356,1.133034 -0.323712,0.171139 -0.450563,0.20345 -0.864811,0.220275 -0.267,0.01084 -0.58204,-8.45e-4 -0.700088,-0.02598 z"
     id="path11" />
  <path
     style="fill:#ffffff;stroke-width:0.0596421"
     d="m 99.378389,38.813039 c 0.02346,-0.164113 0.334085,-1.498778 0.881661,-3.788188 0.0647,-0.270626 0.16988,-0.713469 0.23367,-0.984096 0.0638,-0.270626 0.18435,-0.776608 0.2679,-1.124404 0.26365,-1.097494 0.40185,-2.017492 0.36193,-2.409393 -0.0547,-0.537138 -0.28063,-0.908886 -0.67807,-1.11577 -0.28422,-0.147943 -0.38282,-0.166536 -0.883148,-0.166536 -0.309766,0 -0.744036,0.02986 -0.965044,0.06636 l -0.401832,0.06636 -0.224533,0.932644 c -0.425515,1.76747 -0.64035,2.663273 -0.724296,3.02012 -0.0463,0.196819 -0.19397,0.814115 -0.328155,1.37177 -0.134184,0.557654 -0.295037,1.228628 -0.357452,1.491053 -0.37991,1.597358 -0.547926,2.295876 -0.60611,2.519881 l -0.06584,0.253479 h -1.755711 c -1.643557,0 -1.753831,-0.0067 -1.72628,-0.104374 0.02774,-0.09838 0.512174,-2.069565 0.963729,-3.921471 0.111979,-0.459244 0.434904,-1.774354 0.717612,-2.922465 0.282708,-1.148111 0.519502,-2.114314 0.52621,-2.147117 0.0067,-0.0328 0.158784,-0.657581 0.337948,-1.388394 l 0.325752,-1.328752 0.461149,-0.146078 c 0.58629,-0.18572 1.589131,-0.440971 2.014,-0.512621 0.812181,-0.136965 3.039091,-0.195576 3.757451,-0.09889 1.87355,0.252153 3.0636,1.578242 3.19857,3.564202 0.0402,0.591273 -0.0491,1.476489 -0.22197,2.201734 -0.19445,0.815554 -0.51321,2.141377 -0.73614,3.061803 -0.11319,0.467381 -0.31592,1.306045 -0.4505,1.863699 -0.13457,0.557655 -0.29388,1.215209 -0.35401,1.461233 l -0.10932,0.447316 -1.7435,0.01582 -1.743506,0.01582 z"
     id="path12" />
</svg>
