<?xml version="1.0" encoding="UTF-8" standalone="no"?>
<svg
   viewBox="0 0 14.397 7.2"
   width="120"
   height="60"
   version="1.1"
   id="svg7"
   sodipodi:docname="figma_logo.svg"
   inkscape:version="1.4.2 (ebf0e940d0, 2025-05-08)"
   xmlns:inkscape="http://www.inkscape.org/namespaces/inkscape"
   xmlns:sodipodi="http://sodipodi.sourceforge.net/DTD/sodipodi-0.dtd"
   xmlns="http://www.w3.org/2000/svg"
   xmlns:svg="http://www.w3.org/2000/svg">
  <defs
     id="defs7" />
  <sodipodi:namedview
     id="namedview7"
     pagecolor="#505050"
     bordercolor="#eeeeee"
     borderopacity="1"
     inkscape:showpageshadow="0"
     inkscape:pageopacity="0"
     inkscape:pagecheckerboard="0"
     inkscape:deskcolor="#505050"
     showgrid="false"
     inkscape:zoom="16.766667"
     inkscape:cx="60"
     inkscape:cy="29.970179"
     inkscape:window-width="2560"
     inkscape:window-height="1368"
     inkscape:window-x="0"
     inkscape:window-y="0"
     inkscape:window-maximized="1"
     inkscape:current-layer="svg7" />
  <path
     d="M2.156 6.46c.526 0 .953-.427.953-.953v-.953h-.953c-.526 0-.953.427-.953.953s.427.953.953.953z"
     fill="#0acf83"
     id="path1" />
  <path
     d="M1.202 3.6c0-.526.427-.953.953-.953h.953v1.907h-.953c-.526 0-.953-.427-.953-.953z"
     fill="#a259ff"
     id="path2" />
  <path
     d="M1.202 1.693c0-.526.427-.953.953-.953h.953v1.907h-.953c-.526 0-.953-.427-.953-.953z"
     fill="#f24e1e"
     id="path3" />
  <path
     d="M3.1.74h.953c.526 0 .953.427.953.953s-.427.953-.953.953H3.1z"
     fill="#ff7262"
     id="path4" />
  <path
     d="M5.016 3.6c0 .526-.427.953-.953.953S3.1 4.126 3.1 3.6s.427-.953.953-.953.953.427.953.953z"
     fill="#1abcfe"
     id="path5" />
  <path
     d="M6.058 2.32v1.998h.257v-.954h.618v-.248h-.618V2.57h.803v-.25zm1.525.406c.093 0 .168-.075.168-.168S7.675 2.4 7.583 2.4s-.168.075-.168.168c0 .045.018.087.05.12s.074.05.12.05zm-.13.252v1.34H7.7v-1.34h-.255zm1.212-.04c-.342 0-.58.3-.58.632s.24.63.58.63a.51.51 0 0 0 .379-.159v.178a.42.42 0 0 1-.116.287.4.4 0 0 1-.286.12.42.42 0 0 1-.228-.076l-.13.223a.66.66 0 0 0 1.017-.557v-1.24h-.257v.12a.51.51 0 0 0-.379-.159zm-.322.632a.35.35 0 0 1 .166-.33c.114-.07.257-.07.37 0s.177.198.166.33a.35.35 0 0 1-.166.33c-.114.07-.257.07-.37 0s-.177-.198-.166-.33z"
     id="path6" />
  <path
     d="M10.228 3.2a.28.28 0 0 0-.279.279v.848h-.257v-1.34h.257V3.1c.078-.104.202-.164.332-.162.164-.004.317.084.398.227.1-.14.244-.225.4-.227.293 0 .475.236.476.528v.853h-.257v-.85a.28.28 0 0 0-.427-.276.28.28 0 0 0-.124.276v.848H10.5V3.47a.28.28 0 0 0-.279-.279zm2.7-.07a.62.62 0 0 0-.453-.191c-.383 0-.65.324-.65.7s.27.7.65.7a.62.62 0 0 0 .453-.191V4.3h.257V2.96h-.257zm-.85.52c-.013-.16.065-.314.202-.398s.3-.084.446 0a.43.43 0 0 1 .202.398c.013.16-.065.314-.202.398s-.3.084-.446 0a.43.43 0 0 1-.202-.398z"
     id="path7" />
  <path
     style="fill:#ffffff;stroke-width:0.0596421"
     d="m 50.516899,27.673956 v -8.290258 h 4.383697 4.383698 v 1.013916 1.013917 h -3.33996 -3.33996 v 2.296222 2.296223 h 2.564612 2.564612 v 1.013917 1.013916 h -2.564612 -2.564612 v 3.966203 3.966203 h -1.043738 -1.043737 z"
     id="path8"
     transform="matrix(0.12,0,0,0.12,-0.0015,0)" />
  <path
     style="fill:#ffffff;stroke-width:0.0596421"
     d="m 62.147117,30.417495 v -5.54672 h 1.013917 1.013916 v 5.54672 5.54672 h -1.013916 -1.013917 z"
     id="path9"
     transform="matrix(0.12,0,0,0.12,-0.0015,0)" />
  <path
     style="fill:#ffffff;stroke-width:0.0596421"
     d="m 62.743539,22.704958 c -0.289457,-0.09175 -0.732117,-0.551268 -0.82173,-0.853031 -0.163349,-0.550055 -0.03643,-1.067646 0.35222,-1.436379 0.36903,-0.350121 0.852733,-0.459166 1.383274,-0.311843 0.262304,0.07284 0.66032,0.409615 0.800225,0.677101 0.141253,0.270065 0.125678,0.840672 -0.03126,1.145091 -0.213874,0.414871 -0.688769,0.738119 -1.084395,0.738119 -0.09946,0 -0.180842,0.02684 -0.180842,0.05964 0,0.07407 -0.145348,0.06756 -0.417495,-0.0187 z"
     id="path10"
     transform="matrix(0.12,0,0,0.12,-0.0015,0)" />
  <path
     style="fill:#ffffff;stroke-width:0.0596421"
     d="m 71.063618,40.528435 c -0.689975,-0.127423 -1.792343,-0.559098 -1.908747,-0.747444 -0.02765,-0.04474 0.76027,-1.504476 0.960512,-1.779501 0.0082,-0.01121 0.211433,0.07639 0.451715,0.194667 1.577566,0.77653 3.324978,0.297662 4.287332,-1.174918 0.422459,-0.646441 0.489966,-0.938483 0.518887,-2.244754 l 0.02563,-1.157908 -0.344357,0.306922 c -0.433707,0.386556 -1.137787,0.75544 -1.731925,0.907395 -0.552812,0.141385 -1.474607,0.155183 -2.06124,0.03085 -2.7476,-0.582324 -4.447134,-3.69523 -3.626647,-6.642654 0.530946,-1.907311 1.966692,-3.287419 3.776001,-3.629675 1.324681,-0.250583 2.663531,0.107295 3.679213,0.983463 l 0.297677,0.256788 V 25.3214 24.811133 h 1.045476 1.045476 l -0.01676,5.651094 -0.01676,5.651093 -0.167116,0.533837 c -0.533569,1.704431 -1.717582,2.987797 -3.33169,3.611256 -0.86604,0.334514 -1.972349,0.438141 -2.882691,0.270022 z m 1.878728,-7.607682 c 1.237035,-0.1929 2.255319,-1.22464 2.446715,-2.479047 0.07261,-0.475876 0.04203,-1.309986 -0.06241,-1.702265 -0.197275,-0.740979 -0.832885,-1.537835 -1.49378,-1.872737 -1.138581,-0.576962 -2.488553,-0.380998 -3.406399,0.494479 -0.603361,0.575509 -0.871699,1.184895 -0.925718,2.102273 -0.04406,0.748262 0.05728,1.326188 0.327502,1.867743 0.39238,0.786363 1.149401,1.376158 2.005401,1.562407 0.453995,0.09878 0.622809,0.102914 1.108692,0.02715 z"
     id="path11"
     transform="matrix(0.12,0,0,0.12,-0.0015,0)" />
  <path
     style="fill:#ffffff;stroke-width:0.0596421"
     d="m 80.815109,30.477137 v -5.54672 h 1.043738 1.043737 v 0.447317 c 0,0.246023 0.0079,0.447316 0.0175,0.447316 0.0096,0 0.177367,-0.154693 0.372763,-0.343761 0.709163,-0.686197 1.586919,-1.004118 2.621668,-0.949561 1.157183,0.06101 2.147512,0.587978 2.818874,1.499959 0.145744,0.19798 0.282353,0.346584 0.303575,0.330232 0.02122,-0.01635 0.163626,-0.179984 0.316456,-0.363626 0.803265,-0.965222 2.095171,-1.545756 3.265817,-1.467536 1.512928,0.101091 2.733787,1.017509 3.300768,2.477668 0.333803,0.859649 0.342422,0.989133 0.342422,5.143939 v 3.811851 h -1.04643 -1.04643 l 0.008,-3.921471 c 0.0072,-3.537809 -0.0019,-3.950233 -0.09276,-4.215442 -0.207209,-0.604806 -0.667516,-1.115172 -1.251762,-1.387893 -0.320704,-0.149703 -0.422993,-0.167043 -0.98535,-0.167043 -0.588364,0 -0.652233,0.01218 -1.024156,0.195275 -0.491344,0.241888 -0.939202,0.713157 -1.132407,1.191604 l -0.138405,0.342743 -0.01654,3.981113 -0.01654,3.981114 h -0.982469 -0.98247 v -3.62564 c 0,-3.875107 -0.0066,-3.973657 -0.303359,-4.555426 -0.177295,-0.347526 -0.626215,-0.77486 -1.01258,-0.963891 -0.347038,-0.16979 -1.011264,-0.311031 -1.066942,-0.226875 -0.01794,0.02712 -0.160923,0.06646 -0.31773,0.08741 -0.593547,0.07932 -1.24366,0.505848 -1.581182,1.037396 -0.372253,0.586242 -0.370295,0.561811 -0.370295,4.619677 v 3.686988 h -1.043737 -1.043738 z"
     id="path12"
     transform="matrix(0.12,0,0,0.12,-0.0015,0)" />
  <path
     style="fill:#ffffff;stroke-width:0.0596421"
     d="m 103.25206,36.083185 c -2.04513,-0.287302 -3.719432,-1.77957 -4.384318,-3.907658 -0.548148,-1.754449 -0.261772,-3.80414 0.738291,-5.284188 0.959077,-1.419398 2.416527,-2.255211 4.111657,-2.357954 1.33685,-0.08103 2.63888,0.375639 3.71273,1.302171 l 0.34294,0.295896 V 25.41165 24.691849 h 1.04374 1.04373 v 5.54672 5.546719 h -1.04373 -1.04374 V 35.15495 34.524611 l -0.34294,0.295635 c -0.94841,0.817571 -2.00255,1.235695 -3.25597,1.291475 -0.30042,0.01337 -0.7155,5.28e-4 -0.92239,-0.02854 z m 1.6883,-1.878676 c 0.69177,-0.145239 1.24257,-0.455252 1.79106,-1.008073 0.78456,-0.790775 1.03951,-1.471908 1.04106,-2.781321 0.001,-1.265935 -0.2875,-2.030444 -1.05871,-2.800749 -0.66171,-0.660934 -1.36061,-0.980864 -2.2915,-1.048964 -1.73382,-0.126838 -3.35763,1.100272 -3.71624,2.808355 -0.11487,0.547119 -0.11319,1.470139 0.004,2.045259 0.39393,1.937829 2.29771,3.191308 4.2306,2.785493 z"
     id="path13"
     transform="matrix(0.12,0,0,0.12,-0.0015,0)" />
</svg>
