<?xml version="1.0" encoding="UTF-8" standalone="no"?>
<svg
   width="120"
   height="60"
   version="1.1"
   id="svg2"
   sodipodi:docname="git_logo.svg"
   inkscape:version="1.4.2 (ebf0e940d0, 2025-05-08)"
   xmlns:inkscape="http://www.inkscape.org/namespaces/inkscape"
   xmlns:sodipodi="http://sodipodi.sourceforge.net/DTD/sodipodi-0.dtd"
   xmlns="http://www.w3.org/2000/svg"
   xmlns:svg="http://www.w3.org/2000/svg">
  <defs
     id="defs2" />
  <sodipodi:namedview
     id="namedview2"
     pagecolor="#505050"
     bordercolor="#eeeeee"
     borderopacity="1"
     inkscape:showpageshadow="0"
     inkscape:pageopacity="0"
     inkscape:pagecheckerboard="0"
     inkscape:deskcolor="#505050"
     showgrid="false"
     inkscape:zoom="16.766667"
     inkscape:cx="60"
     inkscape:cy="29.970179"
     inkscape:window-width="2560"
     inkscape:window-height="1368"
     inkscape:window-x="0"
     inkscape:window-y="0"
     inkscape:window-maximized="1"
     inkscape:current-layer="svg2" />
  <path
     d="M72.03 26.27c-1.7 0-2.968.835-2.968 2.845 0 1.5.835 2.565 2.875 2.565 1.73 0 2.905-1.02 2.905-2.628 0-1.825-1.05-2.782-2.812-2.782zm-3.4 14.19c-.403.494-.804 1.02-.804 1.625 0 1.235 1.575 1.608 3.74 1.608 1.793 0 4.235-.125 4.235-1.793 0-.99-1.175-1.052-2.66-1.145l-4.5-.308zm9.15-14.098c.555.713 1.144 1.7 1.144 3.123 0 3.43-2.7 5.44-6.584 5.44-1 0-1.875-.125-2.443-.278l-1.02 1.625 3.03.185c5.35.34 8.5.496 8.5 4.605 0 3.556-3.12 5.562-8.5 5.562-5.595 0-7.727-1.422-7.727-3.875 0-1.39.62-2.133 1.7-3.154-1.02-.43-1.36-1.204-1.36-2.038 0-.68.34-1.3.897-1.875l1.916-1.855c-1.515-.74-2.66-2.35-2.66-4.625 0-3.555 2.35-5.996 7.08-5.996 1.33 0 2.134.123 2.845.31h6.028v2.627l-2.845.216m8.282-5.615c-1.75 0-2.782-1.02-2.782-2.784s1.02-2.72 2.782-2.72c1.793 0 2.813.96 2.813 2.72s-1.02 2.784-2.812 2.784zm-4 18.578v-2.44l1.578-.216c.432-.062.495-.155.495-.62V26.96c0-.34-.093-.556-.403-.65l-1.67-.587.34-2.502h6.4v12.83c0 .495.03.556.495.62l1.575.216v2.438H82.06m21.05-1.2c-1.33.65-3.278 1.25-5.04 1.25-3.68 0-5.07-1.482-5.07-4.977v-8.1c0-.185 0-.31-.25-.31H90.6v-2.75c2.72-.3 3.803-1.67 4.143-5.04h2.937v4.39c0 .215 0 .31.248.31h4.36v3.09H97.67v7.375c0 1.825.434 2.535 2.1 2.535.866 0 1.75-.216 2.504-.494l.835 2.72"
     fill="#362701"
     id="path1" />
  <path
     d="M50.67 29.25L32.138 10.72c-1.066-1.067-2.797-1.067-3.865 0l-3.847 3.848 4.88 4.88c1.135-.383 2.435-.125 3.337.777a3.25 3.25 0 0 1 .771 3.36l4.704 4.704c1.125-.392 2.45-.137 3.36.77a3.25 3.25 0 0 1-1.459 5.441 3.25 3.25 0 0 1-3.141-.842c-.955-.956-1.19-2.36-.707-3.537l-4.375-4.375v11.545c.3.154.602.357.86.615 1.27 1.27 1.27 3.328 0 4.6a3.25 3.25 0 0 1-4.599 0c-1.27-1.273-1.27-3.33 0-4.6a3.27 3.27 0 0 1 1.065-.71V25.546c-.375-.16-.75-.394-1.065-.7a3.25 3.25 0 0 1-.7-3.555l-4.812-4.813L9.83 29.163a2.74 2.74 0 0 0 0 3.866l18.533 18.53c1.066 1.067 2.797 1.067 3.865 0L50.67 33.116a2.74 2.74 0 0 0 0-3.866"
     fill="#f03c2e"
     id="path2" />
  <path
     style="fill:#ffffff;stroke-width:0.0596421"
     d="m 69.751491,46.517619 c -3.23252,-0.322978 -4.903955,-1.185863 -5.398494,-2.786995 -0.08357,-0.270572 -0.118405,-0.553273 -0.118405,-0.960956 0,-1.083005 0.262365,-1.683491 1.133201,-2.593601 0.31163,-0.325685 0.537964,-0.602017 0.502963,-0.61407 -0.035,-0.01205 -0.212924,-0.115296 -0.395386,-0.229428 -0.406514,-0.254276 -0.725247,-0.699542 -0.851141,-1.189036 -0.111474,-0.433421 -0.113078,-0.618161 -0.0092,-1.059556 0.138612,-0.589001 0.409138,-0.947818 1.602668,-2.125727 0.615059,-0.607009 1.11829,-1.12054 1.11829,-1.141178 0,-0.02064 -0.08723,-0.07938 -0.193837,-0.130534 -0.684201,-0.328303 -1.450857,-1.143753 -1.867857,-1.986737 -0.364267,-0.736379 -0.507987,-1.327058 -0.54641,-2.245705 -0.117036,-2.798127 1.25111,-4.862343 3.800947,-5.734751 1.066147,-0.364774 1.555739,-0.427224 3.33996,-0.426032 1.473179,9.85e-4 1.700329,0.01455 2.231171,0.133216 0.566443,0.126627 0.713347,0.132119 3.533797,0.132119 h 2.942786 v 1.27407 1.27407 l -0.372764,0.036 c -0.20502,0.0198 -0.829026,0.06791 -1.38668,0.10692 -0.557654,0.03901 -1.02365,0.07874 -1.035547,0.0883 -0.0119,0.0096 0.103041,0.204915 0.255418,0.434123 0.629473,0.946862 0.839409,1.658036 0.829613,2.810373 -0.0083,0.974516 -0.130568,1.509227 -0.525126,2.296223 -0.824114,1.643797 -2.53798,2.68496 -4.865071,2.955499 -0.75847,0.08818 -2.264137,0.04347 -2.979366,-0.08846 -0.278827,-0.05143 -0.537619,-0.09355 -0.575092,-0.0936 -0.06545,-7.9e-5 -1.035246,1.499772 -1.035246,1.60107 0,0.02716 0.543489,0.08163 1.207753,0.121052 3.641414,0.216099 5.276693,0.352234 6.238541,0.519349 2.382991,0.414028 3.463647,1.195746 3.895563,2.817946 0.176813,0.664082 0.176374,1.941338 -8.96e-4,2.604517 -0.601188,2.249088 -2.539424,3.613351 -5.853931,4.120399 -0.73687,0.112725 -3.772659,0.166001 -4.622219,0.08112 z m 3.378373,-2.862532 c 1.833433,-0.185842 2.670458,-0.726372 2.673772,-1.726658 0.0015,-0.445615 -0.149377,-0.682342 -0.551723,-0.865793 -0.171356,-0.07813 -0.486127,-0.169721 -0.699491,-0.203535 -0.34416,-0.05454 -5.388742,-0.421474 -5.796923,-0.421654 -0.129619,-5.8e-5 -0.212447,0.07259 -0.424915,0.372692 -0.382089,0.539681 -0.46997,0.740678 -0.50283,1.150043 -0.0775,0.96552 0.653933,1.496988 2.328567,1.691956 0.63051,0.07341 2.262475,0.07502 2.973543,0.0029 z M 72.896699,31.577928 c 0.794574,-0.194998 1.409902,-0.688118 1.72916,-1.385738 0.154923,-0.338529 0.187836,-0.493878 0.211444,-0.99803 0.03299,-0.704507 -0.04443,-1.139987 -0.290063,-1.63154 -0.521447,-1.043509 -1.877787,-1.535774 -3.377821,-1.225933 -0.852833,0.176157 -1.471584,0.611826 -1.797182,1.265415 -0.236007,0.473749 -0.313456,0.838518 -0.314777,1.482541 -0.0033,1.588046 0.791823,2.433316 2.453474,2.60835 0.324894,0.03422 1.008866,-0.02257 1.385765,-0.115065 z"
     id="path3" />
  <path
     style="fill:#ffffff;stroke-width:0.0596421"
     d="m 82.067594,38.116071 v -1.188104 l 0.164016,-0.03238 c 0.09021,-0.01781 0.472664,-0.07477 0.849901,-0.126597 0.803335,-0.110357 1.004233,-0.177576 1.046351,-0.350104 0.017,-0.06966 0.02337,-2.323107 0.01415,-5.007673 l -0.01677,-4.881029 -0.128014,-0.103645 c -0.07041,-0.05701 -0.499831,-0.232487 -0.954274,-0.389961 -0.454444,-0.157474 -0.851445,-0.309435 -0.882226,-0.337692 -0.04758,-0.04368 0.128918,-1.664435 0.247688,-2.274438 l 0.03194,-0.164016 h 3.152067 3.152067 l 0.01642,6.595741 0.01642,6.59574 0.128556,0.104085 c 0.08696,0.07041 0.376406,0.137076 0.894632,0.206059 0.421342,0.05609 0.826464,0.114738 0.900271,0.130338 0.133742,0.02827 0.134195,0.03239 0.134195,1.220068 v 1.191707 h -4.383698 -4.383698 z"
     id="path4" />
  <path
     style="fill:#ffffff;stroke-width:0.0596421"
     d="m 85.198807,20.613066 c -0.720652,-0.17548 -1.288039,-0.620701 -1.581319,-1.24084 -0.244852,-0.517741 -0.316648,-0.931417 -0.282552,-1.628016 0.03515,-0.71811 0.184916,-1.15821 0.543209,-1.596262 0.696191,-0.851169 2.22081,-1.126262 3.527422,-0.636467 0.49154,0.184258 1.032659,0.722892 1.214126,1.208552 0.544122,1.456225 0.07171,3.097662 -1.057273,3.673628 -0.571022,0.291314 -1.655052,0.39194 -2.363613,0.219405 z"
     id="path5" />
  <path
     style="fill:#ffffff;stroke-width:0.0596421"
     d="m 97.007952,39.296374 c -1.953851,-0.186807 -3.207828,-1.063523 -3.676917,-2.570709 -0.274458,-0.881833 -0.288792,-1.180402 -0.289046,-6.02061 -2.13e-4,-4.077792 -0.01039,-4.583429 -0.09396,-4.666998 -0.07842,-0.07842 -0.273166,-0.09372 -1.192843,-0.09372 h -1.099119 v -1.339246 -1.339245 l 0.223658,-0.03707 c 1.439523,-0.238603 2.365504,-0.763274 2.922326,-1.655822 0.492991,-0.790232 0.685777,-1.428384 0.945158,-3.128615 l 0.02957,-0.193837 h 1.428709 1.428709 V 20.4822 c 0,1.227436 0.01629,2.274156 0.0362,2.326043 0.03214,0.08376 0.293027,0.09434 2.326044,0.09434 h 2.289839 v 1.520875 1.520875 h -2.328998 -2.329001 l 0.01899,4.219682 c 0.01857,4.126727 0.02179,4.227934 0.146377,4.594272 0.171279,0.503648 0.370544,0.747159 0.772213,0.943677 0.622909,0.304761 1.952419,0.26753 3.148869,-0.08818 l 0.54837,-0.163035 0.39926,1.312406 c 0.21959,0.721822 0.37913,1.332434 0.35453,1.356916 -0.085,0.08464 -1.18015,0.515446 -1.77749,0.699256 -0.79111,0.243436 -1.613256,0.409223 -2.398739,0.48371 -0.721163,0.06839 -1.060633,0.06715 -1.832706,-0.0067 z"
     id="path6" />
</svg>
