<?xml version="1.0" encoding="UTF-8" standalone="no"?>
<svg
   enable-background="new 0 0 2500 1250"
   viewBox="0 0 2500 1250"
   version="1.1"
   id="svg7"
   sodipodi:docname="jwt_logo.svg"
   inkscape:version="1.4.2 (ebf0e940d0, 2025-05-08)"
   xmlns:inkscape="http://www.inkscape.org/namespaces/inkscape"
   xmlns:sodipodi="http://sodipodi.sourceforge.net/DTD/sodipodi-0.dtd"
   xmlns="http://www.w3.org/2000/svg"
   xmlns:svg="http://www.w3.org/2000/svg">
  <defs
     id="defs7" />
  <sodipodi:namedview
     id="namedview7"
     pagecolor="#505050"
     bordercolor="#eeeeee"
     borderopacity="1"
     inkscape:showpageshadow="0"
     inkscape:pageopacity="0"
     inkscape:pagecheckerboard="0"
     inkscape:deskcolor="#505050"
     showgrid="false"
     inkscape:zoom="0.8048"
     inkscape:cx="1250"
     inkscape:cy="624.37873"
     inkscape:window-width="2560"
     inkscape:window-height="1368"
     inkscape:window-x="0"
     inkscape:window-y="0"
     inkscape:window-maximized="1"
     inkscape:current-layer="svg7" />
  <g
     clip-rule="evenodd"
     fill-rule="evenodd"
     id="g7">
    <path
       d="m0 0h2500v1250h-2500z"
       id="path1" />
    <path
       d="m673.8 479.4-.6-168.1h-93.8l.6 168.1 46.9 64.4zm-93.8 288.1v168.7h93.8v-168.7l-46.9-64.4z"
       fill="#fff"
       id="path2" />
    <path
       d="m673.8 767.5 98.8 136.3 75.6-55-98.8-136.3-75.6-24.4zm-93.8-288.1-99.4-136.3-75.6 55 98.8 136.2 76.2 24.4z"
       fill="#00f2e6"
       id="path3" />
    <path
       d="m503.8 534.4-160-51.9-28.8 88.7 160 52.5 75.6-25zm198.7 113.7 46.9 64.4 160 51.9 28.8-88.7-160-51.9z"
       fill="#00b9f1"
       id="path4" />
    <path
       d="m778.1 623.8 160-52.5-28.8-88.7-160 51.9-46.9 64.4zm-303.1 0-160 51.9 28.8 88.7 160-51.9 46.9-64.4z"
       fill="#d63aff"
       id="path5" />
    <path
       d="m503.8 712.5-98.8 136.3 75.6 55 99.4-136.3v-79.4zm245.6-178.1 98.8-136.3-75.6-55-98.8 136.2v79.4z"
       fill="#fb015b"
       id="path6" />
    <path
       d="m1288.1 470.6v218.7c0 48.1-39.4 87.5-87.5 87.5v-43.8c24.4 0 43.8-19.4 43.8-43.8v-218.6zm798.8 43.8h98.7v-43.7h-240.6v43.7h98.1v262.5h43.8zm-273.8-43.8v218.7c0 24.4-19.4 43.8-43.8 43.8s-43.8-19.4-43.8-43.8v-131.2c0-48.1-39.4-87.5-87.5-87.5s-87.5 39.4-87.5 87.5v131.3c0 24.4-19.4 43.8-43.8 43.8s-43.8-19.4-43.8-43.8v-218.8h-43.8v218.7c0 48.1 39.4 87.5 87.5 87.5s87.5-39.4 87.5-87.5v-131.2c0-24.4 19.4-43.8 43.8-43.8s43.8 19.4 43.8 43.8v131.3c0 48.1 39.4 87.5 87.5 87.5s87.5-39.4 87.5-87.5v-218.8z"
       fill="#fff"
       id="path7" />
  </g>
</svg>
