<?xml version="1.0" encoding="UTF-8" standalone="no"?>
<svg
   width="120"
   height="60"
   version="1.1"
   id="svg6"
   sodipodi:docname="mongodb_logo.svg"
   inkscape:version="1.4.2 (ebf0e940d0, 2025-05-08)"
   xmlns:inkscape="http://www.inkscape.org/namespaces/inkscape"
   xmlns:sodipodi="http://sodipodi.sourceforge.net/DTD/sodipodi-0.dtd"
   xmlns="http://www.w3.org/2000/svg"
   xmlns:svg="http://www.w3.org/2000/svg">
  <defs
     id="defs6" />
  <sodipodi:namedview
     id="namedview6"
     pagecolor="#505050"
     bordercolor="#eeeeee"
     borderopacity="1"
     inkscape:showpageshadow="0"
     inkscape:pageopacity="0"
     inkscape:pagecheckerboard="0"
     inkscape:deskcolor="#505050"
     showgrid="false"
     inkscape:zoom="16.766667"
     inkscape:cx="60"
     inkscape:cy="29.970179"
     inkscape:window-width="2560"
     inkscape:window-height="1368"
     inkscape:window-x="0"
     inkscape:window-y="0"
     inkscape:window-maximized="1"
     inkscape:current-layer="svg6" />
  <path
     d="M16.147 5.154l1.09 2.05a6.15 6.15 0 0 0 .824 1.024c.913.913 1.782 1.87 2.56 2.895 1.848 2.427 3.095 5.122 3.986 8.04.534 1.782.824 3.608.846 5.456.09 5.523-1.804 10.266-5.634 14.208a16.3 16.3 0 0 1-2.004 1.715c-.38 0-.557-.3-.713-.557-.3-.5-.468-1.047-.557-1.603-.134-.668-.223-1.336-.178-2.027v-.312c-.022-.067-.356-30.732-.223-30.888z"
     fill="#599636"
     id="path1" />
  <path
     d="M16.147 5.088c-.045-.09-.09-.022-.134.022.022.445-.134.846-.38 1.225-.267.38-.624.668-.98.98-1.982 1.715-3.54 3.786-4.788 6.102-1.648 3.118-2.516 6.458-2.76 9.977-.11 1.27.4 5.746.802 7.037 1.09 3.43 3.05 6.302 5.6 8.796.624.6 1.292 1.158 1.982 1.692.2 0 .223-.178.267-.312a6.11 6.11 0 0 0 .2-.869c.2-1.113.312-2.227.445-3.34l-.245-31.31z"
     fill="#6cac48"
     id="path2" />
  <path
     d="M17.24 41.9c.045-.512.3-.935.557-1.358-.267-.11-.468-.334-.624-.58-.134-.223-.245-.5-.334-.735-.312-.935-.38-1.915-.468-2.873v-.58c-.11.09-.134.846-.134.958-.067 1.024-.2 2.027-.4 3.006-.067.4-.11.802-.356 1.158 0 .045 0 .09.022.156.4 1.18.512 2.383.58 3.608v.445c0 .534-.022.423.423.6.178.067.38.09.557.223.134 0 .156-.11.156-.2l-.067-.735v-2.05c-.022-.356.045-.713.09-1.047z"
     fill="#c2bfbf"
     id="path3" />
  <g
     transform="matrix(1.021124 0 0 1.021124 -4.376266 -1.845946)"
     id="g6">
    <path
       d="M37.73 33.72v2.077a1.45 1.45 0 0 0 .014.246c.027.246.178.396.4.465a4.97 4.97 0 0 0 .63.123c.123.014.164.068.178.2.014.465-.027.52-.478.492-1.052-.055-2.105-.068-3.157 0h-.1c-.328.014-.355-.014-.355-.342 0-.055.014-.123.014-.178 0-.1.068-.15.164-.15.22-.027.424-.082.63-.123.287-.068.45-.246.478-.533.04-.314.04-.642.04-.957l.014-3.662a.56.56 0 0 0-.3-.52 3.89 3.89 0 0 0-.78-.328c-.082-.027-.164-.04-.232-.082-.2-.096-.205-.273-.014-.383.068-.04.15-.068.232-.082a12.42 12.42 0 0 0 2.432-.615c.164-.055.205-.04.22.123.014.1 0 .22-.014.314-.027.178-.027.355-.027.52 0 .068.014.137.082.178s.137 0 .2-.04c.287-.22.574-.424.888-.6.45-.246.93-.465 1.45-.533.63-.082 1.175.082 1.654.492a3.1 3.1 0 0 1 .519.601c.137.2.15.205.328.068.52-.383 1.066-.724 1.654-.97.615-.26 1.244-.3 1.872-.082.642.232 1.08.683 1.34 1.298.22.492.314 1 .314 1.53v3.662c0 .246.1.4.342.52.26.1.547.15.82.205.178.04.178.04.178.22-.027.45-.068.478-.506.45a29.42 29.42 0 0 0-3.293 0c-.22.014-.22.014-.232-.205v-.068c-.014-.37-.014-.37.342-.45l.355-.096a.55.55 0 0 0 .424-.533l.04-1.025-.027-2.678a2.13 2.13 0 0 0-.15-.697c-.342-.834-1.093-1.134-1.818-1.052-.547.055-1.025.273-1.476.588-.096.068-.164.15-.15.287.123.875.04 1.75.055 2.624v1.9c0 .342.137.506.465.588l.63.137c.096.014.15.055.15.164v.1c-.014.383-.04.4-.424.396-1.093-.055-2.187-.04-3.266 0-.37.014-.4-.027-.383-.4.014-.22.04-.232.246-.273l.45-.082c.4-.082.547-.232.574-.656l.04-.916-.027-2.747c-.027-.342-.1-.67-.287-.984-.273-.506-.7-.765-1.285-.793-.588-.04-1.107.178-1.6.45-.342.2-.492.437-.465.834v1.995zm25.747.083v1.927a4.13 4.13 0 0 0 .027.41.42.42 0 0 0 .328.383 3.19 3.19 0 0 0 .724.123c.137.014.164.068.178.178v.096c-.014.478-.068.533-.533.506-1.04-.068-2.077-.055-3.116 0l-.4.014c-.082 0-.1-.04-.123-.096a1.39 1.39 0 0 1 0-.574c.014-.082.068-.1.15-.123.2-.027.37-.068.56-.1.342-.082.465-.22.478-.574l.04-1.148v-3.362c0-.246-.096-.396-.314-.506-.246-.137-.506-.232-.78-.328-.082-.027-.164-.055-.232-.096-.178-.123-.2-.3-.027-.437a.49.49 0 0 1 .273-.11c.875-.137 1.722-.328 2.542-.656.096-.04.137-.014.178.068s.055.178.04.273l-.04.642c0 .082-.04.2.027.232.082.055.137-.068.205-.1a6.09 6.09 0 0 1 1.326-.847c.424-.2.86-.328 1.353-.3.916.055 1.572.52 1.995 1.326.22.424.314.888.355 1.367l.04 1 .014 3.02c.014.232.096.383.328.465a4.47 4.47 0 0 0 .738.178c.22.027.232.068.246.273v.068c-.027.465-.055.478-.52.45a28.59 28.59 0 0 0-3.061 0c-.137.014-.273 0-.4.014-.082 0-.137-.014-.15-.096-.027-.178-.055-.355-.014-.547.014-.082.055-.123.15-.137l.63-.1c.22-.055.342-.2.37-.4l.027-.383-.014-2.856c0-.328-.014-.656-.082-.984-.164-.7-.697-1.2-1.42-1.27-.63-.068-1.2.096-1.722.437-.26.164-.37.396-.37.683v2.064c0-.04 0-.04.014-.04z"
       fill="#47474a"
       id="path4" />
    <path
       d="M103.503 29.935c-.15-.998-.52-1.886-1.162-2.665a5.27 5.27 0 0 0-2.105-1.558c-.86-.355-1.777-.465-2.706-.492-.383-.014-5.603.068-5.986 0-.096-.014-.164.014-.22.096-.068.1-.137.205-.178.314-.164.37-.164.342.232.396.328.055.642.082.957.178.287.096.492.26.56.574.027.15.055 4.96.055 7.202l-.055 1.6c-.014.123-.027.246-.068.355-.055.164-.15.3-.314.37a1.62 1.62 0 0 1-.574.15c-.37.04-.424.055-.547.465l-.04.15c-.027.178-.014.205.164.205l4.086.04 1.6-.027 1.107-.137c1.257-.232 2.378-.752 3.334-1.585a5.55 5.55 0 0 0 1.312-1.722c.383-.765.547-1.6.588-2.446.068-.478.04-.97-.04-1.462zm-1.982 1.94c-.055.875-.232 1.722-.683 2.487-.574.998-1.394 1.695-2.528 1.94-.492.1-.984.15-1.5.082-.37-.04-.724-.082-1.066-.205-.615-.22-.834-.6-.847-1.2l-.014-8.24c0-.492.22-.6.574-.615.533-.04 1.08-.027 1.613.027a6.06 6.06 0 0 1 1.654.4 3.98 3.98 0 0 1 1.08.67c.738.63 1.23 1.42 1.5 2.35.22.752.26 1.517.22 2.282zm13.34 1.34c0-.082 0-.15-.014-.232-.123-.752-.52-1.326-1.134-1.763-.396-.287-.847-.478-1.312-.615-.082-.027-.15-.055-.232-.068.014-.068.055-.082.096-.096.273-.137.533-.287.765-.492.424-.355.7-.793.847-1.326.082-.287.082-.574.055-.875a2.35 2.35 0 0 0-.998-1.777c-.63-.465-1.367-.656-2.132-.67-1.476-.027-2.965 0-4.44 0-.424 0-.847.027-1.285-.04-.082-.014-.2-.04-.26.055-.1.178-.22.355-.26.56-.014.096.014.15.123.164l.943.137c.37.055.63.26.656.588a5.78 5.78 0 0 1 .04.683l-.027 2.555-.014 5.056c0 .3-.04.588-.096.888a.5.5 0 0 1-.355.41c-.273.082-.533.164-.82.164a.34.34 0 0 0-.355.232c-.055.123-.1.26-.123.383-.027.164.014.22.178.2.123-.014 4.633.096 5.48.014.506-.055 1-.123 1.503-.273.86-.273 1.654-.67 2.282-1.34.52-.547.82-1.203.847-1.968.04-.178.04-.355.04-.547zm-6.628-5.6l.04-1.093c0-.205.082-.3.287-.342.328-.068.656-.04.984-.027.328.027.642.068.97.164.6.178 1.066.52 1.34 1.093a1.96 1.96 0 0 1 .191.834c.014.383-.014.752-.164 1.12-.232.506-.6.834-1.134.93s-2.05.055-2.282.055c-.205 0-.22-.027-.22-.232V28.83a8.79 8.79 0 0 1-.014-1.203zm4.44 7.352c-.232.615-.656 1.04-1.257 1.27-.328.123-.656.2-1 .178-.424-.014-.847 0-1.27-.082-.574-.123-.834-.67-.875-1.066-.068-.697-.027-1.408-.04-1.927v-1.804c0-.22.027-.287.26-.287l1.285.014.875.1c.615.137 1.175.37 1.613.847.355.383.547.847.588 1.353.04.478.014.943-.164 1.394z"
       fill="#c2bfbf"
       id="path5" />
    <path
       d="M77.95 30.85l.355.055c.383.014.834-.123.97-.656a1.38 1.38 0 0 0 0-.78c-.082 0-.123.068-.164.096-.205.164-.437.26-.683.287-.492.055-.984.027-1.462-.15l-.67-.232a3.95 3.95 0 0 0-1.45-.19c-.697.055-1.353.287-1.968.615-.656.355-1.12.888-1.34 1.613-.123.424-.137.86-.082 1.298.137.998.656 1.695 1.585 2.064.055.014.096.04.15.055.123.068.137.137.027.232l-.342.232-.82.506c-.205.123-.232.22-.164.437a1.43 1.43 0 0 0 .437.656 2.28 2.28 0 0 0 .629.383c.15.068.15.1.014.22l-.78.56c-.26.2-.52.4-.738.656a1.35 1.35 0 0 0-.328 1.23 2.31 2.31 0 0 0 .71 1.23 2.9 2.9 0 0 0 1.257.683c.765.22 1.558.232 2.337.082 1.12-.205 2.1-.7 2.87-1.544.533-.56.847-1.216.875-2a1.92 1.92 0 0 0-1.476-1.995l-.738-.137-2.255-.2c-.246-.014-.492-.055-.697-.178-.26-.164-.328-.478-.164-.683.123-.15.273-.246.465-.26l.437-.04a3.96 3.96 0 0 0 2.309-1.052 2.42 2.42 0 0 0 .697-1.162c.164-.588.164-1.2.027-1.8-.04-.15-.027-.164.164-.137zm-3.35 6.807c.082.014.164 0 .246 0 .574.027 1.162.068 1.722.22a3.58 3.58 0 0 1 .533.205c.547.3.752.82.683 1.38-.082.615-.424 1.052-.957 1.34-.355.2-.752.287-1.162.328-.15.014-.287 0-.437 0-.478.014-.943-.04-1.394-.232-.314-.123-.574-.3-.806-.547-.478-.478-.7-1.353.014-2.064.437-.4.93-.683 1.558-.63zm1.558-4.264c-.287.724-.916.943-1.544.847-.574-.082-.998-.396-1.27-.916-.355-.697-.45-1.42-.246-2.173.15-.56.492-.984 1.093-1.08.765-.137 1.5.137 1.886.902.2.37.287.82.287 1.462-.014.26-.068.615-.205.957zm-17.218-.93c-.123-.738-.396-1.408-.902-1.968-.752-.834-1.708-1.2-2.788-1.203-.943-.014-1.83.26-2.624.752a3.56 3.56 0 0 0-1.599 2.091c-.232.793-.22 1.6-.04 2.405.478 2.16 2.146 3.088 4.14 2.952.588-.04 1.148-.232 1.68-.492.793-.37 1.367-.957 1.763-1.736.314-.642.45-1.326.437-2.105l-.068-.697zM57 35.497a1.66 1.66 0 0 1-1.408 1.148c-.6.082-1.162-.068-1.667-.424a2.84 2.84 0 0 1-.861-1.025c-.56-1.148-.656-2.35-.37-3.58a2.05 2.05 0 0 1 .574-.998c.506-.465 1.093-.574 1.75-.437.63.137 1.107.478 1.5.998s.574 1.12.683 1.75c.055.314.055.642.068.847 0 .656-.055 1.2-.26 1.722zm31.8-2.924c-.1-.793-.396-1.517-.957-2.118-.738-.806-1.695-1.148-2.76-1.162-.916-.014-1.763.246-2.542.697-.875.52-1.476 1.257-1.708 2.255a4.77 4.77 0 0 0 .328 3.252c.45.957 1.216 1.572 2.228 1.845 1.12.3 2.187.164 3.225-.342.902-.437 1.544-1.12 1.913-2.05.22-.547.3-1.134.314-1.818.014-.123-.014-.342-.04-.56zm-1.886 2.747c-.22.738-.683 1.216-1.462 1.326-.574.082-1.12-.055-1.613-.383-.424-.287-.724-.67-.943-1.12-.246-.478-.383-.984-.437-1.503-.082-.642-.082-1.27.068-1.913a1.95 1.95 0 0 1 .123-.369c.383-.957 1.23-1.394 2.228-1.175.67.15 1.175.52 1.558 1.08.37.547.547 1.148.63 1.8.04.26.055.533.04.765 0 .533-.04 1.025-.2 1.503z"
       fill="#47474a"
       id="path6" />
  </g>
  <path
     style="fill:#ffffff;stroke-width:0.0596421"
     d="m 88.957113,36.144517 c -0.05617,-0.09089 0.07643,-0.509286 0.192735,-0.608128 0.05754,-0.0489 0.27881,-0.119832 0.491704,-0.157619 0.212893,-0.03779 0.454444,-0.118517 0.536779,-0.179399 0.340111,-0.251493 0.327277,-0.06218 0.344406,-5.080087 0.01474,-4.317156 0.0088,-4.635911 -0.08946,-4.828985 -0.149521,-0.293692 -0.383337,-0.403985 -1.124612,-0.530489 -0.624745,-0.106617 -0.649942,-0.116695 -0.633808,-0.253512 0.0092,-0.07836 0.07634,-0.230149 0.149105,-0.3373 l 0.132303,-0.194819 3.518887,-0.01288 c 3.794179,-0.01389 4.053139,0.0027 5.039762,0.32202 1.149382,0.372047 2.200166,1.145194 2.860146,2.104441 0.28762,0.418039 0.64411,1.205899 0.78438,1.733513 0.27973,1.052194 0.20012,2.847327 -0.17447,3.934103 -0.75391,2.187223 -2.786107,3.708712 -5.422266,4.059597 -0.77049,0.102555 -6.544504,0.128382 -6.605588,0.02954 z m 7.175517,-0.924518 c 1.795242,-0.435253 3.02901,-2.162899 3.162643,-4.428646 0.108219,-1.834859 -0.255789,-3.178136 -1.157449,-4.271259 -0.866586,-1.050603 -1.984117,-1.567074 -3.692012,-1.706278 -0.981459,-0.08 -1.625928,-0.02481 -1.805331,0.154595 l -0.137667,0.137667 0.01599,4.608989 c 0.01499,4.32216 0.02276,4.622592 0.124753,4.827578 0.189011,0.379864 0.699316,0.63931 1.501574,0.763422 0.473681,0.07328 1.516525,0.02812 1.987501,-0.08607 z"
     id="path7" />
  <path
     style="fill:#ffffff;stroke-width:0.0596421"
     d="m 104.38867,36.280359 -1.9831,-0.01954 9e-5,-0.163211 c 5e-5,-0.08977 0.047,-0.257149 0.10437,-0.37196 0.0932,-0.186578 0.1361,-0.212631 0.40389,-0.245319 0.50468,-0.0616 0.97455,-0.223388 1.06754,-0.367577 0.18279,-0.283427 0.21337,-1.051256 0.21337,-5.35755 0,-3.509614 -0.015,-4.327658 -0.0821,-4.488389 -0.10885,-0.260512 -0.36098,-0.372875 -1.07858,-0.480677 -0.32007,-0.04808 -0.59763,-0.103108 -0.6168,-0.122282 -0.0192,-0.01917 0.0322,-0.171869 0.11421,-0.339323 l 0.14908,-0.304463 3.27698,0.0064 c 3.06934,0.006 3.30652,0.01399 3.74303,0.125679 1.48583,0.380175 2.33097,1.448485 2.23268,2.82225 -0.0567,0.792404 -0.62436,1.62376 -1.4196,2.079028 -0.19311,0.110558 -0.35143,0.227854 -0.35182,0.260657 -3.9e-4,0.0328 0.19848,0.122673 0.44192,0.199711 0.86084,0.272417 1.65523,0.877463 1.97151,1.501598 0.2767,0.546039 0.34716,0.955979 0.27276,1.586821 -0.11339,0.961481 -0.32049,1.410661 -0.95413,2.069428 -0.6061,0.630126 -1.41439,1.083682 -2.40196,1.347811 -0.93356,0.249685 -1.791,0.293515 -5.10332,0.260875 z m 4.98887,-1.084686 c 0.47798,-0.194904 0.81986,-0.466837 1.08376,-0.862031 0.34369,-0.514692 0.43036,-0.873469 0.40374,-1.671494 -0.0197,-0.591759 -0.0421,-0.706384 -0.20521,-1.05181 -0.31788,-0.673127 -0.95218,-1.165043 -1.81562,-1.408043 -0.21616,-0.06084 -0.71951,-0.102845 -1.50009,-0.125197 l -1.17476,-0.03364 -0.0385,0.153278 c -0.0212,0.0843 -0.0276,1.047438 -0.0142,2.140298 0.0259,2.120514 0.033,2.17385 0.34444,2.569723 0.28319,0.359972 0.71259,0.461331 1.84906,0.436473 0.60511,-0.01324 0.80615,-0.04103 1.0674,-0.147558 z m -0.34736,-6.159906 c 0.32042,-0.141954 0.64046,-0.450387 0.81957,-0.789841 0.15004,-0.284346 0.16019,-0.352705 0.16019,-1.078928 0,-0.698516 -0.0139,-0.801944 -0.14043,-1.043738 -0.43064,-0.82302 -1.20964,-1.220164 -2.537,-1.293386 -0.66243,-0.03654 -1.07052,0.03699 -1.14086,0.205565 -0.0573,0.137408 -0.11563,3.773861 -0.0638,3.980316 l 0.0403,0.160686 1.32447,-0.02313 c 1.04025,-0.01817 1.37019,-0.04339 1.53755,-0.117539 z"
     id="path8" />
  <path
     style="fill:#ffffff;stroke-width:0.0596421"
     d="m 31.270737,36.164324 c -0.01441,-0.03755 -0.0177,-0.170848 -0.0073,-0.296208 l 0.01888,-0.227928 0.477137,-0.108201 c 0.722563,-0.163856 0.768096,-0.228025 0.805169,-1.13469 0.0164,-0.401117 0.02982,-1.565098 0.02982,-2.586622 0,-1.772808 -0.0054,-1.863318 -0.119143,-1.989207 -0.148061,-0.163903 -0.360047,-0.276504 -0.894773,-0.47528 -0.320924,-0.119298 -0.421781,-0.18486 -0.436025,-0.283436 -0.02512,-0.173824 0.08167,-0.220135 0.85352,-0.370158 0.360835,-0.07014 0.955519,-0.220664 1.321519,-0.334509 0.366001,-0.113845 0.710212,-0.206992 0.764915,-0.206992 0.08841,0 0.09491,0.05819 0.05847,0.523927 -0.03499,0.447248 -0.02656,0.535895 0.05755,0.605704 0.0862,0.07154 0.15352,0.04339 0.537794,-0.224912 1.342749,-0.937507 2.457137,-1.177378 3.32381,-0.715446 0.325542,0.173513 0.799725,0.615984 1.010927,0.94332 l 0.09581,0.148498 0.500087,-0.331898 c 1.210942,-0.80368 1.85285,-1.045578 2.63273,-0.992124 0.388248,0.02661 0.55971,0.07319 0.913943,0.248257 0.519117,0.256562 0.797239,0.551728 1.070986,1.136623 0.301964,0.645182 0.329927,0.918818 0.343348,3.3598 l 0.01224,2.226601 0.190786,0.170429 c 0.139089,0.124249 0.320901,0.19839 0.670974,0.273617 0.347092,0.07459 0.482018,0.129302 0.48679,0.197404 0.0136,0.194094 -0.01869,0.394322 -0.07261,0.450328 -0.03377,0.03507 -0.831291,0.05859 -2.022695,0.05964 l -1.966942,0.0017 -8e-6,-0.281202 c -9e-6,-0.319334 0.0316,-0.347355 0.52149,-0.462303 0.523237,-0.122771 0.590516,-0.252087 0.643232,-1.236338 0.02423,-0.452407 0.02638,-1.420677 0.0048,-2.151713 -0.03292,-1.114179 -0.05841,-1.380286 -0.157554,-1.645282 -0.322915,-0.863067 -1.170502,-1.30782 -2.117995,-1.111371 -0.398935,0.08271 -0.982541,0.34311 -1.245252,0.555614 l -0.174353,0.141032 0.01386,0.650454 c 0.0076,0.357749 0.01898,1.50491 0.02525,2.549245 l 0.01139,1.898793 0.159114,0.136874 c 0.09465,0.08142 0.340203,0.177162 0.606062,0.23631 0.263443,0.05861 0.460691,0.135247 0.480418,0.186656 0.04009,0.104477 -0.01908,0.434349 -0.08525,0.475242 -0.0258,0.01594 -0.925256,0.03092 -1.998792,0.03328 -1.560481,0.0034 -1.962574,-0.0116 -2.005203,-0.07496 -0.04638,-0.06894 -0.02792,-0.448242 0.02435,-0.500518 0.01034,-0.01034 0.219493,-0.06014 0.464777,-0.110656 0.349116,-0.0719 0.47994,-0.129333 0.602387,-0.26445 0.146856,-0.162051 0.159068,-0.222079 0.199768,-0.981989 0.05945,-1.110005 -0.01228,-3.389715 -0.118612,-3.769534 -0.349649,-1.248972 -1.503764,-1.613942 -2.920742,-0.923638 -0.705096,0.3435 -0.667031,0.188247 -0.716811,2.923559 -0.03756,2.063778 -0.03134,2.384228 0.05,2.578916 0.10582,0.253264 0.300752,0.362265 0.830098,0.464172 l 0.342942,0.06602 v 0.260641 c 0,0.143353 -0.03256,0.280764 -0.07235,0.305358 -0.125377,0.07749 -3.994727,0.06163 -4.024704,-0.01649 z"
     id="path9" />
  <path
     style="fill:#ffffff;stroke-width:0.0596421"
     d="m 50.636183,36.355051 c -1.340697,-0.288193 -2.216243,-1.003982 -2.707805,-2.213723 -0.47411,-1.166792 -0.449231,-2.78986 0.05813,-3.792667 0.682364,-1.348691 2.278672,-2.257591 3.961798,-2.255756 1.917991,0.0021 3.299243,1.04198 3.761056,2.831548 0.164798,0.638606 0.178867,1.674857 0.03118,2.296223 -0.280126,1.178544 -1.069029,2.199766 -2.06261,2.670016 -0.795636,0.376565 -1.251968,0.496145 -1.998012,0.523573 -0.425353,0.01564 -0.792392,-0.0052 -1.043737,-0.05921 z m 2.271856,-0.909557 c 0.574999,-0.256733 0.977331,-0.888622 1.132259,-1.778284 0.104547,-0.600348 0.03966,-1.916153 -0.122008,-2.473943 -0.318491,-1.098904 -0.934874,-1.820258 -1.834557,-2.146987 -0.532216,-0.193279 -1.225766,-0.15589 -1.678436,0.09048 -0.52402,0.285207 -0.847995,0.745089 -1.028294,1.459657 -0.13442,0.532739 -0.103184,1.947858 0.05579,2.527525 0.345371,1.259329 0.976941,2.031734 1.94373,2.377164 0.40335,0.144115 1.144461,0.117202 1.531517,-0.05562 z"
     id="path10" />
  <path
     style="fill:#ffffff;stroke-width:0.0596421"
     d="m 57.459339,36.162714 c -0.01951,-0.104046 -0.0185,-0.266459 0.0022,-0.360918 0.03489,-0.158854 0.07414,-0.180465 0.522989,-0.287962 0.78377,-0.18771 0.730653,0.02907 0.731994,-2.987354 l 0.0011,-2.537376 -0.178927,-0.14362 c -0.09841,-0.07899 -0.366799,-0.214042 -0.596421,-0.300114 -0.555696,-0.208297 -0.685885,-0.295823 -0.685885,-0.46112 0,-0.190149 0.14331,-0.249129 1.036303,-0.426497 0.422353,-0.08389 1.052075,-0.244668 1.399384,-0.357289 0.477506,-0.154839 0.643823,-0.187105 0.682135,-0.132336 0.02787,0.03984 0.03629,0.320689 0.01872,0.624119 -0.02425,0.418657 -0.01397,0.551689 0.04261,0.551689 0.04101,0 0.219214,-0.108691 0.396013,-0.241535 0.376451,-0.28286 0.896985,-0.594301 1.266468,-0.757741 1.009371,-0.446492 2.13252,-0.273961 2.819758,0.433155 0.312207,0.321238 0.65898,0.990356 0.757041,1.460754 0.03998,0.191797 0.0833,1.272932 0.104301,2.603208 0.03329,2.108825 0.04406,2.284166 0.147308,2.398133 0.109877,0.121288 0.465296,0.259479 0.872707,0.339318 0.114811,0.0225 0.242296,0.06793 0.2833,0.100966 0.08169,0.06581 0.0927,0.365241 0.02024,0.550641 -0.04441,0.113634 -0.11317,0.117633 -2.081932,0.121087 -2.241089,0.0039 -2.098347,0.03014 -2.098347,-0.385282 0,-0.281567 0.05426,-0.323062 0.534074,-0.408396 0.261298,-0.04647 0.43034,-0.113839 0.526205,-0.209703 l 0.141236,-0.141235 -0.0056,-2.04375 c -0.0031,-1.125564 -0.03245,-2.163619 -0.06538,-2.310563 -0.123547,-0.551294 -0.440864,-0.977021 -0.913785,-1.225978 -0.335221,-0.176468 -1.235257,-0.188255 -1.677999,-0.02197 -0.395628,0.148586 -0.748008,0.3712 -0.894633,0.565181 -0.11476,0.151825 -0.119284,0.250175 -0.119284,2.593418 v 2.435608 l 0.161907,0.139239 c 0.111525,0.09591 0.30129,0.161726 0.609833,0.211499 0.341547,0.0551 0.456123,0.09808 0.482438,0.180994 0.04264,0.134358 -0.02539,0.520619 -0.09979,0.566605 -0.03012,0.01861 -0.966487,0.03845 -2.080821,0.04407 l -2.026063,0.01023 z"
     id="path11" />
  <path
     style="fill:#ffffff;stroke-width:0.0596421"
     d="m 70.586481,41.060158 c -0.979471,-0.215033 -1.771383,-0.775903 -2.133183,-1.510825 -0.161875,-0.328815 -0.192861,-0.459032 -0.192861,-0.810504 0,-0.348462 0.02727,-0.465143 0.162484,-0.695145 0.190679,-0.324357 0.59154,-0.697632 1.228525,-1.143978 0.681403,-0.477472 0.67663,-0.461555 0.21871,-0.729357 -0.404602,-0.23662 -0.630375,-0.477692 -0.777782,-0.830484 -0.127286,-0.304641 -0.109545,-0.373164 0.137248,-0.53009 1.009369,-0.64182 1.267396,-0.818513 1.267396,-0.867894 0,-0.03125 -0.19847,-0.152279 -0.441045,-0.268952 -0.967086,-0.46515 -1.469816,-1.314794 -1.466046,-2.477706 0.004,-1.241969 0.543829,-2.056054 1.740951,-2.625555 0.734452,-0.349397 1.263967,-0.480652 1.951086,-0.483628 0.59475,-0.0026 0.871705,0.05247 1.73104,0.34407 0.511494,0.173565 0.723944,0.214838 1.136101,0.220714 0.625717,0.0089 0.878903,-0.04238 1.164016,-0.235866 0.121956,-0.08276 0.235846,-0.136369 0.253088,-0.119127 0.07858,0.07858 0.0232,0.691566 -0.08155,0.902509 -0.19298,0.388648 -0.371736,0.47524 -0.956287,0.463242 l -0.506009,-0.01039 0.04846,0.338418 c 0.178128,1.244001 -0.104996,2.180867 -0.871252,2.883002 -0.649525,0.595172 -1.435638,0.910431 -2.579552,1.03449 -0.761839,0.08262 -0.938259,0.736308 -0.284165,1.052907 0.112694,0.05455 0.41961,0.116734 0.682036,0.138195 2.9061,0.237652 3.398417,0.351467 3.907014,0.903229 0.630111,0.68359 0.701166,1.661169 0.195796,2.693748 -0.232332,0.474703 -0.838774,1.147874 -1.348936,1.497364 -0.420793,0.288268 -1.193912,0.635083 -1.739958,0.780532 -0.644633,0.171709 -1.862323,0.215071 -2.445328,0.08708 z m 3.030694,-1.04452 c 0.744307,-0.246543 1.19424,-0.680169 1.38437,-1.334196 0.117893,-0.405535 0.08981,-0.752461 -0.08934,-1.103625 -0.317484,-0.622319 -1.313058,-0.945059 -2.983773,-0.967262 -0.627508,-0.0083 -0.713993,0.0042 -1.016139,0.147738 -1.639002,0.778441 -1.545875,2.475083 0.175493,3.197259 0.587181,0.246345 1.874746,0.276931 2.529392,0.06009 z m -0.870117,-7.025183 c 0.310386,-0.158348 0.556984,-0.458144 0.704925,-0.856999 0.166144,-0.447927 0.166531,-1.611206 6.86e-4,-2.058247 -0.269005,-0.72511 -0.831676,-1.181642 -1.537608,-1.247563 -0.972762,-0.09084 -1.571305,0.437011 -1.729976,1.525647 -0.115395,0.79173 0.128802,1.683811 0.61138,2.233437 0.4682,0.533249 1.342141,0.714134 1.950593,0.403725 z"
     id="path12" />
  <path
     style="fill:#ffffff;stroke-width:0.0596421"
     d="m 81.38171,36.398735 c -1.292385,-0.178729 -2.317387,-0.883101 -2.83188,-1.946043 -0.35423,-0.731838 -0.489644,-1.309538 -0.498492,-2.126648 -0.01652,-1.525416 0.524486,-2.632207 1.656838,-3.389569 1.394693,-0.932828 3.209427,-1.111431 4.566178,-0.449395 0.59119,0.288475 1.315734,1.00658 1.598058,1.583856 0.341094,0.697446 0.449364,1.264244 0.41319,2.163061 -0.04617,1.14728 -0.286189,1.875472 -0.858095,2.603416 -0.859372,1.093844 -2.591786,1.762403 -4.045797,1.561322 z m 1.745003,-0.872725 c 0.638941,-0.165739 1.035449,-0.59206 1.284314,-1.380881 0.114522,-0.362994 0.131604,-0.549854 0.130851,-1.431411 -9.68e-4,-1.133987 -0.06564,-1.482768 -0.409181,-2.20676 -0.214887,-0.452863 -0.650035,-0.977258 -0.987948,-1.190573 -0.116887,-0.07379 -0.379673,-0.195105 -0.583968,-0.269595 -0.477007,-0.173925 -1.222036,-0.153087 -1.596566,0.04466 -0.920506,0.486006 -1.325207,1.595384 -1.168278,3.202518 0.09745,0.997981 0.343605,1.692541 0.825167,2.328301 0.261947,0.345823 0.856504,0.766673 1.257456,0.890074 0.357685,0.110085 0.855446,0.115537 1.248153,0.01367 z"
     id="path13" />
</svg>
