<?xml version="1.0" encoding="UTF-8" standalone="no"?>
<svg
   width="120"
   height="60"
   preserveAspectRatio="xMidYMid"
   version="1.1"
   id="svg3"
   sodipodi:docname="nodejs_logo.svg"
   inkscape:version="1.4.2 (ebf0e940d0, 2025-05-08)"
   xmlns:inkscape="http://www.inkscape.org/namespaces/inkscape"
   xmlns:sodipodi="http://sodipodi.sourceforge.net/DTD/sodipodi-0.dtd"
   xmlns="http://www.w3.org/2000/svg"
   xmlns:svg="http://www.w3.org/2000/svg">
  <defs
     id="defs3" />
  <sodipodi:namedview
     id="namedview3"
     pagecolor="#505050"
     bordercolor="#eeeeee"
     borderopacity="1"
     inkscape:showpageshadow="0"
     inkscape:pageopacity="0"
     inkscape:pagecheckerboard="0"
     inkscape:deskcolor="#505050"
     showgrid="false"
     inkscape:zoom="16.766667"
     inkscape:cx="60"
     inkscape:cy="29.970179"
     inkscape:window-width="2560"
     inkscape:window-height="1368"
     inkscape:window-x="0"
     inkscape:window-y="0"
     inkscape:window-maximized="1"
     inkscape:current-layer="svg3" />
  <g
     transform="matrix(.217946 0 0 .217946 4.120542 14.085548)"
     id="g3">
    <path
       d="M471.05 51.6c-1.245 0-2.455.257-3.526.863l-33.888 19.57c-2.193 1.263-3.526 3.65-3.526 6.188v39.07c0 2.537 1.333 4.92 3.526 6.187l8.85 5.1c4.3 2.12 5.886 2.086 7.843 2.086 6.366 0 10-3.863 10-10.577V81.542c0-.545-.472-.935-1.007-.935h-4.245c-.544 0-1.007.4-1.007.935v38.565c0 2.976-3.1 5.97-8.13 3.454l-9.2-5.396c-.325-.177-.576-.5-.576-.863v-39.07c0-.37.248-.748.576-.935l33.817-19.5c.317-.182.694-.182 1.007 0l33.817 19.5c.322.193.576.553.576.935v39.07c0 .373-.187.755-.504.935l-33.888 19.5c-.3.173-.7.173-1.007 0l-8.706-5.18c-.26-.152-.613-.14-.863 0-2.403 1.362-2.855 1.52-5.108 2.302-.555.193-1.4.494.288 1.44l11.368 6.7c1.082.626 2.288.935 3.526.935 1.255 0 2.443-.3 3.526-.935l33.888-19.5c2.193-1.276 3.526-3.65 3.526-6.187v-39.07c0-2.538-1.333-4.92-3.526-6.188l-33.888-19.57c-1.062-.606-2.28-.863-3.526-.863zm9.066 27.918c-9.65 0-15.397 4.107-15.397 10.936 0 7.4 5.704 9.444 14.966 10.36 11.08 1.085 11.944 2.712 11.944 4.893 0 3.783-3.016 5.396-10.145 5.396-8.956 0-10.925-2.236-11.584-6.7-.078-.478-.446-.863-.935-.863h-4.4a1.03 1.03 0 0 0-1.007 1.007c0 5.703 3.102 12.447 17.916 12.447 10.723 0 16.908-4.2 16.908-11.584 0-7.3-4.996-9.273-15.397-10.65-10.5-1.4-11.512-2.07-11.512-4.533 0-2.032.85-4.75 8.634-4.75 6.953 0 9.523 1.5 10.577 6.188.092.44.48.8.935.8h4.4c.27 0 .532-.166.72-.36.184-.207.314-.44.288-.72-.68-8.074-6.064-11.872-16.908-11.872z"
       fill="#83cd29"
       id="path1" />
    <path
       d="M271.82.383a2.18 2.18 0 0 0-1.079.288 2.18 2.18 0 0 0-1.079 1.871v55.042c0 .54-.252 1.024-.72 1.295a1.5 1.5 0 0 1-1.511 0l-8.994-5.18a4.31 4.31 0 0 0-4.317 0L218.218 74.42c-1.342.774-2.16 2.264-2.16 3.813v41.443a4.31 4.31 0 0 0 2.159 3.741l35.903 20.722a4.3 4.3 0 0 0 4.317 0l35.903-20.722a4.31 4.31 0 0 0 2.159-3.741V16.356c0-1.572-.858-3.047-2.23-3.813L272.9.598c-.336-.187-.708-.22-1.08-.216zM40.86 52.115c-.685.028-1.328.147-1.943.504L3.015 73.34a4.3 4.3 0 0 0-2.158 3.741L.93 132.7c0 .774.4 1.492 1.08 1.87.667.4 1.494.4 2.158 0l21.297-12.232c1.35-.8 2.23-2.196 2.23-3.74V92.623c0-1.55.815-2.97 2.16-3.74l9.066-5.252a4.25 4.25 0 0 1 2.158-.576 4.24 4.24 0 0 1 2.159.576L52.3 88.88c1.343.77 2.158 2.192 2.158 3.74v25.974c0 1.546.9 2.95 2.23 3.74l21.297 12.232c.67.4 1.495.4 2.158 0 .66-.38 1.08-1.097 1.08-1.87l.072-55.617a4.28 4.28 0 0 0-2.158-3.741L43.235 52.618c-.607-.356-1.253-.476-1.943-.504h-.43zm322.624.504a4.29 4.29 0 0 0-2.159.576l-35.903 20.722c-1.34.775-2.16 2.192-2.16 3.74V119.1c0 1.558.878 2.97 2.23 3.74l35.615 20.3c1.315.75 2.92.807 4.245.07l21.585-12.016c.685-.38 1.148-1.09 1.15-1.87s-.403-1.482-1.08-1.87l-36.12-20.722c-.676-.386-1.15-1.167-1.15-1.943V91.83c0-.774.48-1.484 1.15-1.87l11.224-6.476c.668-.386 1.488-.386 2.16 0L375.5 89.96a2.15 2.15 0 0 1 1.079 1.87v10.217a2.15 2.15 0 0 0 1.079 1.87c.673.388 1.488.39 2.16 0L401.33 91.4c1.335-.776 2.16-2.197 2.16-3.74v-10a4.32 4.32 0 0 0-2.159-3.741l-35.687-20.722a4.28 4.28 0 0 0-2.159-.576zm-107.35 30.94a1.21 1.21 0 0 1 .576.143l12.303 7.123c.334.193.576.55.576.935v14.246c0 .387-.24.743-.576.935l-12.303 7.123c-.335.19-.744.19-1.08 0l-12.303-7.123c-.335-.193-.576-.55-.576-.935V91.758c0-.386.242-.74.576-.935l12.303-7.122c.168-.097.316-.143.504-.143v-.001z"
       fill="#404137"
       id="path2" />
    <path
       d="M148.714 52.402a4.31 4.31 0 0 0-2.16.576l-35.903 20.65c-1.342.774-2.158 2.265-2.158 3.813v41.443a4.3 4.3 0 0 0 2.158 3.74l35.903 20.722a4.3 4.3 0 0 0 4.317 0l35.903-20.722a4.31 4.31 0 0 0 2.159-3.741V77.44c0-1.55-.816-3.04-2.16-3.813l-35.903-20.65a4.27 4.27 0 0 0-2.16-.576zm214.7 36.983c-.143 0-.302 0-.432.07l-6.907 4.03a.84.84 0 0 0-.432.719v7.915c0 .298.173.57.432.72l6.907 3.957a.75.75 0 0 0 .79 0l6.907-3.957c.256-.147.432-.422.432-.72v-7.915c0-.298-.175-.57-.432-.72l-6.907-4.03c-.128-.076-.216-.07-.36-.07z"
       fill="#83cd29"
       id="path3" />
  </g>
  <path
     style="fill:#ffffff;stroke-width:0.0596421"
     d="M 4.615867,43.391038 C 4.5143942,43.348372 4.4139348,43.268025 4.3926239,43.21249 c -0.021311,-0.05554 -0.038747,-2.904783 -0.038747,-6.331662 0,-6.717005 -0.015162,-6.387624 0.3074545,-6.679202 0.076924,-0.06952 0.7839968,-0.496052 1.5712732,-0.947841 0.7872763,-0.451788 2.571868,-1.480215 3.9657594,-2.285393 2.225913,-1.285793 2.570694,-1.466826 2.833001,-1.487511 0.28745,-0.02267 0.340051,3.21e-4 1.402035,0.612744 0.606858,0.349963 1.425447,0.821792 1.819085,1.04851 5.37314,3.094684 5.299492,3.049571 5.444536,3.335002 l 0.136384,0.26839 -0.0171,6.216062 -0.0171,6.216064 -0.130881,0.130855 c -0.07255,0.07253 -0.20546,0.130847 -0.298211,0.130837 -0.104902,-1.1e-5 -0.623488,-0.26296 -1.389994,-0.704794 -0.672465,-0.387627 -1.665507,-0.958774 -2.206759,-1.269217 -1.373559,-0.787823 -1.505435,-0.876199 -1.640275,-1.099235 -0.114046,-0.18864 -0.12045,-0.332174 -0.14899,-3.338969 -0.02916,-3.071959 -0.0326,-3.1456 -0.154736,-3.31014 -0.125599,-0.169204 -1.170343,-0.820783 -2.109865,-1.315868 -0.415393,-0.218892 -0.545165,-0.260828 -0.730292,-0.235997 -0.139451,0.0187 -0.669254,0.287271 -1.392074,0.705666 -0.909979,0.52673 -1.1957,0.721705 -1.297542,0.88544 -0.128996,0.207392 -0.130966,0.248566 -0.160421,3.351795 -0.02902,3.057335 -0.03314,3.146349 -0.1530897,3.310139 C 9.852778,40.600174 9.3268829,40.923263 6.7992048,42.37605 4.8328876,43.506194 4.8598889,43.493642 4.615867,43.391038 Z"
     id="path4" />
  <path
     style="fill:#ffffff;stroke-width:0.0596421"
     d="m 59.701789,45.545903 c -0.114811,-0.04207 -1.617793,-0.890756 -3.33996,-1.885977 -1.722167,-0.99522 -3.480119,-2.009802 -3.906561,-2.254627 -0.887765,-0.509675 -1.081623,-0.670012 -1.16729,-0.965446 -0.0403,-0.138967 -0.05514,-1.824651 -0.0434,-4.927621 l 0.01785,-4.716396 0.156638,-0.204081 c 0.110425,-0.143871 0.620714,-0.47059 1.729622,-1.10741 0.865142,-0.496831 2.673383,-1.540998 4.018313,-2.320371 2.15911,-1.251181 2.481537,-1.420278 2.754684,-1.444698 0.302969,-0.02709 0.332064,-0.01458 1.409364,0.605659 0.605005,0.348323 1.166158,0.633315 1.247007,0.633315 0.08085,0 0.191416,-0.04908 0.245705,-0.109069 0.0905,-0.100001 0.09871,-0.618477 0.09871,-6.235316 V 14.48762 l 0.146395,-0.146395 c 0.08052,-0.08052 0.214312,-0.146394 0.297323,-0.146394 0.147268,0 4.569871,2.425797 4.975136,2.72886 0.393081,0.293954 0.366434,-0.578952 0.366434,12.003796 0,12.377269 0.01994,11.605012 -0.307454,11.9075 -0.117195,0.10828 -7.407078,4.348859 -7.952983,4.62631 -0.277234,0.140901 -0.517473,0.168164 -0.745527,0.08461 z m 0.585801,-6.698786 c 0.271824,-0.154755 0.549784,-0.316378 1.876375,-1.09104 0.3537,-0.206543 0.669058,-0.424053 0.700795,-0.483355 0.03293,-0.06152 0.05771,-0.772529 0.05771,-1.655832 0,-1.387778 -0.0108,-1.560713 -0.104374,-1.670742 -0.106728,-0.125501 -2.755192,-1.679746 -2.862321,-1.679746 -0.03253,0 -0.700155,0.371982 -1.483604,0.826627 l -1.424452,0.826626 v 1.719134 1.719135 l 1.40159,0.818785 c 0.770875,0.450332 1.43707,0.821141 1.480433,0.82402 0.04336,0.0029 0.204398,-0.06625 0.357853,-0.153612 z"
     id="path5" />
  <path
     style="fill:#ffffff;stroke-width:0.0596421"
     d="m 82.813121,45.237886 c -0.958704,-0.512469 -7.777104,-4.422395 -7.893341,-4.526336 -0.319412,-0.285628 -0.307454,-0.0836 -0.307454,-5.194651 0,-5.229234 -0.02018,-4.945638 0.372701,-5.237066 0.106645,-0.07911 1.119844,-0.675394 2.251554,-1.325085 1.131709,-0.64969 2.889662,-1.664063 3.90656,-2.254162 1.59442,-0.925229 1.889953,-1.076331 2.147117,-1.097789 0.334143,-0.02788 -0.05893,-0.23497 3.757456,1.979615 3.82677,2.220612 4.597185,2.673729 4.705051,2.767261 0.242018,0.20986 0.275068,0.422369 0.275068,1.768669 0,1.370957 -0.01769,1.470972 -0.307455,1.738347 -0.07692,0.07098 -1.204557,0.748663 -2.505851,1.505964 -2.488623,1.448277 -2.646813,1.518078 -2.873275,1.26784 -0.08486,-0.09377 -0.09909,-0.279895 -0.101397,-1.327038 -0.0018,-0.821156 -0.02644,-1.273569 -0.07559,-1.388629 -0.0572,-0.13392 -0.348739,-0.330826 -1.354169,-0.914618 -0.704699,-0.409177 -1.367304,-0.758411 -1.472454,-0.776076 -0.163938,-0.02754 -0.372173,0.07199 -1.461232,0.69845 -0.698528,0.401813 -1.330438,0.785555 -1.404245,0.85276 -0.13278,0.120902 -0.134195,0.139023 -0.134195,1.718806 0,1.572006 0.0021,1.598904 0.134195,1.745057 0.07381,0.08164 1.127237,0.716528 2.340954,1.410857 5.990271,3.426844 5.740902,3.27814 5.820825,3.47109 0.06206,0.149816 0.06031,0.207817 -0.01,0.332258 -0.05937,0.105079 -0.829612,0.565524 -2.542088,1.519641 -2.749647,1.531983 -2.760855,1.53632 -3.268737,1.264835 z"
     id="path6" />
</svg>
