<?xml version="1.0" encoding="UTF-8" standalone="no"?>
<!-- Generator: Adobe Illustrator 26.2.1, SVG Export Plug-In . SVG Version: 6.00 Build 0)  -->

<svg
   version="1.1"
   id="plex-logo"
   x="0px"
   y="0px"
   viewBox="0 0 1000 460.89727"
   xml:space="preserve"
   sodipodi:docname="plex_logo.svg"
   width="1000"
   height="460.89725"
   inkscape:version="1.4.2 (ebf0e940d0, 2025-05-08)"
   xmlns:inkscape="http://www.inkscape.org/namespaces/inkscape"
   xmlns:sodipodi="http://sodipodi.sourceforge.net/DTD/sodipodi-0.dtd"
   xmlns="http://www.w3.org/2000/svg"
   xmlns:svg="http://www.w3.org/2000/svg"
   xmlns:rdf="http://www.w3.org/1999/02/22-rdf-syntax-ns#"
   xmlns:cc="http://creativecommons.org/ns#"
   xmlns:dc="http://purl.org/dc/elements/1.1/"><metadata
   id="metadata25"><rdf:RDF><cc:Work
       rdf:about=""><dc:format>image/svg+xml</dc:format><dc:type
         rdf:resource="http://purl.org/dc/dcmitype/StillImage" /><dc:title /></cc:Work></rdf:RDF></metadata><defs
   id="defs23">
	
	

		
		
		
		
		
	</defs><sodipodi:namedview
   pagecolor="#ffffff"
   bordercolor="#111111"
   borderopacity="1"
   objecttolerance="10"
   gridtolerance="10"
   guidetolerance="10"
   inkscape:pageopacity="0"
   inkscape:pageshadow="2"
   inkscape:window-width="2560"
   inkscape:window-height="1368"
   id="namedview21"
   showgrid="false"
   fit-margin-top="0"
   fit-margin-left="0"
   fit-margin-right="0"
   fit-margin-bottom="0"
   inkscape:zoom="1.5814348"
   inkscape:cx="411.01917"
   inkscape:cy="406.90898"
   inkscape:window-x="0"
   inkscape:window-y="0"
   inkscape:window-maximized="1"
   inkscape:current-layer="plex-logo"
   inkscape:showpageshadow="0"
   inkscape:pagecheckerboard="0"
   inkscape:deskcolor="#505050" />
<style
   type="text/css"
   id="style2">
	.st0{fill:#FFFFFF;}
	.st1{fill:#EBAF00;}
</style>
<path
   class="st0"
   d="m 164.18919,82.43243 c -39.86487,0 -65.540543,11.48648 -87.162163,38.51351 V 91.21621 H 0 v 366.21621 c 0,0 1.3513514,0.67567 5.4054053,1.35135 5.4054057,1.35135 33.7837827,7.43243 54.7297287,-10.13514 18.243244,-15.54054 22.297295,-33.78378 22.297295,-54.05405 v -52.7027 c 22.297301,23.64864 47.297301,33.78378 82.432431,33.78378 75.67567,0 133.78378,-61.48648 133.78378,-143.24323 0,-88.51352 -56.08108,-150 -134.45945,-150 z m -14.86487,223.64864 c -42.56756,0 -76.351351,-35.13513 -76.351351,-77.7027 0,-41.89189 39.864871,-75.67567 76.351351,-75.67567 43.24324,0 76.35135,33.1081 76.35135,76.35135 0,43.24324 -33.78378,77.02702 -76.35135,77.02702 z"
   id="path4"
   inkscape:connector-curvature="0"
   style="fill:#000000;stroke-width:6.75675678" /><path
   class="st0"
   d="m 408.1081,223.64864 c 0,31.75676 3.37838,70.27027 34.45946,112.16216 0.67567,0.67567 2.02702,2.7027 2.02702,2.7027 -12.83783,21.62162 -28.37837,36.48648 -49.32432,36.48648 -16.21622,0 -32.43243,-8.78378 -45.94595,-23.64864 -14.18918,-16.21622 -20.94594,-37.16216 -20.94594,-59.45946 V 0 h 79.05405 z"
   id="path6"
   inkscape:connector-curvature="0"
   style="fill:#000000;stroke-width:6.75675678" /><polygon
   class="st1"
   points="117.9,33.9 104.1,13.5 118.3,13.5 132,33.9 118.3,54.2 104.1,54.2 "
   id="polygon8"
   style="fill:#ebaf00"
   transform="scale(6.7567568)" /><polygon
   class="st0"
   points="135.7,31.6 148,13.5 133.8,13.5 128.7,21 "
   id="polygon10"
   style="fill:#000000"
   transform="scale(6.7567568)" /><path
   class="st0"
   d="m 869.59458,316.2162 c 0,0 16.2162,22.2973 16.2162,22.2973 15.54058,24.32432 35.8108,36.48648 59.45949,36.48648 25,-0.67567 42.56752,-22.29729 49.3243,-30.4054 0,0 -12.16218,-10.81081 -27.7027,-29.05405 -20.94598,-24.32432 -48.64868,-68.91892 -49.3243,-70.94594 z"
   id="path12"
   inkscape:connector-curvature="0"
   style="fill:#000000;stroke-width:6.75675678" /><path
   style="fill:#000000;stroke-width:6.75675678"
   inkscape:connector-curvature="0"
   id="path16"
   d="m 632.43242,287.16215 c -16.21622,14.86486 -27.02703,22.97297 -49.32432,22.97297 -39.86487,0 -62.83784,-28.37837 -66.21622,-59.45945 h 211.4865 c 1.35131,-4.05406 2.027,-9.45946 2.027,-18.24324 0,-85.81082 -62.83783,-150 -145.27026,-150 -78.37837,0 -142.56756,65.54054 -142.56756,147.29729 0,81.08108 64.18919,145.27026 144.59459,145.27026 56.08108,0 104.72973,-31.75675 131.08105,-87.83783 z M 585.8108,147.29729 c 35.13513,0 61.48648,22.97297 67.56756,53.37838 H 519.59458 c 6.75676,-31.75676 31.75676,-53.37838 66.21622,-53.37838 z"
   class="st0" />
<path
   style="fill:#ffffff;stroke-width:0.632337"
   d="m 9.8012264,459.35598 c -2.7822837,-0.52296 -6.1257665,-1.2375 -7.429962,-1.58788 L 0,457.13104 V 274.40997 91.688892 h 38.2564 38.256399 v 14.971368 14.97136 l 7.011412,-7.38408 C 104.43157,92.228912 128.40247,82.836171 163.68812,82.836171 c 65.6755,0 116.45572,42.971479 130.59516,110.512869 2.82954,13.51618 3.74995,22.80927 3.77217,38.08637 0.0244,16.75475 -1.02566,25.86699 -4.62702,40.15341 -6.42842,25.50124 -17.84901,46.36014 -35.09125,64.09166 -11.16507,11.48192 -20.87756,18.70476 -34.48982,25.64891 -18.30099,9.33604 -37.50835,13.80119 -59.43969,13.81796 -32.4495,0.0248 -55.59259,-8.63317 -76.841326,-28.74687 l -5.36251,-5.07607 v 29.18127 c 0,30.1975 -0.431905,37.97238 -2.579752,46.43907 -3.09954,12.21819 -9.94595,23.15668 -19.495436,31.14779 -4.730061,3.95816 -14.775047,9.08151 -20.923741,10.67195 -5.854251,1.51428 -22.692042,1.853 -29.4036786,0.59149 z M 157.5319,305.76763 c 28.80258,-1.81709 56.57064,-24.53442 64.96547,-53.14892 4.46766,-15.22837 4.35447,-33.52657 -0.29702,-48.0202 -4.68367,-14.59391 -14.0827,-27.93383 -26.14352,-37.10521 -9.27815,-7.05535 -24.13437,-12.9033 -36.69127,-14.44301 -23.24478,-2.85025 -45.90989,5.43111 -63.82196,23.31921 -15.875565,15.85433 -23.517094,34.56993 -22.612371,55.38208 0.557582,12.82648 3.019644,22.18253 8.742333,33.22159 12.045082,23.23496 35.597568,39.0873 60.918478,41.00205 3.47785,0.263 7.03475,0.4013 7.90421,0.30736 0.86946,-0.094 4.03551,-0.32568 7.03565,-0.51495 z"
   id="path1" /><path
   style="fill:#ffffff;stroke-width:0.632337"
   d="m 389.97592,374.27959 c -12.8352,-1.39933 -27.3005,-9.4235 -38.54492,-21.38162 -10.28426,-10.937 -16.88915,-23.98272 -20.90651,-41.29371 L 329.16242,305.73503 328.97881,152.86751 328.79521,0 h 39.11543 39.11543 l 0.43632,118.08897 c 0.25378,68.68353 0.70324,121.66045 1.07431,126.62552 1.97811,26.4681 8.78205,49.92487 20.58724,70.97514 2.89455,5.16136 8.92359,14.47819 14.41626,22.27782 1.08302,1.53789 -7.39304,13.19079 -15.42586,21.20749 -6.18883,6.17641 -8.1562,7.72116 -12.98498,10.19566 -8.64038,4.42777 -16.14082,5.89157 -25.15344,4.90899 z"
   id="path2" /><path
   style="fill:#ffffff;stroke-width:0.632337"
   d="m 576.85129,374.28295 c -28.81452,-2.07596 -56.69202,-12.85723 -79.38535,-30.70129 -6.32168,-4.97081 -19.66251,-18.48251 -24.28451,-24.59552 -13.50358,-17.85974 -22.26726,-36.75376 -26.97053,-58.14705 -3.36795,-15.31942 -4.0847,-37.03364 -1.73686,-52.61881 3.87996,-25.7556 13.07902,-47.92268 28.37827,-68.38343 13.79637,-18.45084 30.95713,-32.66638 51.67138,-42.803234 21.18211,-10.365804 41.6664,-14.768484 65.13073,-13.99852 13.12428,0.430662 21.25843,1.556953 33.044,4.575413 57.34316,14.686451 98.49322,62.990851 106.09327,124.538621 1.23876,10.03196 1.41338,27.43996 0.33775,33.67195 l -0.79127,4.58445 H 622.40702 516.47588 l 0.42433,3.0036 c 0.8522,6.03229 3.57995,14.95282 6.31462,20.65059 11.67934,24.33432 35.66426,37.85572 64.22641,36.20736 15.34486,-0.88556 26.68638,-6.13974 40.96774,-18.97911 l 3.97601,-3.57455 h 42.70201 42.70202 l -3.30835,6.16529 c -4.57808,8.53149 -9.81229,16.80577 -15.21568,24.05307 -6.27979,8.42275 -21.43385,23.50348 -29.86397,29.71946 -21.83847,16.10266 -46.20302,24.88071 -74.06809,26.68523 -5.20989,0.33739 -9.89936,0.57866 -10.42103,0.53615 -0.52168,-0.0425 -4.14896,-0.30785 -8.06061,-0.58967 z M 653.46192,199.3443 c -1.06396,-4.63902 -4.35666,-13.55002 -6.36707,-17.23119 -9.73335,-17.82228 -26.52086,-29.87246 -47.12464,-33.82636 -6.91057,-1.32616 -21.25304,-1.33698 -28.10773,-0.0212 -20.78382,3.98946 -37.12837,16.10603 -46.32161,34.33923 -1.85113,3.67137 -5.08065,12.65559 -6.01731,16.73955 l -0.39882,1.73892 h 67.368 67.368 z"
   id="path3" /><path
   style="fill:#ffffff;stroke-width:0.632337"
   d="M 894.44095,178.86527 C 882.26846,160.39716 871.8119,144.5124 871.20415,143.5658 l -1.10501,-1.7211 16.94922,-24.91982 16.94922,-24.91982 47.58152,-0.162093 47.58153,-0.162093 -10.62559,15.678836 c -44.24093,65.28075 -71.37804,105.08271 -71.64612,105.08327 -0.1739,3.7e-4 -10.27548,-15.1096 -22.44797,-33.57771 z"
   id="path5" /><path
   style="fill:#ffffff;stroke-width:0.632337"
   d="m 939.02072,374.28194 c -10.39489,-1.00401 -22.37649,-5.57857 -30.66835,-11.70915 -5.41309,-4.00216 -13.63711,-12.32365 -17.69663,-17.90638 -1.91377,-2.63184 -7.33643,-10.11712 -12.05037,-16.63395 l -8.5708,-11.84878 23.45244,-34.94417 c 12.89884,-19.2193 23.66453,-35.01867 23.92377,-35.10971 0.25923,-0.091 1.59499,1.75855 2.96835,4.11019 5.04543,8.63947 25.04068,38.1145 33.35703,49.17167 10.40243,13.83075 18.62365,23.41357 30.98474,36.11647 l 9.37035,9.62946 -8.09089,8.17776 c -7.675,7.75738 -13.93963,12.65206 -20.40935,15.94621 -3.97767,2.02528 -10.83392,4.28055 -14.39215,4.7341 -5.94552,0.75785 -6.87764,0.77823 -12.17814,0.26628 z"
   id="path7" /></svg>
