<?xml version="1.0" encoding="UTF-8" standalone="no"?>
<svg
   width="120"
   height="60"
   version="1.1"
   id="svg9"
   sodipodi:docname="steampowered_logo.svg"
   inkscape:version="1.4.2 (ebf0e940d0, 2025-05-08)"
   xmlns:inkscape="http://www.inkscape.org/namespaces/inkscape"
   xmlns:sodipodi="http://sodipodi.sourceforge.net/DTD/sodipodi-0.dtd"
   xmlns="http://www.w3.org/2000/svg"
   xmlns:svg="http://www.w3.org/2000/svg">
  <sodipodi:namedview
     id="namedview9"
     pagecolor="#505050"
     bordercolor="#eeeeee"
     borderopacity="1"
     inkscape:showpageshadow="0"
     inkscape:pageopacity="0"
     inkscape:pagecheckerboard="0"
     inkscape:deskcolor="#505050"
     showgrid="false"
     inkscape:zoom="16.766667"
     inkscape:cx="60"
     inkscape:cy="29.970179"
     inkscape:window-width="2560"
     inkscape:window-height="1368"
     inkscape:window-x="0"
     inkscape:window-y="0"
     inkscape:window-maximized="1"
     inkscape:current-layer="svg9" />
  <defs
     id="defs7">
    <linearGradient
       id="A"
       x2="116.626"
       x1="116.626"
       y2="60"
       y1="-173"
       gradientUnits="userSpaceOnUse">
      <stop
         stop-color="#111d2e"
         offset="0"
         id="stop1" />
      <stop
         stop-color="#051839"
         offset=".212"
         id="stop2" />
      <stop
         stop-color="#0a1b48"
         offset=".407"
         id="stop3" />
      <stop
         stop-color="#132e62"
         offset=".581"
         id="stop4" />
      <stop
         stop-color="#144b7e"
         offset=".738"
         id="stop5" />
      <stop
         stop-color="#136497"
         offset=".873"
         id="stop6" />
      <stop
         stop-color="#1387b8"
         offset="1"
         id="stop7" />
    </linearGradient>
  </defs>
  <g
     transform="translate(.934)"
     id="g9">
    <path
       d="M4.89-23c14.393 48 58.916 83 111.6 83C180.84 60 233 7.84 233-56.5S180.84-173 116.5-173C54.76-173 4.24-124.97.25-64.24 7.8-51.58 10.732-43.75 4.892-23z"
       fill="url(#A)"
       transform="matrix(.154455 0 0 .154455 4.485502 38.726725)"
       id="path7" />
    <path
       d="M21.553 25.493l.002.09-4.403 6.396c-.713-.032-1.43.093-2.108.372-.3.122-.58.272-.843.445l-9.67-3.98c0 0-.224 3.68.71 6.424l6.835 2.82c.343 1.534 1.395 2.88 2.948 3.526 2.54 1.06 5.468-.148 6.524-2.69a5.01 5.01 0 0 0 .385-2.056l6.3-4.502.154.003c3.77 0 6.835-3.074 6.835-6.848a6.85 6.85 0 0 0-6.835-6.846 6.85 6.85 0 0 0-6.835 6.846zm-1.056 12.962c-.818 1.963-3.074 2.894-5.035 2.077-.905-.377-1.588-1.067-1.982-1.89l2.225.922c1.446.602 3.105-.083 3.706-1.53a2.84 2.84 0 0 0-1.526-3.712l-2.3-.953c.887-.337 1.896-.35 2.84.043a3.82 3.82 0 0 1 2.079 2.091c.39.95.39 2.002-.006 2.95m7.89-8.4c-2.5 0-4.553-2.047-4.553-4.562s2.043-4.56 4.553-4.56 4.555 2.047 4.555 4.56-2.043 4.562-4.555 4.562m-3.412-4.57c0-1.893 1.532-3.428 3.42-3.428s3.42 1.535 3.42 3.428-1.532 3.426-3.42 3.426-3.42-1.534-3.42-3.426z"
       fill="#fff"
       id="path8" />
    <path
       d="M113.623 36.72h-2.444V28.9l-2.85 5.09h-1.63l-2.444-5.09v7.82h-2.85V23.28h2.85l3.258 7.25 3.666-7.25h2.444zm-15.884 0h-2.85l-.815-2.362h-4.48l-.815 2.362h-2.85l4.887-13.44h2.036zm-4.073-4.602l-1.63-4.887-1.63 4.887zm-11.81 4.602h-8.96V23.28h8.96V25.6h-6.11v3.177h5.295V31.1h-5.295v3.3h6.11zM68.82 25.6h-3.258v11.12h-2.85V25.6h-3.666V23.28h9.775zM55.787 32.77c0 2.77-2.444 4.032-4.887 4.073-2.444 0-4.073-.57-4.887-1.792l1.63-1.67c.815.733 1.63 1.14 3.258 1.14s2.444-.57 2.444-1.67c0-1.018-.815-1.466-1.63-1.63l-1.63-.204c-2.444-.326-3.666-1.588-3.666-3.788 0-1.222.407-2.2 1.222-2.973.815-.733 2.036-1.1 3.258-1.1 2.036 0 3.258.53 4.48 1.548l-1.63 1.67c-.815-.61-1.63-.937-2.85-.937-1.222.08-2.036.53-2.036 1.71 0 .937.815 1.385 1.63 1.466l1.63.244c2.036.244 3.666 1.63 3.666 3.9z"
       id="path9" />
  </g>
  <path
     style="fill:#ffffff;stroke-width:0.0596421"
     d="m 50.248509,36.716075 c -1.408076,-0.203722 -2.536545,-0.729101 -3.094392,-1.440651 l -0.171928,-0.219298 0.805679,-0.805678 0.805678,-0.805679 0.307277,0.242888 c 0.704388,0.556787 1.411792,0.784239 2.57787,0.828864 1.253887,0.04799 1.958431,-0.119264 2.39657,-0.568915 0.294179,-0.301908 0.409616,-0.609055 0.409616,-1.089875 0,-0.968338 -0.616627,-1.51043 -1.926288,-1.69345 -0.340466,-0.04758 -0.921297,-0.128689 -1.290736,-0.180245 -2.020307,-0.281937 -3.187416,-1.160501 -3.561937,-2.681317 -0.13289,-0.539625 -0.13504,-1.653748 -0.0041,-2.149637 0.292412,-1.107818 1.050129,-2.028636 2.043647,-2.483551 0.817332,-0.374242 1.187112,-0.439398 2.462535,-0.433909 1.056362,0.0045 1.217719,0.01942 1.759444,0.162133 0.694333,0.182923 1.63844,0.637491 2.134231,1.027589 l 0.344966,0.271426 -0.76178,0.802709 c -0.418979,0.441489 -0.779873,0.802708 -0.801987,0.802708 -0.02211,0 -0.183455,-0.09447 -0.358535,-0.209932 -1.290193,-0.850861 -3.343609,-0.900406 -4.124007,-0.0995 -0.291556,0.299216 -0.404991,0.600281 -0.409571,1.087023 -0.0065,0.688124 0.331843,1.181354 0.961414,1.401636 0.149451,0.05229 0.862187,0.185816 1.583857,0.29672 0.72167,0.110904 1.46655,0.25533 1.655289,0.320946 1.346713,0.468192 2.248087,1.396622 2.582839,2.660367 0.128768,0.486123 0.127403,1.495936 -0.0027,1.998012 -0.363775,1.403821 -1.476385,2.396504 -3.191005,2.847049 -0.473856,0.124513 -0.73427,0.152371 -1.581201,0.169148 -0.627642,0.01243 -1.218415,-0.0095 -1.550696,-0.05758 z"
     id="path10" />
  <path
     style="fill:#ffffff;stroke-width:0.0596421"
     d="m 66.469958,31.163022 c 4e-6,-3.050696 0.0073,-4.289967 0.01611,-2.753937 0.0089,1.536031 0.0089,4.032055 -6e-6,5.54672 -0.0089,1.514665 -0.01611,0.257913 -0.01611,-2.792783 z"
     id="path11" />
  <path
     style="fill:#ffffff;stroke-width:0.0596421"
     d="m 73.836978,30 v -6.67992 h 4.473161 4.473161 v 1.1332 1.133201 h -3.07157 -3.071571 v 1.610338 1.610338 h 2.654076 2.654075 v 1.133201 1.133201 h -2.654075 -2.654076 v 1.66998 1.66998 h 3.071571 3.07157 v 1.133201 1.1332 h -4.473161 -4.473161 z"
     id="path12" />
  <path
     style="fill:#ffffff;stroke-width:0.0596421"
     d="m 87.07617,36.217694 c 0.09301,-0.254225 1.184802,-3.260261 2.426195,-6.68008 l 2.257078,-6.217854 1.009742,0.01507 1.009742,0.01507 2.376392,6.530815 c 1.307016,3.591948 2.392199,6.591705 2.411517,6.666126 l 0.03513,0.13531 -1.385794,-0.01603 -1.385793,-0.01603 -0.394226,-1.148111 -0.394226,-1.148111 h -2.277599 -2.277599 l -0.102525,0.313121 c -0.05639,0.172217 -0.235927,0.695577 -0.398976,1.163022 l -0.296452,0.8499 h -1.390859 -1.390859 z m 6.766235,-6.471173 c -0.440158,-1.320328 -0.816893,-2.440855 -0.837189,-2.49006 -0.02726,-0.0661 -1.104097,3.024323 -1.667738,4.786283 -0.03126,0.09771 0.07314,0.104373 1.635913,0.104373 h 1.669302 z"
     id="path13" />
  <path
     style="fill:#ffffff;stroke-width:0.0596421"
     d="m 102.34592,30 v -6.67992 l 1.41651,0.0012 1.4165,0.0012 1.60532,3.579923 c 0.88293,1.968958 1.6255,3.592394 1.65016,3.607635 0.0247,0.01524 0.86333,-1.589556 1.86372,-3.566215 l 1.81888,-3.593925 1.19795,-0.01615 1.19796,-0.01615 v 6.681155 6.681155 h -1.19241 -1.19242 l -0.0153,-3.910365 -0.0153,-3.910365 -1.41298,2.523685 -1.41297,2.523686 h -0.82053 -0.82053 l -1.19592,-2.486159 c -0.65776,-1.367387 -1.21605,-2.505807 -1.24065,-2.529821 -0.0246,-0.02401 -0.0447,1.718763 -0.0447,3.872838 v 3.916501 h -1.4016 -1.40159 z"
     id="path14" />
  <path
     style="fill:#ffffff;stroke-width:0.0596421"
     d="m 63.697813,31.133201 v -5.54672 H 61.848907 60 v -1.133201 -1.1332 h 4.860835 4.860835 v 1.1332 1.133201 h -1.640159 -1.640159 v 5.54672 5.546719 h -1.371769 -1.37177 z"
     id="path15" />
</svg>
