<?xml version="1.0" encoding="UTF-8" standalone="no"?>
<svg
   width="120"
   height="60"
   version="1.1"
   id="svg3"
   sodipodi:docname="amazon_web_services_logo.svg"
   inkscape:version="1.4.2 (ebf0e940d0, 2025-05-08)"
   xmlns:inkscape="http://www.inkscape.org/namespaces/inkscape"
   xmlns:sodipodi="http://sodipodi.sourceforge.net/DTD/sodipodi-0.dtd"
   xmlns="http://www.w3.org/2000/svg"
   xmlns:svg="http://www.w3.org/2000/svg">
  <defs
     id="defs3" />
  <sodipodi:namedview
     id="namedview3"
     pagecolor="#505050"
     bordercolor="#eeeeee"
     borderopacity="1"
     inkscape:showpageshadow="0"
     inkscape:pageopacity="0"
     inkscape:pagecheckerboard="0"
     inkscape:deskcolor="#505050"
     inkscape:zoom="23.711647"
     inkscape:cx="77.936382"
     inkscape:cy="45.947883"
     inkscape:window-width="2560"
     inkscape:window-height="1368"
     inkscape:window-x="0"
     inkscape:window-y="0"
     inkscape:window-maximized="1"
     inkscape:current-layer="svg3" />
  <path
     d="M15.864 42.616V33.77l6.036 2.057v8.956zm13.178 0V33.77l-6.036 2.057v8.956zm-6.45-11.228l5.664 1.826-5.664 1.923-6.1-2.03zm-13.915-1.13V21.4l6.036 2.056v8.956zm13.18-.001V21.4l-6.036 2.056v8.956zm-6.45-11.23l5.664 1.827-5.664 1.923-6.1-2.03zm7.355 11.23V21.4l6.036 2.056v8.956zm13.178 0V21.4l-6.036 2.056v8.956zm-6.44-11.23l5.664 1.827-5.664 1.923-6.1-2.03zm.458-1.13V9.05l6.036 2.057v8.955zm13.17-.001V9.05l-6.036 2.057v8.955zM36.677 6.67l5.664 1.826-5.664 1.923-6.1-2.03zm7.355 11.227V9.05l6.036 2.057v8.955zm13.168 0V9.05l-6.036 2.057v8.955zM50.76 6.67l5.664 1.826-5.664 1.923-6.1-2.03z"
     fill="#f90"
     fill-rule="evenodd"
     id="path1" />
  <path
     d="M46.998 39.018l-2.028 7.044h-.88l-1.6-5.232-1.448 5.232h-.898l-2.107-7.044h1.1l1.535 5.25 1.46-5.25h.804l1.588 5.266 1.578-5.266h.885zm5.608 4.942l1.02.2a2.87 2.87 0 0 1-1.086 1.495c-.54.395-1.172.592-1.9.592-.96 0-1.738-.338-2.332-1.016s-.9-1.565-.9-2.663c0-1.122.3-2.028.926-2.72a2.98 2.98 0 0 1 2.325-1.037c.92 0 1.658.318 2.218.955s.846 1.588.86 2.856h-5.113c0 1.065.222 1.784.668 2.156s.916.558 1.412.558c.895 0 1.526-.462 1.892-1.387zm-.06-2.144c-.01-.395-.074-.746-.195-1.053s-.325-.568-.613-.784-.633-.324-1.037-.324a1.85 1.85 0 0 0-1.381.586c-.378.4-.6.915-.637 1.575h3.862zm3.17 4.246h-.527v-9.5h1.097v3.64c.5-.913 1.2-1.37 2.073-1.37.806 0 1.482.32 2.027.957s.817 1.564.817 2.778c0 1.047-.27 1.925-.804 2.635s-1.234 1.065-2.092 1.065c-.956 0-1.7-.454-2.2-1.36l-.4 1.165zm.57-2.76c.05.723.273 1.248.665 1.574s.807.5 1.244.5c.557 0 1.006-.242 1.348-.726s.512-1.147.512-1.988c0-.907-.165-1.62-.494-2.14s-.787-.778-1.372-.778c-.46 0-.874.185-1.244.554s-.6.847-.658 1.432v1.57zm7.713.934l1.046-.216c.232.885.968 1.327 2.204 1.327.455 0 .842-.102 1.158-.306a.97.97 0 0 0 .475-.863c0-.55-.403-.9-1.208-1.05l-1.483-.282c-.58-.112-1.043-.33-1.387-.656s-.515-.755-.515-1.3c0-.6.234-1.084.704-1.482s1.1-.596 1.895-.596c1.528 0 2.47.597 2.83 1.792l-1.004.216c-.288-.73-.88-1.097-1.775-1.097-.446 0-.812.1-1.097.274a.86.86 0 0 0-.428.766c0 .518.365.843 1.094.978l1.37.252c1.436.26 2.153.957 2.153 2.088a1.86 1.86 0 0 1-.802 1.568c-.534.398-1.245.598-2.134.598-1.67 0-2.7-.674-3.096-2.02zm11.866-.276l1.02.2c-.185.602-.547 1.1-1.086 1.495s-1.172.592-1.9.592c-.96 0-1.738-.338-2.332-1.016s-.9-1.565-.9-2.663c0-1.122.308-2.028.926-2.72a2.98 2.98 0 0 1 2.325-1.037c.918 0 1.658.318 2.217.955s.846 1.588.86 2.856h-5.112c0 1.065.222 1.784.667 2.156s.916.558 1.413.558c.895 0 1.526-.462 1.892-1.387zm-.06-2.144c-.01-.395-.075-.746-.195-1.053s-.324-.568-.612-.784-.633-.324-1.037-.324a1.85 1.85 0 0 0-1.382.586c-.378.4-.6.915-.636 1.575h3.862zm3.477 4.246h-1.097v-7.044h.96v1.642c.34-.77.68-1.268 1.02-1.495s.7-.342 1.048-.342a4.69 4.69 0 0 1 .432.026v1.046h-.222c-.603 0-1.104.224-1.503.672s-.612 1.037-.64 1.766v3.73zm9.18-7.044l-2.432 7.044h-1.137l-2.513-7.044h1.214l1.955 5.725 1.94-5.725h.973zm2.05-2.468v1.217H89.34V36.55h1.174zm-.026 2.467v7.044H89.4v-7.044h1.097zm5.734 4.578l.987.174c-.14.778-.448 1.387-.926 1.828s-1.075.66-1.8.66c-.97 0-1.7-.36-2.22-1.075s-.763-1.6-.763-2.625c0-1.07.268-1.96.805-2.67s1.267-1.065 2.2-1.065c.766 0 1.38.23 1.843.7s.75 1.05.86 1.778l-.987.188c-.186-1.163-.747-1.744-1.685-1.744a1.55 1.55 0 0 0-1.392.77c-.325.513-.488 1.178-.488 1.996 0 .9.16 1.6.484 2.1a1.53 1.53 0 0 0 1.361.749c.905 0 1.478-.584 1.72-1.753zm7.176.365l1.02.2a2.87 2.87 0 0 1-1.086 1.495c-.54.395-1.172.592-1.9.592-.96 0-1.74-.338-2.333-1.016s-.9-1.565-.9-2.663c0-1.122.3-2.028.926-2.72a2.98 2.98 0 0 1 2.325-1.037c.92 0 1.66.318 2.218.955s.846 1.588.86 2.856h-5.112c0 1.065.222 1.784.668 2.156s.916.558 1.412.558c.895 0 1.526-.462 1.892-1.387zm-.06-2.144c-.01-.395-.074-.746-.195-1.053a1.79 1.79 0 0 0-.612-.784c-.288-.216-.633-.324-1.037-.324a1.84 1.84 0 0 0-1.38.586c-.376.4-.6.915-.637 1.575h3.862zm1.82 2.42l1.046-.216c.232.885.967 1.327 2.204 1.327.455 0 .84-.102 1.158-.306a.97.97 0 0 0 .474-.863c0-.55-.403-.9-1.207-1.05l-1.483-.282c-.58-.112-1.043-.33-1.387-.656s-.515-.755-.515-1.3c0-.6.234-1.084.704-1.482s1.1-.596 1.895-.596c1.528 0 2.47.597 2.83 1.792l-1.004.216c-.288-.73-.88-1.097-1.775-1.097-.446 0-.8.1-1.097.274a.86.86 0 0 0-.428.766c0 .518.365.843 1.094.978l1.37.252c1.436.26 2.153.957 2.153 2.088a1.86 1.86 0 0 1-.802 1.568c-.534.398-1.245.598-2.134.598-1.668 0-2.7-.674-3.095-2.02z"
     stroke="#000"
     stroke-width=".213"
     id="path2" />
  <path
     d="M80.42 23.964v-1.692a.42.42 0 0 1 .43-.43h7.583c.242 0 .437.176.438.427v1.45c-.002.243-.207.56-.57 1.065l-3.927 5.608c1.458-.034 3 .184 4.325.93.3.168.378.416.402.66v1.805c0 .25-.272.537-.558.387-2.334-1.223-5.43-1.357-8.012.014-.264.14-.54-.143-.54-.392V32.08c0-.275.005-.744.282-1.163l4.55-6.53H80.86a.42.42 0 0 1-.439-.425zM53.283 34.532h-2.307c-.22-.014-.395-.18-.412-.4l.001-11.84c0-.237.2-.426.445-.426l2.148-.001c.225.012.405.182.42.398v1.546h.043c.56-1.495 1.615-2.193 3.036-2.193 1.443 0 2.347.698 2.994 2.193.56-1.495 1.83-2.193 3.187-2.193.97 0 2.024.4 2.67 1.296.732.996.582 2.442.582 3.713l-.002 7.472c0 .237-.2.426-.445.426H63.34c-.23-.015-.414-.198-.414-.425V27.83c0-.5.043-1.744-.065-2.218-.172-.797-.7-1.022-1.356-1.022-.56 0-1.142.374-1.38.972s-.215 1.595-.215 2.268v6.276c0 .237-.2.426-.445.426H57.16c-.232-.015-.414-.198-.414-.425l-.002-6.277c0-1.32.215-3.264-1.42-3.264-1.658 0-1.594 1.893-1.594 3.264v6.276c0 .237-.2.426-.445.426zm41.16-12.907c3.397 0 5.234 2.94 5.234 6.678 0 3.613-2.03 6.478-5.234 6.478-3.333 0-5.15-2.94-5.15-6.603 0-3.687 1.838-6.553 5.15-6.553zm.022 2.722c-1.688 0-1.795 2.317-1.795 3.762s-.02 4.23 1.774 4.23c1.774 0 1.86-2.187 1.86-3.707 0-.996-.042-2.193-.34-3.14-.257-.822-.77-1.146-1.496-1.146zm10.128 10.185h-2.298c-.23-.015-.414-.198-.414-.425l-.004-11.845c.02-.217.2-.386.443-.386l2.14-.001a.44.44 0 0 1 .41.332v1.8h.044c.646-1.62 1.55-2.392 3.144-2.392 1.033 0 2.046.374 2.692 1.395.603.947.603 2.54.603 3.688v7.45c-.026.2-.214.373-.442.373h-2.313c-.213-.014-.385-.17-.4-.373v-6.43c0-1.295.15-3.2-1.443-3.2-.56 0-1.077.374-1.335.947-.323.723-.367 1.445-.367 2.243v6.376c-.004.237-.203.426-.45.426zm-29.955-5.655c0 .9.022 1.648-.432 2.447-.367.65-.95 1.05-1.597 1.05-.885 0-1.403-.674-1.403-1.673 0-1.964 1.763-2.322 3.43-2.322v.5zm2.326 5.625c-.153.137-.373.146-.545.054-.766-.637-.903-.93-1.322-1.538-1.266 1.3-2.163 1.677-3.803 1.677-1.942 0-3.453-1.2-3.453-3.596 0-1.873 1.014-3.146 2.46-3.77 1.252-.55 3-.65 4.338-.8v-.3c0-.55.043-1.198-.28-1.673-.28-.425-.82-.6-1.295-.6-.88 0-1.662.45-1.855 1.386-.04.208-.192.413-.4.424l-2.236-.242c-.2-.043-.4-.194-.344-.482.514-2.713 2.964-3.532 5.16-3.532 1.122 0 2.6.3 3.474 1.15 1.123 1.05 1.014 2.447 1.014 3.97v3.594c0 1.08.45 1.555.87 2.138.147.2.18.46-.008.613l-1.77 1.532-.006-.006zm-32.307-5.625c0 .9.022 1.648-.432 2.447-.367.65-.95 1.05-1.597 1.05-.885 0-1.403-.674-1.403-1.673 0-1.964 1.762-2.322 3.43-2.322v.5zm2.326 5.625c-.153.137-.373.146-.545.054-.766-.637-.904-.93-1.322-1.538-1.266 1.3-2.163 1.677-3.803 1.677-1.942 0-3.453-1.2-3.453-3.596 0-1.873 1.014-3.146 2.46-3.77 1.252-.55 3-.65 4.338-.8v-.3c0-.55.043-1.198-.28-1.673-.28-.425-.82-.6-1.295-.6-.88 0-1.662.45-1.855 1.386-.04.208-.2.413-.4.424l-2.236-.242c-.2-.043-.4-.194-.344-.482.513-2.713 2.963-3.532 5.16-3.532 1.122 0 2.6.3 3.475 1.15 1.122 1.05 1.014 2.447 1.014 3.97v3.594c0 1.08.45 1.555.87 2.138.147.2.18.46-.007.613L47 34.507l-.006-.006z"
     fill-rule="evenodd"
     id="path3" />
  <path
     style="fill:#ffffff;stroke-width:0.0596421"
     d="m 39.020625,42.569583 -1.075129,-3.59344 0.599611,-0.0171 c 0.329786,-0.0094 0.618093,0.004 0.640683,0.02982 0.02259,0.02581 0.358825,1.139028 0.747188,2.47382 0.388362,1.334793 0.722636,2.416684 0.742829,2.404204 0.02019,-0.01248 0.342852,-1.124713 0.717019,-2.471627 l 0.680302,-2.448935 h 0.460821 0.460821 l 0.148232,0.492048 c 0.201525,0.668948 1.288055,4.282295 1.328493,4.418013 0.01784,0.05988 0.04326,0.09805 0.05648,0.08483 0.01322,-0.01322 0.356135,-1.129992 0.762028,-2.48171 0.405893,-1.351718 0.751572,-2.471254 0.768174,-2.487856 0.0166,-0.0166 0.255383,-0.02238 0.530623,-0.01284 l 0.500435,0.01734 -0.964637,3.33996 c -0.530549,1.836979 -0.994304,3.454026 -1.030564,3.59344 l -0.06593,0.253479 h -0.493285 -0.493285 l -0.738906,-2.430418 c -0.406398,-1.336729 -0.758174,-2.453017 -0.781724,-2.48064 -0.05491,-0.0644 -0.06799,-0.02177 -0.711182,2.316624 -0.297748,1.082505 -0.581467,2.109096 -0.630487,2.281313 l -0.08913,0.313121 h -0.497176 -0.497177 z"
     id="path4" />
  <path
     style="fill:#ffffff;stroke-width:0.0596421"
     d="m 40.399321,34.56299 c -1.070188,-0.232736 -1.912096,-0.980135 -2.272964,-2.017808 -0.568476,-1.634655 -0.09156,-3.509863 1.153926,-4.537201 0.897629,-0.740406 2.172934,-1.127781 4.437411,-1.347868 1.063518,-0.103365 0.954274,-0.01571 0.954274,-0.765732 0,-0.754888 -0.103083,-1.171643 -0.363034,-1.467711 -0.382315,-0.435432 -1.087747,-0.603561 -1.784999,-0.425428 -0.672087,0.171704 -1.096967,0.565328 -1.281708,1.18742 -0.169898,0.572108 -0.177561,0.574127 -1.61002,0.42425 -1.087996,-0.113836 -1.130844,-0.122058 -1.248315,-0.239528 -0.326509,-0.32651 0.333098,-1.861077 1.093546,-2.544119 1.268459,-1.139343 3.582757,-1.588542 5.582204,-1.08349 0.196819,0.04972 0.608247,0.211196 0.914283,0.358847 0.961603,0.463934 1.543751,1.184604 1.776771,2.199553 0.07831,0.341067 0.103075,0.990707 0.135306,3.548708 0.03646,2.893405 0.04808,3.151596 0.153062,3.399602 0.133438,0.31524 0.331803,0.643668 0.60856,1.007583 0.340204,0.44734 0.319742,0.488475 -0.675857,1.358692 -1.010105,0.882896 -1.132208,0.972758 -1.322496,0.973292 -0.185321,5.2e-4 -0.878761,-0.669671 -1.240129,-1.198552 l -0.274737,-0.402091 -0.54434,0.476127 c -0.665127,0.581779 -1.397147,0.966648 -2.085371,1.096411 -0.569804,0.107435 -1.609131,0.106962 -2.105373,-9.57e-4 z m 2.815701,-2.277258 c 0.38282,-0.130184 0.901047,-0.644155 1.122202,-1.112984 0.246743,-0.523075 0.332543,-1.036252 0.333709,-1.995939 l 0.001,-0.853012 -0.521869,0.03898 c -1.160672,0.08669 -1.84243,0.311874 -2.33273,0.770492 -0.397155,0.371492 -0.558306,0.755158 -0.591977,1.409373 -0.04466,0.8677 0.233478,1.478167 0.788281,1.730154 0.305995,0.138979 0.814602,0.144456 1.201349,0.01294 z"
     id="path5" />
  <path
     style="fill:#ffffff;stroke-width:0.0596421"
     d="m 50.868459,34.468578 c -0.08547,-0.03259 -0.186115,-0.126671 -0.223658,-0.209068 -0.0498,-0.109295 -0.06826,-1.762907 -0.06826,-6.113934 v -5.964119 l 0.146394,-0.146395 c 0.14564,-0.145639 0.152526,-0.146394 1.335341,-0.146394 1.561003,0 1.460367,-0.07464 1.500372,1.112836 l 0.02982,0.885176 0.263103,-0.497772 c 0.616468,-1.16631 1.513857,-1.726285 2.781026,-1.73537 1.227241,-0.0088 2.156992,0.568521 2.760158,1.713897 l 0.257569,0.489105 0.214973,-0.429707 c 0.253415,-0.506547 0.842506,-1.125862 1.308325,-1.375452 0.169698,-0.09093 0.516127,-0.218411 0.769843,-0.283301 1.68548,-0.431073 3.392203,0.398133 3.895689,1.892709 0.228072,0.67702 0.251095,1.273393 0.232406,6.019849 -0.0172,4.368684 -0.02221,4.546248 -0.131501,4.666998 -0.108997,0.120421 -0.167434,0.125525 -1.437078,0.125525 -1.184697,0 -1.333363,-0.01094 -1.417908,-0.104374 C 63.001213,34.276117 62.988083,33.786213 62.96796,30 c -0.02009,-3.780327 -0.03394,-4.298266 -0.121999,-4.562624 -0.183646,-0.551321 -0.629079,-0.8611 -1.241635,-0.863502 -0.769414,-0.003 -1.325242,0.416103 -1.580188,1.191534 -0.0984,0.29929 -0.110716,0.687723 -0.140547,4.433284 -0.03156,3.962054 -0.0367,4.108178 -0.147433,4.189103 -0.183921,0.134409 -0.415438,0.153815 -1.598023,0.133944 -0.97633,-0.0164 -1.129611,-0.0321 -1.222634,-0.125208 -0.09943,-0.09951 -0.108417,-0.38131 -0.137965,-4.324056 -0.03444,-4.595509 -0.02645,-4.490328 -0.381858,-5.027383 -0.274446,-0.414716 -0.876453,-0.59151 -1.543373,-0.45325 -0.271826,0.05635 -0.660188,0.38999 -0.821094,0.705393 -0.301066,0.590138 -0.308661,0.702349 -0.337188,4.981625 -0.02615,3.922381 -0.02923,4.00878 -0.146811,4.115309 -0.106826,0.09679 -0.25292,0.110187 -1.321729,0.121238 -0.68501,0.0071 -1.268438,-0.01305 -1.357025,-0.04683 z"
     id="path6" />
  <path
     style="fill:#ffffff;stroke-width:0.0596421"
     d="m 70.356171,34.557527 c -1.265344,-0.306287 -2.14382,-1.242461 -2.394289,-2.551544 -0.334269,-1.747065 0.308564,-3.379626 1.684408,-4.277786 0.85795,-0.560077 1.999569,-0.863343 4.011762,-1.065708 0.344433,-0.03464 0.716648,-0.07801 0.827145,-0.09639 l 0.200903,-0.0334 -0.0257,-0.726588 c -0.03681,-1.040798 -0.233828,-1.45136 -0.816816,-1.702154 -0.812097,-0.349355 -1.758067,-0.151661 -2.299167,0.480493 -0.118304,0.138211 -0.254665,0.384529 -0.303024,0.547373 -0.138225,0.465451 -0.232645,0.573942 -0.499501,0.573942 -0.23369,0 -1.785631,-0.153912 -2.138966,-0.21213 -0.114523,-0.01887 -0.232641,-0.09055 -0.287707,-0.174588 -0.08483,-0.129464 -0.08476,-0.177201 7.56e-4,-0.519082 0.0518,-0.207078 0.205228,-0.604637 0.34096,-0.883464 0.488215,-1.002917 1.45602,-1.748538 2.742096,-2.11258 0.538042,-0.152301 1.420744,-0.273106 1.995535,-0.273106 0.910628,0 2.088765,0.28689 2.791121,0.67967 0.445079,0.248902 1.039104,0.853315 1.25247,1.274373 0.351037,0.692739 0.354073,0.725109 0.392878,4.189098 0.03537,3.157594 0.03719,3.194486 0.174258,3.539175 0.07618,0.191577 0.256245,0.513645 0.400142,0.715706 0.382991,0.537806 0.471858,0.728215 0.406798,0.87161 -0.09349,0.206058 -1.991407,1.791998 -2.144508,1.791998 -0.241293,0 -0.901771,-0.638366 -1.355124,-1.309757 -0.100555,-0.148918 -0.191863,-0.281907 -0.202905,-0.295531 -0.01104,-0.01363 -0.201276,0.149056 -0.42274,0.361512 -0.710102,0.681214 -1.354598,1.039107 -2.177234,1.209026 -0.563297,0.116353 -1.672538,0.116266 -2.153553,-1.68e-4 z m 2.992985,-2.354844 c 0.423316,-0.211533 0.717195,-0.527401 0.971769,-1.044479 0.235704,-0.478751 0.346417,-1.13647 0.348962,-2.073101 l 0.0021,-0.765791 -0.521869,0.04065 c -1.533655,0.119471 -2.425649,0.545762 -2.769765,1.323693 -0.260639,0.589219 -0.25596,1.465055 0.01059,1.983078 0.358211,0.696149 1.184871,0.922398 1.958228,0.535946 z"
     id="path7" />
  <path
     style="fill:#ffffff;stroke-width:0.0596421"
     d="m 80.138468,34.06588 c -0.140369,-0.155107 -0.14602,-2.357566 -0.0071,-2.758039 0.0511,-0.147297 1.12128,-1.74129 2.419696,-3.604064 l 2.328066,-3.33996 -2.106576,-0.01462 c -2.063446,-0.01432 -2.108712,-0.0172 -2.210949,-0.140802 -0.0899,-0.108682 -0.104374,-0.259933 -0.104374,-1.090403 0,-0.776163 0.01811,-0.99007 0.09285,-1.096772 l 0.09285,-0.132555 h 3.983398 c 3.971902,0 3.983726,3.62e-4 4.097015,0.125355 0.09602,0.105936 0.116652,0.238538 0.133205,0.855982 0.01105,0.412227 -0.009,0.83692 -0.04609,0.974536 -0.04285,0.159125 -0.831742,1.338725 -2.269523,3.393521 l -2.203845,3.149612 0.758882,0.04039 c 1.27882,0.06805 2.251381,0.289042 3.199077,0.726904 0.237881,0.109908 0.496111,0.281296 0.587539,0.389952 l 0.163122,0.193859 v 1.119381 c 0,1.008694 -0.01078,1.129142 -0.10907,1.218088 -0.152573,0.138076 -0.232451,0.126543 -0.746707,-0.107811 -1.131587,-0.51568 -2.317868,-0.765077 -3.647205,-0.766766 -1.322825,-0.0017 -2.491517,0.243877 -3.63005,0.762724 -0.526552,0.239957 -0.635938,0.254296 -0.774226,0.10149 z"
     id="path8" />
  <path
     style="fill:#ffffff;stroke-width:0.0596421"
     d="m 93.768958,34.711114 c -1.571487,-0.219506 -2.872339,-1.19492 -3.618304,-2.713102 -0.311491,-0.633944 -0.470735,-1.097029 -0.644548,-1.874361 -0.175504,-0.784895 -0.190351,-2.979805 -0.02545,-3.761822 0.211793,-1.00437 0.537454,-1.84782 0.974024,-2.522687 0.965597,-1.492662 2.510976,-2.273887 4.286866,-2.167113 2.506584,0.150708 4.25534,1.966091 4.776216,4.95819 0.140115,0.80487 0.143837,2.419587 0.0073,3.169126 -0.459083,2.520306 -1.890128,4.289391 -3.875626,4.791127 -0.557007,0.140755 -1.365264,0.192609 -1.880488,0.120642 z m 1.349756,-2.478595 c 0.489376,-0.204107 0.864069,-0.764069 1.054873,-1.576455 0.137631,-0.585993 0.19002,-2.581768 0.09445,-3.598223 -0.07739,-0.823071 -0.244687,-1.598763 -0.418159,-1.938797 -0.155219,-0.304255 -0.541384,-0.643513 -0.820807,-0.721104 -0.353381,-0.09813 -0.911868,-0.07577 -1.182154,0.04733 -0.75885,0.345607 -1.121672,1.314508 -1.196645,3.195596 -0.06472,1.6238 0.102054,3.069946 0.436365,3.783857 0.387384,0.827249 1.205594,1.152507 2.032076,0.807798 z"
     id="path10" />
  <path
     style="fill:#ffffff;stroke-width:0.0596421"
     d="m 102.22664,34.492714 c -0.0492,-0.01931 -0.13643,-0.07603 -0.19384,-0.126043 -0.0981,-0.08549 -0.10432,-0.453203 -0.10346,-6.150269 5.1e-4,-3.332639 0.0206,-6.088875 0.0447,-6.124968 0.11486,-0.172016 0.33388,-0.202766 1.4442,-0.202766 1.13067,0 1.14101,0.0012 1.28623,0.146394 0.14288,0.142875 0.14639,0.168685 0.14639,1.073559 0,0.50994 0.0201,0.925455 0.0447,0.923365 0.0246,-0.0021 0.16314,-0.25035 0.30786,-0.55169 0.20736,-0.431768 0.35273,-0.637232 0.68588,-0.969422 0.6196,-0.617808 1.22912,-0.861586 2.15,-0.859893 1.58617,0.0029 2.7065,0.87444 3.07346,2.390892 0.18522,0.765457 0.23666,2.132446 0.23792,6.322847 0.001,3.748989 -3.3e-4,3.796014 -0.12247,3.951292 l -0.12362,0.157149 h -1.32837 c -1.19032,0 -1.33821,-0.01087 -1.42301,-0.104569 -0.084,-0.09281 -0.0973,-0.567424 -0.11857,-4.219682 -0.0255,-4.386035 -0.0287,-4.434368 -0.32555,-5.009745 -0.22547,-0.436931 -0.57015,-0.62707 -1.13289,-0.624933 -0.79367,0.003 -1.28836,0.48921 -1.60681,1.579207 -0.0932,0.319214 -0.10805,0.777879 -0.137,4.247906 L 105,34.231398 104.86427,34.36719 c -0.13136,0.131424 -0.17454,0.136192 -1.34195,0.148217 -0.66342,0.0068 -1.24648,-0.0034 -1.29568,-0.02269 z"
     id="path11" />
  <path
     style="fill:#ffffff;stroke-width:0.0596421"
     d="m 101.00398,46.303983 c -1.37469,-0.210285 -2.373227,-1.147341 -2.755983,-2.586289 -0.140365,-0.527693 -0.139483,-1.787028 0.0016,-2.326044 0.421472,-1.609929 1.668419,-2.648477 3.173043,-2.642742 1.38711,0.0053 2.38708,0.690367 2.86639,1.963773 0.14942,0.396977 0.32225,1.342925 0.32291,1.767438 l 3.6e-4,0.223658 h -2.57067 -2.570664 l 0.04233,0.421504 c 0.0928,0.924044 0.322932,1.413206 0.820124,1.743225 0.60553,0.401925 1.32631,0.496251 1.9144,0.250531 0.33381,-0.139473 0.74222,-0.546152 0.93803,-0.934039 0.16437,-0.325613 0.18075,-0.339705 0.33738,-0.290153 0.0905,0.02864 0.34578,0.08406 0.5672,0.123145 0.23968,0.04231 0.40258,0.100677 0.40258,0.144247 0,0.04025 -0.082,0.237215 -0.18215,0.437697 -0.49458,0.989749 -1.50539,1.639213 -2.65268,1.70441 -0.26142,0.01485 -0.55582,0.01469 -0.65423,-3.61e-4 z m 2.21608,-4.868627 c -0.0855,-0.727404 -0.43434,-1.277333 -0.97918,-1.543613 -0.34768,-0.169922 -1.10779,-0.18813 -1.44565,-0.03463 -0.64534,0.293194 -1.0563,0.863856 -1.223205,1.698553 l -0.03876,0.193837 h 1.861855 1.86186 z"
     id="path12" />
  <path
     style="fill:#ffffff;stroke-width:0.0596421"
     d="m 107.59443,46.286281 c -0.81666,-0.118918 -1.39234,-0.391611 -1.85138,-0.876983 -0.31366,-0.331653 -0.67772,-1.022527 -0.6192,-1.175045 0.0296,-0.07727 1.08003,-0.332081 1.11668,-0.270892 0.007,0.0125 0.0865,0.176458 0.17551,0.364356 0.30363,0.64071 0.87234,0.909581 1.92392,0.909572 0.54734,-4e-6 0.70282,-0.0215 0.93821,-0.129694 0.3726,-0.171263 0.55964,-0.367208 0.6418,-0.67233 0.0869,-0.322573 0.0324,-0.557783 -0.18691,-0.807595 -0.22005,-0.250622 -0.46468,-0.33221 -1.76104,-0.587329 -1.89328,-0.372592 -2.50778,-0.859407 -2.57049,-2.036365 -0.031,-0.582905 0.11,-1.016709 0.45858,-1.410363 0.51362,-0.580016 1.20289,-0.836474 2.24128,-0.833913 1.45101,0.0036 2.35516,0.539947 2.78968,1.65492 l 0.0957,0.245635 -0.48842,0.10187 c -0.26864,0.05603 -0.53112,0.113687 -0.58329,0.12813 -0.0649,0.01795 -0.12831,-0.0479 -0.20056,-0.208122 -0.14023,-0.310979 -0.41347,-0.566966 -0.77814,-0.72902 -0.44994,-0.199947 -1.24986,-0.190365 -1.71043,0.02049 -0.42105,0.192763 -0.55597,0.386727 -0.55597,0.799287 0,0.587133 0.29974,0.76131 1.78108,1.034976 1.40697,0.259929 1.89257,0.463898 2.35493,0.989172 0.30899,0.351031 0.43876,0.743408 0.4365,1.319844 -0.005,1.265868 -1.07305,2.107848 -2.77917,2.190853 -0.29747,0.01447 -0.68847,0.0048 -0.86889,-0.02145 z"
     id="path13" />
  <path
     style="fill:#ffffff;stroke-width:0.0105433"
     d="m 94.252203,46.352166 c -0.74753,-0.0596 -1.284022,-0.286916 -1.748761,-0.740955 -0.331495,-0.323863 -0.600693,-0.743199 -0.792366,-1.234286 -0.14737,-0.377579 -0.24296,-0.793014 -0.289906,-1.259929 -0.0187,-0.185955 -0.02535,-0.756331 -0.0112,-0.959513 0.05965,-0.856194 0.286371,-1.558897 0.700726,-2.17186 0.498725,-0.73777 1.158543,-1.14606 2.009712,-1.243594 0.187459,-0.02148 0.581701,-0.02167 0.764457,-3.66e-4 0.726199,0.08465 1.253998,0.363639 1.705108,0.901302 0.2751,0.327882 0.486118,0.727496 0.609634,1.154496 0.03666,0.12674 0.09992,0.42394 0.11091,0.521095 0.0066,0.05818 0.0057,0.06147 -0.018,0.06716 -0.07906,0.01901 -1.150675,0.218933 -1.154263,0.215345 -0.0024,-0.0024 -0.01628,-0.07267 -0.0309,-0.156198 -0.133373,-0.762411 -0.42411,-1.237464 -0.893079,-1.45926 -0.180524,-0.08538 -0.369469,-0.127327 -0.624693,-0.138693 -0.383417,-0.01707 -0.719441,0.08617 -1.001618,0.307751 -0.151684,0.119111 -0.25721,0.240837 -0.366203,0.422424 -0.325396,0.54212 -0.461325,1.114945 -0.461353,1.944208 -1.8e-5,0.531942 0.04356,0.914501 0.14813,1.300322 0.07579,0.279625 0.180354,0.522449 0.320139,0.743416 0.25892,0.40929 0.641282,0.646044 1.107865,0.685977 0.134321,0.0115 0.369615,-2.63e-4 0.496404,-0.02481 0.629071,-0.121781 1.044262,-0.622996 1.259822,-1.520843 0.01698,-0.07072 0.03087,-0.150191 0.03087,-0.176601 0,-0.03127 0.0046,-0.0481 0.01318,-0.04824 0.0121,-2.05e-4 1.180407,0.202455 1.185913,0.205716 0.0013,7.88e-4 -0.0091,0.06044 -0.02324,0.13256 -0.151479,0.773987 -0.428684,1.333642 -0.884888,1.786523 -0.444971,0.441729 -1.000184,0.687887 -1.675351,0.742781 -0.123682,0.01006 -0.384626,0.01224 -0.487055,0.0041 z"
     id="path14" />
  <path
     style="fill:#ffffff;stroke-width:0.0105433"
     d="m 89.302104,42.537112 v -3.621638 h 0.595699 0.595699 v 0.05272 0.05272 h 0.04744 0.04744 v 3.568921 3.568921 h -0.643144 -0.643144 z"
     id="path15" />
  <path
     style="fill:#ffffff;stroke-width:0.0105433"
     d="m 84.81185,46.135027 c -0.0048,-0.01305 -0.584189,-1.636853 -1.287427,-3.608458 -0.703239,-1.971605 -1.280865,-3.590667 -1.283615,-3.597916 -0.004,-0.01046 0.142401,-0.01315 0.71044,-0.01302 l 0.71544,1.56e-4 0.938357,2.751434 c 0.516097,1.513289 0.94073,2.751435 0.943629,2.751436 0.0029,0 0.422788,-1.233716 0.933086,-2.741591 0.510298,-1.507876 0.930491,-2.746131 0.933763,-2.75168 0.0037,-0.0063 0.228677,-0.0091 0.596382,-0.0074 l 0.590434,0.0027 -1.249498,3.619002 -1.249497,3.619002 h -0.641341 -0.641341 z"
     id="path16" />
  <path
     style="fill:#ffffff;stroke-width:0.0105433"
     d="m 89.238844,37.160008 v -0.711676 h 0.6326 0.632601 v 0.05272 0.05272 h 0.05272 0.05272 v 0.658958 0.658959 h -0.685317 -0.685317 z"
     id="path17" />
  <path
     style="fill:#ffffff;stroke-width:0.0105433"
     d="m 79.180496,46.189893 v -0.03114 h -0.548254 -0.548254 v -3.621638 -3.621638 h 0.579803 0.579802 l 0.0027,0.640508 0.0027,0.640508 0.02733,-0.04744 c 0.01503,-0.02609 0.06185,-0.109123 0.104036,-0.184508 0.227552,-0.406594 0.491671,-0.724037 0.740538,-0.890049 0.213057,-0.142124 0.503785,-0.266092 0.746502,-0.318313 0.170957,-0.03678 0.603868,-0.03795 0.83556,-0.0022 l 0.03954,0.0061 v 0.619737 0.619736 l -0.297849,0.0045 c -0.32704,0.0049 -0.422046,0.01756 -0.629965,0.08397 -0.679177,0.216938 -1.199552,0.856606 -1.365172,1.678129 -0.06619,0.32832 -0.06208,0.183077 -0.06589,2.32884 l -0.0035,1.958425 h -0.0369 -0.0369 l 0.003,0.05417 0.003,0.05417 -0.0659,0.02969 -0.0659,0.02969 z"
     id="path18" />
  <path
     style="fill:#ffffff;stroke-width:0.0421734"
     d="m 73.431965,46.305342 c -0.692705,-0.09525 -1.269894,-0.374438 -1.740015,-0.841652 -0.752737,-0.748084 -1.09199,-1.639868 -1.09318,-2.873609 -9.69e-4,-1.004453 0.186535,-1.712331 0.633126,-2.390226 0.73448,-1.114888 1.952355,-1.650219 3.242215,-1.425152 0.929859,0.16225 1.634607,0.65823 2.086403,1.468346 0.280458,0.502888 0.446276,1.178172 0.512832,2.088468 l 0.02852,0.390103 H 74.5459 71.989934 v 0.270417 c 0,0.334754 0.08873,0.80844 0.214002,1.142391 0.181806,0.484677 0.774641,0.944725 1.380118,1.07099 0.893078,0.186239 1.675307,-0.216534 2.095974,-1.079227 0.109585,-0.224732 0.167284,-0.302702 0.203094,-0.274442 0.02751,0.02171 0.282502,0.0837 0.566645,0.137762 0.336862,0.06409 0.516624,0.116862 0.516624,0.151671 0,0.101098 -0.169961,0.484281 -0.320914,0.723508 -0.320318,0.507636 -0.952829,1.033135 -1.481685,1.231006 -0.522724,0.195576 -1.220155,0.280003 -1.73183,0.209646 z m 2.269228,-4.736743 c 0,-0.196562 -0.145543,-0.744934 -0.254283,-0.958084 -0.04993,-0.09788 -0.181468,-0.268637 -0.2923,-0.379469 -0.509164,-0.509164 -1.277877,-0.632916 -1.968238,-0.316859 -0.550129,0.251858 -0.948012,0.782233 -1.093692,1.457886 -0.03251,0.15077 -0.05944,0.28836 -0.05984,0.305757 -4.03e-4,0.0174 0.824811,0.03163 1.833809,0.03163 h 1.834541 z"
     id="path19" />
  <path
     style="fill:#ffffff;stroke-width:0.0421734"
     d="m 66.718266,46.320969 c -0.08118,-0.0077 -0.287152,-0.03486 -0.457707,-0.06028 -1.007451,-0.150142 -1.791179,-0.713891 -2.164449,-1.556924 -0.06676,-0.15077 -0.139844,-0.307081 -0.162417,-0.347358 -0.05489,-0.09795 -0.05191,-0.116549 0.0187,-0.116549 0.03286,0 0.06732,-0.02272 0.07657,-0.05049 0.0093,-0.02777 0.255779,-0.09957 0.547828,-0.159562 l 0.531,-0.109075 0.04976,0.170106 c 0.218666,0.747448 0.936353,1.158463 2.026293,1.160447 0.947827,0.0017 1.548838,-0.362326 1.5924,-0.964567 0.02421,-0.334638 -0.04477,-0.518419 -0.268453,-0.715317 -0.241549,-0.21262 -0.522597,-0.299918 -1.657707,-0.514914 -0.980138,-0.185643 -1.16249,-0.236107 -1.544638,-0.427468 -0.812586,-0.406902 -1.198568,-1.135768 -1.074468,-2.028962 0.116613,-0.839307 0.823716,-1.547693 1.770329,-1.77354 0.89086,-0.212545 2.035712,-0.07361 2.720182,0.330101 0.464856,0.274182 0.970628,0.94048 1.057479,1.393112 l 0.02428,0.126563 -0.477622,0.101028 c -0.262692,0.05556 -0.518601,0.109618 -0.568687,0.120119 -0.07461,0.01564 -0.106323,-0.0154 -0.175479,-0.171739 -0.103716,-0.234469 -0.38751,-0.548605 -0.617242,-0.683237 -0.537395,-0.314934 -1.581088,-0.296737 -2.07934,0.03626 -0.482129,0.322216 -0.516967,1.012398 -0.06612,1.310006 0.250198,0.165159 0.461061,0.223908 1.4644,0.408 1.346643,0.247082 1.757377,0.400997 2.226775,0.834443 0.602539,0.556389 0.779627,1.533677 0.417593,2.304549 -0.35075,0.746844 -1.237003,1.263704 -2.347409,1.369001 -0.451106,0.04278 -0.56152,0.04486 -0.861864,0.01625 z"
     id="path20" />
  <path
     style="fill:#ffffff;stroke-width:0.0421734"
     d="m 50.188861,46.304732 c -0.850944,-0.116519 -1.518711,-0.496619 -2.055935,-1.170261 -0.405678,-0.508692 -0.640948,-1.075596 -0.751921,-1.811815 -0.326166,-2.16385 0.691646,-4.022808 2.467914,-4.507467 0.195028,-0.05321 0.426242,-0.07463 0.801294,-0.07424 0.623887,6.6e-4 0.915854,0.06546 1.433895,0.318246 0.438849,0.214142 0.955879,0.704914 1.192589,1.132021 0.309859,0.559095 0.536519,1.501214 0.536519,2.230058 v 0.300344 h -2.557288 -2.557289 l 0.02919,0.369017 c 0.0597,0.75462 0.235859,1.242736 0.563768,1.562129 0.698942,0.680791 1.847822,0.788842 2.537656,0.238664 0.237103,-0.189102 0.47518,-0.504405 0.621408,-0.822978 0.07212,-0.157128 0.129766,-0.234706 0.158138,-0.212828 0.02455,0.01893 0.28187,0.07753 0.571812,0.130201 0.289942,0.05268 0.532658,0.1005 0.539369,0.106276 0.03709,0.03192 -0.228727,0.619468 -0.390051,0.862134 -0.412242,0.6201 -1.142104,1.117613 -1.886117,1.285677 -0.358775,0.08104 -0.923463,0.11021 -1.254955,0.06482 z m 2.25228,-4.795596 c -0.08857,-0.64064 -0.256466,-1.004858 -0.617142,-1.33878 -0.773925,-0.716519 -2.077015,-0.510918 -2.671517,0.421509 -0.167462,0.262651 -0.303104,0.622628 -0.340318,0.903164 l -0.02845,0.214431 h 1.842559 1.842558 z"
     id="path21" />
  <path
     style="fill:#ffffff;stroke-width:0.0421734"
     d="m 57.710496,46.28595 c -0.519308,-0.112992 -1.063167,-0.470722 -1.389425,-0.913912 l -0.18737,-0.254525 -0.0472,0.119972 c -0.13019,0.330912 -0.245163,0.703514 -0.226434,0.733819 0.05131,0.08303 -0.175921,0.166359 -0.453647,0.166359 h -0.28583 v -4.82885 -4.828851 h 0.632601 0.6326 v 1.690722 1.690722 l 0.163694,-0.207088 c 0.23809,-0.301207 0.49312,-0.508423 0.822332,-0.668159 0.388035,-0.188277 0.680661,-0.243294 1.164628,-0.218963 1.31337,0.06603 2.310114,1.032859 2.641993,2.562703 0.06113,0.281788 0.07769,0.53891 0.07739,1.201941 -3.25e-4,0.734058 -0.01265,0.892016 -0.09504,1.217736 -0.260468,1.029756 -0.873357,1.908886 -1.599434,2.294233 -0.52854,0.280509 -1.244208,0.374138 -1.85086,0.242141 z m 1.050519,-1.09992 c 0.461933,-0.16015 0.909501,-0.753779 1.085371,-1.439576 0.162973,-0.635506 0.150428,-1.693485 -0.0284,-2.395468 -0.175316,-0.68818 -0.58531,-1.235549 -1.057903,-1.412368 -0.671952,-0.25141 -1.426363,-0.01513 -1.915158,0.599823 -0.395466,0.497535 -0.458004,0.772741 -0.45863,2.018283 -4.32e-4,0.858077 0.0111,1.04024 0.08389,1.324827 0.101535,0.397001 0.234231,0.634363 0.493551,0.882851 0.496396,0.475662 1.179325,0.635871 1.797284,0.421628 z"
     id="path22" />
</svg>
