<?xml version="1.0" encoding="UTF-8" standalone="no"?>
<svg
   width="120"
   height="60"
   version="1.1"
   id="svg4"
   sodipodi:docname="cloudflare_logo.svg"
   inkscape:version="1.4.2 (ebf0e940d0, 2025-05-08)"
   xmlns:inkscape="http://www.inkscape.org/namespaces/inkscape"
   xmlns:sodipodi="http://sodipodi.sourceforge.net/DTD/sodipodi-0.dtd"
   xmlns="http://www.w3.org/2000/svg"
   xmlns:svg="http://www.w3.org/2000/svg">
  <defs
     id="defs4" />
  <sodipodi:namedview
     id="namedview4"
     pagecolor="#505050"
     bordercolor="#eeeeee"
     borderopacity="1"
     inkscape:showpageshadow="0"
     inkscape:pageopacity="0"
     inkscape:pagecheckerboard="0"
     inkscape:deskcolor="#505050"
     inkscape:zoom="16.766667"
     inkscape:cx="60"
     inkscape:cy="29.970179"
     inkscape:window-width="2560"
     inkscape:window-height="1368"
     inkscape:window-x="0"
     inkscape:window-y="0"
     inkscape:window-maximized="1"
     inkscape:current-layer="svg4" />
  <path
     d="M19.5 46.685h4.24v2.127h-6.68v-8.774h2.44zm6.756-2.235v-.03c0-2.518 2.033-4.567 4.74-4.567s4.708 2.018 4.708 4.536v.03c0 2.518-2.033 4.567-4.74 4.567s-4.708-2.018-4.708-4.536m6.976 0v-.03c0-1.267-.907-2.362-2.252-2.362-1.33 0-2.22 1.08-2.22 2.346v.03c0 1.267.907 2.362 2.237 2.362 1.345 0 2.237-1.08 2.237-2.346m5.466.515v-4.927h2.47v4.88c0 1.267.64 1.86 1.6 1.86s1.6-.58 1.6-1.8v-4.942h2.47V44.9c0 2.83-1.6 4.067-4.113 4.067-2.487 0-4.05-1.25-4.05-4.004m11.88-4.925h3.378c3.128 0 4.958 1.8 4.958 4.332v.03c0 2.534-1.846 4.4-5.005 4.4h-3.33v-8.774zm3.425 6.616c1.455 0 2.424-.798 2.424-2.22v-.03c0-1.408-.97-2.22-2.424-2.22h-.985v4.458h.985zm8.466-6.616h7.023v2.127h-4.598v1.502h4.16v2.018h-4.16v3.128H62.45zm12.825 6.647h4.254v2.127h-6.68v-8.774h2.424zm10.604-6.7h2.346l3.738 8.837h-2.6l-.64-1.564h-3.38l-.626 1.564h-2.55l3.722-8.837zm2.143 5.38l-.97-2.487-.985 2.487h1.955zm7.08-5.317h4.145c1.345 0 2.268.344 2.862.954.516.5.782 1.173.782 2.05v.03c0 1.345-.72 2.237-1.8 2.7l2.096 3.066h-2.815l-1.767-2.66H97.53v2.66H95.1v-8.8zm4.035 4.207c.83 0 1.298-.407 1.298-1.032v-.03c0-.688-.5-1.032-1.314-1.032h-1.595v2.096h1.6zm9.665 2.493h4.708v2.065h-7.116V40.04h7.054v2.065H108.8v1.33h4.207v1.924H108.8zM11.74 45.48c-.344.766-1.064 1.314-2.002 1.314-1.33 0-2.237-1.1-2.237-2.362v-.03c0-1.267.892-2.346 2.22-2.346 1 0 1.767.6 2.08 1.455h2.565c-.407-2.096-2.252-3.644-4.63-3.644-2.706 0-4.74 2.05-4.74 4.567v.03C5 46.982 7.002 49 9.708 49c2.315 0 4.13-1.502 4.598-3.504l-2.565-.016z"
     fill="#404041"
     id="path1" />
  <path
     d="M102.7 21.7l-27.45.188v13.936h35.316V26.04l-6.7-3.848z"
     fill="#fff"
     id="path2" />
  <path
     d="M98.343 34.532c.328-1.126.203-2.158-.344-2.925-.5-.704-1.345-1.1-2.362-1.157l-19.254-.25c-.125 0-.235-.063-.297-.156s-.078-.22-.047-.344a.53.53 0 0 1 .454-.344l19.426-.25c2.3-.1 4.802-1.97 5.678-4.254l1.1-2.894a.62.62 0 0 0 .031-.375c-1.25-5.662-6.303-9.885-12.34-9.885a12.65 12.65 0 0 0-11.98 8.587c-1.095-.813-2.487-1.25-3.988-1.1a5.7 5.7 0 0 0-5.083 5.083 5.97 5.97 0 0 0 .14 1.986 8.08 8.08 0 0 0-7.852 8.086 9.85 9.85 0 0 0 .078 1.173c.03.188.188.328.375.328h35.535c.203 0 .4-.14.454-.344l.266-.954z"
     fill="#f38020"
     id="path3" />
  <path
     d="M104.474 22.16l-.532.016c-.125 0-.235.094-.282.22l-.75 2.612c-.328 1.126-.203 2.158.344 2.925.5.704 1.345 1.1 2.362 1.157l4.098.25c.125 0 .235.063.297.156a.44.44 0 0 1 .047.344.53.53 0 0 1-.454.344l-4.27.25c-2.315.1-4.802 1.97-5.678 4.254l-.313.798c-.063.156.047.313.22.313h14.67c.172 0 .328-.1.375-.282a10.69 10.69 0 0 0 .391-2.847 10.54 10.54 0 0 0-10.526-10.511"
     fill="#faae40"
     id="path4" />
  <path
     style="fill:#ffffff;stroke-width:0.0596421"
     d="m 8.7077535,48.876806 c -2.8408178,-0.57295 -4.4177458,-3.461047 -3.3481959,-6.132122 0.6913537,-1.726573 2.4022886,-2.844088 4.3543513,-2.844088 2.0966281,0 3.8350681,1.194363 4.4840591,3.080689 0.06388,0.185673 0.116147,0.373645 0.116147,0.417714 0,0.06452 -0.243111,0.08013 -1.248301,0.08013 h -1.2483 L 11.682198,43.208183 C 11.510114,42.863619 11.003051,42.382178 10.633644,42.212614 10.398221,42.104551 10.23765,42.081113 9.72167,42.079497 c -0.5654472,-0.0018 -0.6588195,0.01404 -0.9618124,0.162897 -1.1165108,0.548522 -1.5943691,2.032298 -1.0426359,3.237442 0.2069962,0.452139 0.4145592,0.705214 0.7741504,0.943897 1.0592818,0.703111 2.4981869,0.399313 3.1179929,-0.658307 l 0.151472,-0.258468 h 1.246818 c 0.68575,0 1.246818,0.02264 1.246818,0.05031 0,0.133745 -0.261789,0.785259 -0.456686,1.136554 -0.265151,0.477925 -1.097805,1.322354 -1.586561,1.608997 -0.981146,0.575417 -2.3690062,0.802797 -3.5034725,0.573992 z"
     id="path5" />
  <path
     style="fill:#ffffff;stroke-width:0.0596421"
     d="m 17.057654,44.4334 v -4.353877 h 1.222664 1.222664 v 3.310139 3.310139 h 2.117296 2.117297 v 1.043738 1.043737 h -3.339961 -3.33996 z"
     id="path6" />
  <path
     style="fill:#ffffff;stroke-width:0.0596421"
     d="m 30.16049,48.905074 c -1.005432,-0.158872 -1.975785,-0.676631 -2.689016,-1.4348 -1.275761,-1.356143 -1.542523,-3.371677 -0.678223,-5.12435 0.20232,-0.410275 0.352793,-0.609331 0.789009,-1.043752 1.06027,-1.055908 2.079385,-1.444569 3.63969,-1.388074 0.671411,0.02431 0.852467,0.05392 1.342662,0.219577 1.590096,0.537357 2.677745,1.748406 3.021808,3.364649 0.126467,0.594084 0.07866,1.652637 -0.100139,2.217382 -0.608663,1.92247 -2.256674,3.150518 -4.323259,3.221561 -0.360835,0.01241 -0.811975,-0.0021 -1.002532,-0.03219 z m 1.518118,-2.205547 c 0.978119,-0.308519 1.559264,-1.154612 1.556506,-2.266127 -0.0022,-0.884593 -0.366048,-1.595088 -1.039905,-2.030623 -0.87251,-0.56393 -2.046687,-0.447082 -2.769362,0.275593 -0.953596,0.953596 -0.892842,2.700646 0.124995,3.594319 0.584285,0.513008 1.360751,0.66877 2.127766,0.426838 z"
     id="path7" />
  <path
     style="fill:#ffffff;stroke-width:0.0596421"
     d="M 42.06123,48.90226 C 40.654938,48.76635 39.639097,48.124183 39.125819,47.046633 38.739375,46.23535 38.707753,45.913039 38.707753,42.785428 v -2.705905 h 1.21989 1.21989 l 0.01769,2.758449 c 0.01767,2.756083 0.01781,2.758718 0.15901,3.071072 0.165153,0.365335 0.493149,0.68386 0.820064,0.796387 0.334916,0.115282 0.954668,0.103842 1.285396,-0.02373 0.161137,-0.06215 0.379478,-0.216905 0.517876,-0.36705 0.417318,-0.452736 0.426193,-0.526915 0.426193,-3.562061 v -2.673071 h 1.226295 1.226296 l -0.02137,2.877733 c -0.02025,2.726492 -0.02811,2.901892 -0.149638,3.337388 -0.347694,1.245976 -1.085686,2.040659 -2.231111,2.402499 -0.381363,0.120473 -1.575615,0.292613 -1.809914,0.260883 -0.0328,-0.0044 -0.281691,-0.02954 -0.553084,-0.05577 z"
     id="path8" />
  <path
     style="fill:#ffffff;stroke-width:0.0596421"
     d="m 50.576541,44.435076 v -4.364407 l 2.251491,0.02335 c 2.123124,0.02202 2.280395,0.03119 2.758449,0.160682 1.374448,0.372313 2.334022,1.110427 2.846813,2.189797 0.280653,0.590744 0.371683,0.962973 0.413726,1.691761 0.115367,1.999796 -0.969549,3.65421 -2.816872,4.295514 -0.822622,0.285576 -1.029972,0.306867 -3.291579,0.337971 l -2.162028,0.02973 z m 4.324055,2.103554 c 1.035999,-0.315609 1.573134,-1.115678 1.506611,-2.244113 -0.03782,-0.641623 -0.208379,-1.076941 -0.562776,-1.436416 -0.513538,-0.520896 -1.042853,-0.691103 -2.149208,-0.691103 h -0.732996 v 2.234258 2.234259 l 0.521868,0.01752 c 0.699185,0.02347 1.059405,-0.0056 1.416501,-0.114406 z"
     id="path9" />
  <path
     style="fill:#ffffff;stroke-width:0.0596421"
     d="m 62.445328,44.4334 v -4.353877 h 3.489066 3.489065 v 1.043737 1.043738 H 67.125455 64.82745 l 0.01669,0.760437 0.01669,0.760438 2.072565,0.01568 2.072564,0.01568 v 0.983322 0.983323 h -2.087475 -2.087475 v 1.550696 1.550695 h -1.192843 -1.192843 z"
     id="path10" />
  <path
     style="fill:#ffffff;stroke-width:0.0596421"
     d="m 72.882704,44.4334 v -4.353877 h 1.192843 1.192843 v 3.310139 3.310139 h 2.117296 2.117296 v 1.043738 1.043737 h -3.310139 -3.310139 z"
     id="path11" />
  <path
     style="fill:#ffffff;stroke-width:0.0596421"
     d="m 84.043352,44.424118 c 1.012737,-2.401018 1.84134,-4.374773 1.84134,-4.386123 0,-0.01135 0.527676,-0.01336 1.172613,-0.0045 l 1.172613,0.01617 0.175461,0.417495 c 0.452008,1.075515 1.203985,2.855232 2.280634,5.397614 0.645955,1.525348 1.188151,2.806909 1.20488,2.847913 0.02377,0.05827 -0.248342,0.07455 -1.245689,0.07455 h -1.276106 l -0.316562,-0.775348 -0.316562,-0.775347 -1.708941,4.74e-4 -1.708942,4.76e-4 -0.300758,0.759962 -0.300759,0.759962 -1.257281,0.01608 -1.257281,0.01608 z m 3.988457,0.934417 c 0,-0.05856 -0.913764,-2.387852 -0.955281,-2.43512 -0.03643,-0.04147 -1.013489,2.292076 -1.01306,2.419527 8.3e-5,0.0246 0.442993,0.04473 0.984246,0.04473 0.541252,0 0.984095,-0.01311 0.984095,-0.02914 z"
     id="path12" />
  <path
     style="fill:#ffffff;stroke-width:0.0596421"
     d="m 95.129225,44.458762 v -4.388156 l 2.579523,0.02354 c 2.829812,0.02582 2.892442,0.03286 3.661182,0.411309 0.36333,0.178869 0.86204,0.622346 1.09716,0.975658 0.16378,0.246105 0.33545,0.819817 0.384,1.283307 0.12331,1.177169 -0.49092,2.356838 -1.48587,2.853742 -0.14948,0.07465 -0.27178,0.156662 -0.27178,0.182242 0,0.02558 0.0755,0.151183 0.16769,0.279116 0.28903,0.400915 1.86014,2.717934 1.86014,2.743274 0,0.01327 -0.61323,0.02412 -1.36274,0.02412 h -1.36274 l -0.888751,-1.340519 -0.888749,-1.34052 -0.55169,-0.0014 -0.551689,-0.0014 v 1.341948 1.341948 h -1.192843 -1.192843 z m 4.787457,-0.345837 c 0.367698,-0.18272 0.490868,-0.411757 0.490868,-0.912726 0,-0.514868 -0.10436,-0.694416 -0.526734,-0.906187 -0.254801,-0.127753 -0.382374,-0.14439 -1.323938,-0.172662 l -1.041967,-0.03128 v 1.085892 1.085893 l 1.088469,-0.0186 c 0.919238,-0.01571 1.123425,-0.03597 1.313302,-0.130326 z"
     id="path13" />
  <path
     style="fill:#ffffff;stroke-width:0.0596421"
     d="m 106.40159,44.4334 v -4.353877 h 3.51889 3.51888 v 1.013916 1.013917 h -2.32604 -2.32604 v 0.685885 0.685884 h 2.08747 2.08748 v 0.924454 0.924453 h -2.08748 -2.08747 v 0.715706 0.715705 h 2.35586 2.35587 v 1.013917 1.013916 h -3.54871 -3.54871 z"
     id="path14" />
</svg>
