<?xml version="1.0" encoding="UTF-8" standalone="no"?>
<svg
   width="120"
   height="60"
   viewBox="0 0 120 60"
   fill="none"
   version="1.1"
   id="svg30"
   sodipodi:docname="fdroid_logo.svg"
   inkscape:version="1.4.2 (ebf0e940d0, 2025-05-08)"
   xmlns:inkscape="http://www.inkscape.org/namespaces/inkscape"
   xmlns:sodipodi="http://sodipodi.sourceforge.net/DTD/sodipodi-0.dtd"
   xmlns="http://www.w3.org/2000/svg"
   xmlns:svg="http://www.w3.org/2000/svg">
  <sodipodi:namedview
     id="namedview30"
     pagecolor="#505050"
     bordercolor="#eeeeee"
     borderopacity="1"
     inkscape:showpageshadow="0"
     inkscape:pageopacity="0"
     inkscape:pagecheckerboard="0"
     inkscape:deskcolor="#505050"
     showgrid="false"
     inkscape:zoom="16.766667"
     inkscape:cx="60"
     inkscape:cy="29.970179"
     inkscape:window-width="2560"
     inkscape:window-height="1368"
     inkscape:window-x="0"
     inkscape:window-y="0"
     inkscape:window-maximized="1"
     inkscape:current-layer="svg30" />
  <path
     d="M43.5766 37.2788L45.206 36.9634V25.9782L43.5766 25.6628V23.8127H55.7602V28.007H53.4055L53.2688 26.1779H48.2755V30.3933H53.6367V32.7585H48.2755V36.9634L49.9154 37.2788V39.1184H43.5766V37.2788Z"
     fill="#4D4D4D"
     id="path1" />
  <path
     d="M63.5812 33.7572H57.6524V31.392H63.5812V33.7572Z"
     fill="#4D4D4D"
     id="path2" />
  <path
     d="M72.3274 23.8127C74.1985 23.8127 75.7403 24.4119 76.9527 25.6103C78.1651 26.8016 78.7713 28.3329 78.7713 30.2041V32.7375C78.7713 34.6157 78.1651 36.1505 76.9527 37.3419C75.7403 38.5262 74.1985 39.1184 72.3274 39.1184H65.4419V37.2788L67.0713 36.9634V25.9782L65.4419 25.6628V23.8127H72.3274ZM70.1408 26.1779V36.7637H72.1697C73.27 36.7637 74.132 36.3923 74.7557 35.6494C75.3794 34.9065 75.6913 33.9359 75.6913 32.7375V30.1831C75.6913 28.9987 75.3794 28.0351 74.7557 27.2922C74.132 26.5494 73.27 26.1779 72.1697 26.1779H70.1408Z"
     fill="#4D4D4D"
     id="path3" />
  <path
     d="M80.5899 37.2788L82.0616 36.9634V29.9097L80.4322 29.5943V27.7442H84.9209L85.0576 29.4051C85.3239 28.8164 85.6673 28.3574 86.0878 28.0281C86.5083 27.6987 86.9953 27.534 87.549 27.534C87.7102 27.534 87.8784 27.548 88.0536 27.576C88.2358 27.597 88.3864 27.6251 88.5056 27.6601L88.1797 30.4563L86.9183 30.4248C86.4697 30.4248 86.0983 30.5124 85.804 30.6876C85.5096 30.8628 85.2854 31.1116 85.1312 31.434V36.9634L86.6029 37.2788V39.1184H80.5899V37.2788Z"
     fill="#4D4D4D"
     id="path4" />
  <path
     d="M89.2309 33.3262C89.2309 31.6302 89.704 30.2426 90.6501 29.1634C91.6032 28.0771 92.9172 27.534 94.5921 27.534C96.2741 27.534 97.5881 28.0736 98.5342 29.1528C99.4873 30.2321 99.9638 31.6232 99.9638 33.3262V33.547C99.9638 35.2569 99.4873 36.6515 98.5342 37.7308C97.5881 38.803 96.2811 39.3391 94.6131 39.3391C92.9242 39.3391 91.6032 38.803 90.6501 37.7308C89.704 36.6515 89.2309 35.2569 89.2309 33.547V33.3262ZM92.3005 33.547C92.3005 34.5841 92.4827 35.4181 92.8471 36.0488C93.2115 36.6725 93.8002 36.9844 94.6131 36.9844C95.4051 36.9844 95.9832 36.6691 96.3476 36.0383C96.7191 35.4076 96.9048 34.5771 96.9048 33.547V33.3262C96.9048 32.317 96.7191 31.4936 96.3476 30.8558C95.9762 30.2181 95.3911 29.8992 94.5921 29.8992C93.7932 29.8992 93.2115 30.2181 92.8471 30.8558C92.4827 31.4936 92.3005 32.317 92.3005 33.3262V33.547Z"
     fill="#4D4D4D"
     id="path5" />
  <path
     d="M101.204 37.2788L102.686 36.9634V29.9097L101.047 29.5943V27.7442H105.756V36.9634L107.228 37.2788V39.1184H101.204V37.2788ZM105.756 25.0216H102.686V22.7194H105.756V25.0216Z"
     fill="#4D4D4D"
     id="path6" />
  <path
     d="M115.637 37.7308C115.28 38.2564 114.856 38.6558 114.365 38.9292C113.882 39.2025 113.328 39.3391 112.705 39.3391C111.303 39.3391 110.213 38.8275 109.435 37.8044C108.664 36.7812 108.279 35.4286 108.279 33.7467V33.5259C108.279 31.7318 108.668 30.2846 109.446 29.1844C110.224 28.0841 111.317 27.534 112.726 27.534C113.293 27.534 113.805 27.6601 114.26 27.9124C114.716 28.1577 115.115 28.5081 115.459 28.9636V24.8849L113.819 24.5696V22.7194H118.528V36.9634L120 37.2788V39.1184H115.869L115.637 37.7308ZM111.348 33.7467C111.348 34.7418 111.513 35.5267 111.843 36.1014C112.179 36.6691 112.726 36.9529 113.482 36.9529C113.931 36.9529 114.32 36.8617 114.649 36.6795C114.979 36.4973 115.249 36.2345 115.459 35.8911V31.066C115.249 30.7016 114.979 30.4213 114.649 30.2251C114.327 30.0219 113.945 29.9202 113.503 29.9202C112.754 29.9202 112.207 30.2531 111.864 30.9189C111.52 31.5847 111.348 32.4537 111.348 33.5259V33.7467Z"
     fill="#4D4D4D"
     id="path7" />
  <path
     fill-rule="evenodd"
     clip-rule="evenodd"
     d="M35.1241 13.0071L31.7377 17.3894Z"
     fill="#8AB000"
     id="path8" />
  <path
     fill-rule="evenodd"
     clip-rule="evenodd"
     d="M35.1063 12.0089C35.4676 12.0185 35.7132 12.1595 35.8877 12.3663C34.2727 14.2857 34.0006 14.5907 31.7958 17.3235C30.9835 18.3745 30.1372 17.8313 30.9496 16.7803L34.3359 12.398C34.5184 12.1545 34.8021 12.0171 35.1063 12.0089Z"
     fill="white"
     fill-opacity="0.298039"
     id="path9" />
  <path
     fill-rule="evenodd"
     clip-rule="evenodd"
     d="M35.8945 12.3763C35.9932 12.4942 36.3416 13.0174 35.9124 13.6163L32.526 17.9986C31.7137 19.0496 31.6098 17.5107 31.6098 17.5107C31.6098 17.5107 34.5854 13.9172 35.8945 12.3763Z"
     fill="#263238"
     fill-opacity="0.2"
     id="path10" />
  <path
     fill-rule="evenodd"
     clip-rule="evenodd"
     d="M35.3241 12.1961C35.6733 12.1961 36.0889 12.3089 35.9809 12.8324C35.8983 13.2321 32.2672 17.6724 32.2672 17.6724C31.4548 18.7233 30.2804 18.2113 31.0927 17.1605L34.4666 12.7999C34.674 12.5688 34.9515 12.2074 35.3241 12.1961Z"
     fill="#8AB000"
     id="path11" />
  <path
     fill-rule="evenodd"
     clip-rule="evenodd"
     d="M1.00403 13.0071L4.39039 17.3894Z"
     fill="#8AB000"
     id="path12" />
  <path
     fill-rule="evenodd"
     clip-rule="evenodd"
     d="M1.02186 12.0089C0.660545 12.0185 0.414946 12.1595 0.24041 12.3663C1.85545 14.2857 2.12753 14.5907 4.3323 17.3235C5.14466 18.3745 5.99091 17.8313 5.17855 16.7803L1.79219 12.398C1.60974 12.1545 1.32601 12.0171 1.02186 12.0089Z"
     fill="white"
     fill-opacity="0.298039"
     id="path13" />
  <path
     fill-rule="evenodd"
     clip-rule="evenodd"
     d="M0.23366 12.3763C0.134943 12.4942 -0.213479 13.0174 0.215741 13.6163L3.6021 17.9986C4.41445 19.0496 4.51831 17.5107 4.51831 17.5107C4.51831 17.5107 1.54273 13.9172 0.23366 12.3763Z"
     fill="#263238"
     fill-opacity="0.2"
     id="path14" />
  <path
     fill-rule="evenodd"
     clip-rule="evenodd"
     d="M0.803989 12.1961C0.454856 12.1961 0.039181 12.3089 0.147261 12.8324C0.229777 13.2321 3.86096 17.6724 3.86096 17.6724C4.67331 18.7233 5.84773 18.2113 5.03538 17.1605L1.66147 12.7999C1.45412 12.5688 1.17661 12.2074 0.803989 12.1961Z"
     fill="#8AB000"
     id="path15" />
  <path
     d="M30.8128 15.7959H5.31551C3.99534 15.7959 2.92514 16.8661 2.92514 18.1862V23.7637C2.92514 25.0839 3.99534 26.1541 5.31551 26.1541H30.8128C32.133 26.1541 33.2032 25.0839 33.2032 23.7637V18.1862C33.2032 16.8661 32.133 15.7959 30.8128 15.7959Z"
     fill="#AEEA00"
     id="path16" />
  <path
     d="M30.8128 18.1862H5.31551C3.99534 18.1862 2.92514 19.2564 2.92514 20.5766L2.92514 23.7637C2.92514 25.0839 3.99534 26.1541 5.31551 26.1541H30.8128C32.133 26.1541 33.2032 25.0839 33.2032 23.7637V20.5766C33.2032 19.2564 32.133 18.1862 30.8128 18.1862Z"
     fill="#263238"
     fill-opacity="0.2"
     id="path17" />
  <path
     d="M30.8128 15.7959H5.31551C3.99534 15.7959 2.92514 16.8661 2.92514 18.1862V21.3734C2.92514 22.6935 3.99534 23.7637 5.31551 23.7637H30.8128C32.133 23.7637 33.2032 22.6935 33.2032 21.3734V18.1862C33.2032 16.8661 32.133 15.7959 30.8128 15.7959Z"
     fill="white"
     fill-opacity="0.298039"
     id="path18" />
  <path
     d="M30.8128 16.5927H5.31551C3.99534 16.5927 2.92514 17.4982 2.92514 18.6153V23.3347C2.92514 24.4518 3.99534 25.3573 5.31551 25.3573H30.8128C32.133 25.3573 33.2032 24.4518 33.2032 23.3347V18.6153C33.2032 17.4982 32.133 16.5927 30.8128 16.5927Z"
     fill="#AEEA00"
     id="path19" />
  <path
     d="M30.8128 26.9509H5.31551C3.99534 26.9509 2.92514 28.0211 2.92514 29.3412V45.277C2.92514 46.5971 3.99534 47.6673 5.31551 47.6673H30.8128C32.133 47.6673 33.2032 46.5971 33.2032 45.277V29.3412C33.2032 28.0211 32.133 26.9509 30.8128 26.9509Z"
     fill="#1976D2"
     id="path20" />
  <path
     d="M30.8128 37.3091H5.31551C3.99534 37.3091 2.92514 38.3793 2.92514 39.6995L2.92514 45.277C2.92514 46.5971 3.99534 47.6673 5.31551 47.6673H30.8128C32.133 47.6673 33.2032 46.5971 33.2032 45.277V39.6995C33.2032 38.3793 32.133 37.3091 30.8128 37.3091Z"
     fill="#263238"
     fill-opacity="0.2"
     id="path21" />
  <path
     d="M30.8128 26.9509H5.31551C3.99534 26.9509 2.92514 28.0211 2.92514 29.3412V34.9187C2.92514 36.2389 3.99534 37.3091 5.31551 37.3091H30.8128C32.133 37.3091 33.2032 36.2389 33.2032 34.9187V29.3412C33.2032 28.0211 32.133 26.9509 30.8128 26.9509Z"
     fill="white"
     fill-opacity="0.2"
     id="path22" />
  <path
     d="M30.8128 27.7477H5.31551C3.99534 27.7477 2.92514 28.7356 2.92514 29.9542V44.6641C2.92514 45.8827 3.99534 46.8705 5.31551 46.8705H30.8128C32.133 46.8705 33.2032 45.8827 33.2032 44.6641V29.9542C33.2032 28.7356 32.133 27.7477 30.8128 27.7477Z"
     fill="#1976D2"
     id="path23" />
  <path
     d="M18.0641 32.3291C15.7689 32.3291 13.8254 33.9105 13.257 36.0345H15.817C16.2586 35.2494 17.0879 34.7195 18.0641 34.7195C19.5085 34.7195 20.6537 35.8647 20.6537 37.3091C20.6537 38.7534 19.5085 39.8986 18.0641 39.8986C17.0224 39.8986 16.1429 39.2989 15.7298 38.4249H13.2165C13.7282 40.6286 15.712 42.289 18.0641 42.289C20.8003 42.289 23.0441 40.0452 23.0441 37.3091C23.0441 34.5729 20.8003 32.3291 18.0641 32.3291Z"
     fill="#0D47A1"
     id="path24" />
  <path
     d="M10.395 24.1621C11.8802 24.1621 13.0842 22.7798 13.0842 21.0746C13.0842 19.3694 11.8802 17.987 10.395 17.987C8.90986 17.987 7.70588 19.3694 7.70588 21.0746C7.70588 22.7798 8.90986 24.1621 10.395 24.1621Z"
     fill="#263238"
     fill-opacity="0.2"
     id="path25" />
  <path
     d="M10.395 24.1621C11.8802 24.1621 13.0842 22.9582 13.0842 21.473C13.0842 19.9878 11.8802 18.7838 10.3951 18.7838C8.90987 18.7838 7.70589 19.9878 7.70589 21.473C7.70589 22.9582 8.90986 24.1621 10.395 24.1621Z"
     fill="white"
     id="path26" />
  <path
     d="M25.9325 24.1621C27.4176 24.1621 28.6216 22.7798 28.6216 21.0746C28.6216 19.3694 27.4176 17.987 25.9325 17.987C24.4473 17.987 23.2433 19.3694 23.2433 21.0746C23.2433 22.7798 24.4473 24.1621 25.9325 24.1621Z"
     fill="#263238"
     fill-opacity="0.2"
     id="path27" />
  <path
     d="M25.9325 24.1621C27.4176 24.1621 28.6216 22.9582 28.6216 21.473C28.6216 19.9878 27.4176 18.7838 25.9325 18.7838C24.4473 18.7838 23.2433 19.9878 23.2433 21.473C23.2433 22.9582 24.4473 24.1621 25.9325 24.1621Z"
     fill="white"
     id="path28" />
  <path
     fill-rule="evenodd"
     clip-rule="evenodd"
     d="M1.02358 12.0004C0.833796 11.9951 0.646469 12.0442 0.483664 12.1419C0.320858 12.2396 0.189356 12.3818 0.104646 12.5517C0.0199372 12.7216 -0.0144505 12.9121 0.0055347 13.1009C0.0255199 13.2897 0.0990451 13.4689 0.21745 13.6173L3.08869 17.3336C2.98751 17.599 2.92685 17.8846 2.92685 18.1864V23.7639C2.92685 25.0882 3.99295 26.1543 5.31722 26.1543H30.8145C32.1388 26.1543 33.2049 25.0882 33.2049 23.7639V18.1864C33.2049 17.8834 33.1434 17.5968 33.0415 17.3305L35.9112 13.6173C36.031 13.4669 36.1048 13.2851 36.1236 13.0937C36.1423 12.9023 36.1053 12.7095 36.0169 12.5387C35.9286 12.3679 35.7927 12.2264 35.6256 12.1311C35.4585 12.0359 35.2675 11.991 35.0755 12.002C34.9305 12.0102 34.7891 12.0499 34.6612 12.1185C34.5332 12.187 34.4218 12.2827 34.3347 12.3988L31.6004 15.9376C31.3532 15.8517 31.0917 15.7961 30.8145 15.7961H5.31722C5.03948 15.7961 4.77734 15.851 4.52977 15.9376L1.79391 12.3988C1.70385 12.2786 1.58777 12.1803 1.45438 12.1114C1.32098 12.0424 1.17371 12.0044 1.02358 12.0004ZM5.31722 26.9511C5.15168 26.9511 4.99067 26.9677 4.83478 26.9996C3.74357 27.2196 2.92685 28.1708 2.92685 29.3184V45.277C2.92685 46.6012 3.99295 47.6673 5.31722 47.6673H30.8145C32.1388 47.6673 33.2049 46.6012 33.2049 45.277V29.3182C33.2049 28.1706 32.3881 27.2194 31.2969 26.9994C31.141 26.9683 30.98 26.9508 30.8145 26.9508L5.31722 26.9511Z"
     fill="url(#paint0_radial_5_97)"
     id="path29" />
  <defs
     id="defs30">
    <radialGradient
       id="paint0_radial_5_97"
       cx="0"
       cy="0"
       r="1"
       gradientUnits="userSpaceOnUse"
       gradientTransform="translate(0.00200608 12.0011) rotate(90) scale(35.6723 38.2459)">
      <stop
         stop-color="white"
         stop-opacity="0.0980392"
         id="stop29" />
      <stop
         offset="1"
         stop-color="white"
         stop-opacity="0"
         id="stop30" />
    </radialGradient>
  </defs>
  <path
     style="fill:#ffffff;stroke-width:0.0596421"
     d="m 43.59841,38.200795 c 0,-0.508449 0.0067,-0.924599 0.01491,-0.924778 0.0082,-1.78e-4 0.362681,-0.06728 0.787733,-0.149105 0.425053,-0.08183 0.780809,-0.148781 0.790569,-0.148781 0.0098,0 0.0109,-2.475894 0.0025,-5.501988 l -0.01522,-5.501988 -0.656063,-0.13386 c -0.360835,-0.07362 -0.716451,-0.147942 -0.790259,-0.165152 -0.132038,-0.03079 -0.134194,-0.04613 -0.134194,-0.954609 v -0.923317 h 6.083499 6.083499 v 2.117296 2.117296 h -1.159502 c -0.637726,0 -1.172719,-0.02138 -1.188872,-0.04752 -0.01615,-0.02614 -0.04588,-0.354914 -0.06606,-0.730616 -0.02018,-0.375702 -0.05002,-0.770321 -0.06632,-0.876931 L 53.255,26.182905 h -2.472446 -2.472447 v 2.117296 2.117296 h 2.654076 2.654075 v 1.163022 1.163022 h -2.652597 -2.652597 l -0.01639,2.111452 -0.01639,2.111451 0.536779,0.10143 c 0.295229,0.05579 0.664265,0.127739 0.82008,0.159893 l 0.2833,0.05846 v 0.919511 0.919512 h -3.161 -3.161033 z"
     id="path30" />
  <path
     style="fill:#ffffff;stroke-width:0.0596421"
     d="m 57.673956,32.564612 v -1.192843 h 2.952287 2.952286 v 1.192843 1.192843 h -2.952286 -2.952287 z"
     id="path31" />
  <path
     style="fill:#ffffff;stroke-width:0.0596421"
     d="m 65.427435,38.213575 v -0.91859 l 0.521869,-0.104996 c 0.287028,-0.05775 0.656064,-0.13575 0.82008,-0.173337 l 0.29821,-0.06834 0.01522,-5.473919 c 0.01209,-4.347835 -1.78e-4,-5.479682 -0.05964,-5.501932 -0.04118,-0.01541 -0.410352,-0.09012 -0.820392,-0.166024 l -0.745527,-0.13801 -0.01645,-0.940059 -0.01645,-0.940059 3.982651,0.02279 3.98265,0.02279 0.685885,0.183752 c 0.78815,0.211149 1.438642,0.493521 1.973252,0.856567 0.494586,0.335868 1.260114,1.072564 1.576824,1.517438 0.579731,0.814332 0.97966,1.902101 1.096401,2.982107 0.07236,0.669423 0.07221,3.651827 -2.14e-4,4.294235 -0.178249,1.581044 -0.982165,3.057293 -2.200935,4.041626 -0.786624,0.635312 -1.47824,0.967866 -2.594434,1.247496 -0.525553,0.131662 -0.620039,0.134899 -4.517892,0.154763 l -3.981114,0.02029 z m 7.691133,-1.562005 c 1.178192,-0.313543 2.004795,-1.169155 2.393592,-2.477594 0.122708,-0.412954 0.134572,-0.596192 0.158603,-2.449568 0.02776,-2.140909 -0.01434,-2.632584 -0.288062,-3.364168 -0.262461,-0.70149 -0.856761,-1.416323 -1.461035,-1.757354 -0.596367,-0.336568 -1.023878,-0.408211 -2.485284,-0.416483 l -1.297217,-0.0073 v 5.280251 5.280251 l 1.327038,-7.08e-4 c 0.968824,-5.17e-4 1.414855,-0.02408 1.652365,-0.08729 z"
     id="path32" />
  <path
     style="fill:#ffffff;stroke-width:0.0596421"
     d="m 80.576541,38.205737 v -0.919511 l 0.313121,-0.0655 c 0.172217,-0.03602 0.507916,-0.108085 0.745997,-0.160139 l 0.432876,-0.09464 -0.01538,-3.527706 -0.01538,-3.527705 -0.775348,-0.155183 -0.775347,-0.155182 -0.01642,-0.933287 -0.01643,-0.933287 h 2.232741 2.232741 l 0.04067,0.521869 c 0.02237,0.287028 0.04962,0.575547 0.06056,0.641153 0.01094,0.06561 0.02196,0.199801 0.02448,0.298211 0.0043,0.168624 0.01676,0.158737 0.216024,-0.171724 0.333198,-0.552578 0.499051,-0.743224 0.887214,-1.019839 0.500863,-0.35693 0.928225,-0.471768 1.611202,-0.432954 0.297185,0.01689 0.585154,0.04916 0.639931,0.07172 0.113039,0.04655 0.113847,0.03156 -0.09502,1.761543 l -0.126014,1.043737 -0.718513,-0.02143 c -1.171729,-0.03494 -1.662486,0.12642 -2.127245,0.699452 l -0.223658,0.275762 v 2.778559 2.778559 l 0.641153,0.13347 c 0.352634,0.07341 0.688121,0.146795 0.745527,0.16308 0.09361,0.02656 0.104374,0.124482 0.104374,0.950045 v 0.920434 H 83.588468 80.57654 Z"
     id="path33" />
  <path
     style="fill:#ffffff;stroke-width:0.0596421"
     d="m 93.966203,39.302607 c -2.436488,-0.212917 -4.06828,-1.749493 -4.622004,-4.352309 -0.09143,-0.42976 -0.12751,-2.06379 -0.05722,-2.591442 0.213726,-1.604495 0.946324,-2.98707 2.009587,-3.792538 0.482195,-0.365283 1.07602,-0.659337 1.685545,-0.83466 0.677587,-0.194899 2.09724,-0.229969 2.865763,-0.07079 1.095169,0.226831 1.762062,0.581447 2.502031,1.330438 0.749296,0.758433 1.192639,1.587963 1.438281,2.691142 0.161834,0.726791 0.203875,2.413846 0.07772,3.118747 -0.389465,2.17616 -1.625358,3.714535 -3.424549,4.262701 -0.833935,0.254077 -1.530532,0.32126 -2.475149,0.238713 z m 1.254398,-2.402392 c 0.659165,-0.173338 1.124976,-0.677518 1.415805,-1.532422 0.414989,-1.219878 0.340254,-3.193862 -0.160836,-4.2482 -0.320473,-0.674305 -0.739407,-1.014432 -1.425729,-1.157535 -0.697981,-0.145533 -1.362712,0.0113 -1.827441,0.431153 -0.547577,0.494704 -0.823951,1.34066 -0.920735,2.818287 -0.01555,0.237378 0.06387,1.39461 0.113184,1.649337 0.217991,1.125909 0.788249,1.855268 1.610996,2.060462 0.291788,0.07277 0.877128,0.06244 1.194756,-0.02108 z"
     id="path34" />
  <path
     style="fill:#ffffff;stroke-width:0.0596421"
     d="m 101.21272,38.206782 v -0.918466 l 0.46223,-0.09956 c 0.25422,-0.05476 0.583,-0.132158 0.73062,-0.171998 l 0.26839,-0.07244 v -3.516891 -3.516891 l -0.74553,-0.142325 c -0.41004,-0.07828 -0.77908,-0.151243 -0.82008,-0.162144 -0.0556,-0.01478 -0.0746,-0.255416 -0.0746,-0.946144 v -0.926326 h 2.35586 2.35587 v 4.617325 4.617324 l 0.31312,0.0655 c 0.17221,0.03602 0.5077,0.108038 0.74552,0.160034 l 0.43241,0.09454 v 0.918466 0.918467 h -3.01193 -3.01193 z"
     id="path35" />
  <path
     style="fill:#ffffff;stroke-width:0.0596421"
     d="m 102.70378,23.88668 v -1.163022 h 1.52087 1.52088 v 1.163022 1.163022 h -1.52088 -1.52087 z"
     id="path36" />
  <path
     style="fill:#ffffff;stroke-width:0.0596421"
     d="m 112.10098,39.297833 c -1.99481,-0.219948 -3.36955,-1.786202 -3.73741,-4.258072 -0.0699,-0.469971 -0.0828,-2.135623 -0.0213,-2.754312 0.11305,-1.136684 0.60346,-2.439181 1.22846,-3.262702 0.48907,-0.64441 1.27766,-1.163685 2.07934,-1.369214 0.41141,-0.105474 1.52319,-0.126877 1.86197,-0.03584 0.53237,0.143047 1.13303,0.49361 1.54913,0.904108 l 0.406,0.400524 v -2.021033 -2.021034 l -0.16402,-0.03226 c -0.0902,-0.01774 -0.46595,-0.09074 -0.83499,-0.162208 l -0.67097,-0.12995 v -0.916089 -0.91609 h 2.35586 2.35587 v 7.117281 7.117281 l 0.64115,0.13347 c 0.35263,0.07341 0.68812,0.146795 0.74553,0.16308 0.0936,0.02656 0.10437,0.124518 0.10437,0.950817 v 0.921207 l -2.07238,-0.01568 -2.07238,-0.01568 -0.0718,-0.477137 c -0.0395,-0.262425 -0.0879,-0.56515 -0.10759,-0.672721 l -0.0358,-0.195584 -0.26974,0.331133 c -0.7758,0.952378 -1.89366,1.368398 -3.26934,1.216715 z m 1.96463,-2.415977 c 0.44995,-0.07036 0.9809,-0.406458 1.24568,-0.788545 l 0.15591,-0.224971 v -2.416476 -2.416476 l -0.22366,-0.264215 c -0.28691,-0.338932 -0.39637,-0.430071 -0.76044,-0.63314 -0.27339,-0.152492 -0.35062,-0.166399 -0.92797,-0.167095 -0.55501,-6.69e-4 -0.66416,0.0169 -0.91969,0.148034 -0.78677,0.403762 -1.20546,1.460981 -1.26378,3.191167 -0.063,1.868175 0.29064,2.951486 1.10724,3.392011 0.46355,0.250066 0.85396,0.294282 1.58671,0.179706 z"
     id="path37" />
</svg>
