<?xml version="1.0" encoding="UTF-8" standalone="no"?>
<svg
   width="512"
   height="512"
   viewBox="0 0 512 512"
   fill="none"
   version="1.1"
   id="svg1"
   sodipodi:docname="frigate_logo.svg"
   inkscape:version="1.4.2 (ebf0e940d0, 2025-05-08)"
   xmlns:inkscape="http://www.inkscape.org/namespaces/inkscape"
   xmlns:sodipodi="http://sodipodi.sourceforge.net/DTD/sodipodi-0.dtd"
   xmlns="http://www.w3.org/2000/svg"
   xmlns:svg="http://www.w3.org/2000/svg">
  <defs
     id="defs1" />
  <sodipodi:namedview
     id="namedview1"
     pagecolor="#505050"
     bordercolor="#eeeeee"
     borderopacity="1"
     inkscape:showpageshadow="0"
     inkscape:pageopacity="0"
     inkscape:pagecheckerboard="0"
     inkscape:deskcolor="#505050"
     inkscape:zoom="1.6464844"
     inkscape:cx="255.69632"
     inkscape:cy="256"
     inkscape:window-width="2560"
     inkscape:window-height="1368"
     inkscape:window-x="0"
     inkscape:window-y="0"
     inkscape:window-maximized="1"
     inkscape:current-layer="svg1" />
  <path
     d="m 167.26029,368.43871 c 0.96979,7.75827 9.09173,13.03145 4.24281,14.24369 -4.84892,1.21222 -26.06292,-38.48827 -30.91184,-55.45948 -4.84891,-16.9712 -7.57643,-36.06381 -6.3642,-46.97386 1.21217,-10.91006 63.94508,-27.88128 63.94508,-32.42713 0,-4.54586 -20.30484,-0.30306 -21.21401,-3.93975 -0.90917,-3.63668 15.3347,-1.45467 19.69871,-7.27337 6.81879,-9.09171 15.45593,-7.57643 20.91096,-12.42534 5.45503,-4.84892 12.12229,-23.33541 13.33451,-31.21489 1.21223,-7.87949 -12.12228,-16.97121 -15.75897,-23.03235 -3.63669,-6.06115 7.87949,-10.30395 35.76075,-21.82012 27.88127,-11.51618 116.37397,-36.97299 117.5862,-33.94241 1.21224,3.03057 -29.09349,15.75897 -50.3075,23.63846 -21.214,7.87949 -55.76253,23.03235 -55.76253,27.27515 0,4.2428 1.81835,7.57642 0.60612,17.27426 -1.21223,9.69783 -1.3577,14.22611 -3.63668,20.60789 -1.5153,4.2428 -3.03058,14.24369 0,23.33541 2.42445,7.27337 10.30394,12.7284 13.94062,13.94063 3.03058,0.20184 11.39496,0.48489 20.6079,0 11.51617,-0.60612 27.88126,0.60611 27.88126,3.63668 0,3.03058 -24.85069,1.21223 -24.85069,5.45504 0,4.2428 25.4568,-0.60612 24.85069,3.63669 -0.60611,4.2428 -21.214,2.42445 -32.12406,2.42445 -8.72805,0 -21.61829,-0.40427 -27.27516,-2.42445 l -1.21222,4.2428 c -2.02018,0 -6.24298,1.21222 -10.60701,1.21222 -5.45502,0 -5.75808,1.81834 -15.75898,1.81834 -10.00088,0 -6.97031,-0.60611 -16.06202,-1.21222 -9.09172,-0.60612 -43.03412,25.45681 -49.09527,33.94241 -6.06116,8.48559 -2.42447,29.09349 -2.42447,38.48826 0,8.44196 -1.21222,27.27515 0,36.97299 z"
     fill="#000000"
     id="path1"
     style="stroke-width:0.606115;fill:#ffffff;fill-opacity:1" />
  <text
     xml:space="preserve"
     style="font-size:36px;text-align:start;writing-mode:lr-tb;direction:ltr;text-anchor:start;fill:#ffffff;fill-opacity:1"
     x="194.3535"
     y="351.65836"
     id="text5"><tspan
       sodipodi:role="line"
       id="tspan5"
       x="194.3535"
       y="351.65836"
       style="font-size:36px">FRIGATE</tspan></text>
</svg>
