<?xml version="1.0" encoding="UTF-8" standalone="no"?>
<svg
   width="1705"
   height="241"
   viewBox="0 0 1705 241"
   fill="none"
   version="1.1"
   id="svg15"
   sodipodi:docname="home_assistant_logo.svg"
   inkscape:version="1.4.2 (ebf0e940d0, 2025-05-08)"
   xmlns:inkscape="http://www.inkscape.org/namespaces/inkscape"
   xmlns:sodipodi="http://sodipodi.sourceforge.net/DTD/sodipodi-0.dtd"
   xmlns="http://www.w3.org/2000/svg"
   xmlns:svg="http://www.w3.org/2000/svg">
  <defs
     id="defs15" />
  <sodipodi:namedview
     id="namedview15"
     pagecolor="#505050"
     bordercolor="#eeeeee"
     borderopacity="1"
     inkscape:showpageshadow="0"
     inkscape:pageopacity="0"
     inkscape:pagecheckerboard="0"
     inkscape:deskcolor="#505050"
     inkscape:zoom="0.70821114"
     inkscape:cx="745.54037"
     inkscape:cy="164.49896"
     inkscape:window-width="2560"
     inkscape:window-height="1368"
     inkscape:window-x="0"
     inkscape:window-y="0"
     inkscape:window-maximized="1"
     inkscape:current-layer="svg15" />
  <path
     d="M240 224.813C240 233.063 233.25 239.813 225 239.813H15C6.75 239.813 0 233.063 0 224.813V134.813C0 126.563 4.77 115.043 10.61 109.203L109.39 10.423C115.22 4.59304 124.77 4.59304 130.6 10.423L229.39 109.213C235.22 115.043 240 126.573 240 134.823V224.823V224.813Z"
     fill="#F2F4F9"
     id="path1" />
  <path
     d="M229.39 109.203L130.61 10.423C124.78 4.59304 115.23 4.59304 109.4 10.423L10.61 109.203C4.78 115.033 0 126.563 0 134.813V224.813C0 233.063 6.75 239.813 15 239.813H107.27L66.64 199.183C64.55 199.903 62.32 200.313 60 200.313C48.7 200.313 39.5 191.113 39.5 179.813C39.5 168.513 48.7 159.313 60 159.313C71.3 159.313 80.5 168.513 80.5 179.813C80.5 182.143 80.09 184.373 79.37 186.463L111 218.093V102.213C104.2 98.873 99.5 91.893 99.5 83.823C99.5 72.523 108.7 63.323 120 63.323C131.3 63.323 140.5 72.523 140.5 83.823C140.5 91.893 135.8 98.873 129 102.213V183.483L160.46 152.023C159.84 150.063 159.5 147.983 159.5 145.823C159.5 134.523 168.7 125.323 180 125.323C191.3 125.323 200.5 134.523 200.5 145.823C200.5 157.123 191.3 166.323 180 166.323C177.5 166.323 175.12 165.853 172.91 165.033L129 208.943V239.823H225C233.25 239.823 240 233.073 240 224.823V134.823C240 126.573 235.23 115.053 229.39 109.213V109.203Z"
     fill="#18BCF2"
     id="path2" />
  <path
     d="M320.04 46.6064H344.8V107.606L409.16 107.806V46.6064H434.16V192.606H409.16V129.826L344.8 129.626V192.626H320L320.04 46.6064Z"
     fill="#1D2126"
     id="path3" />
  <path
     d="M506.8 91.2364C521.9 91.2364 534.203 96.0864 543.71 105.786C553.217 115.486 557.97 127.956 557.97 143.196C557.97 158.363 553.217 170.796 543.71 180.496C534.203 190.196 521.9 195.046 506.8 195.046C491.56 195.046 479.19 190.196 469.69 180.496C460.19 170.796 455.437 158.363 455.43 143.196C455.43 127.863 460.183 115.38 469.69 105.746C479.197 96.113 491.567 91.2764 506.8 91.2364ZM506.8 173.756C514.873 173.756 521.433 170.91 526.48 165.216C531.527 159.523 534.047 152.116 534.04 142.996C534.04 133.89 531.52 126.516 526.48 120.876C521.44 115.236 514.88 112.423 506.8 112.436C498.533 112.436 491.867 115.25 486.8 120.876C481.733 126.503 479.193 133.876 479.18 142.996C479.18 152.116 481.72 159.523 486.8 165.216C491.88 170.91 498.547 173.756 506.8 173.756Z"
     fill="#1D2126"
     id="path4" />
  <path
     d="M726.68 129.826V192.616H703.68V133.426C703.68 126.6 701.923 121.266 698.41 117.426C694.897 113.586 690.11 111.663 684.05 111.656C677.61 111.656 672.467 113.756 668.62 117.956C664.773 122.156 662.853 128.033 662.86 135.586V192.586H639.67V133.426C639.67 126.6 637.96 121.266 634.54 117.426C631.12 113.586 626.383 111.663 620.33 111.656C613.89 111.656 608.717 113.756 604.81 117.956C600.903 122.156 598.95 128.033 598.95 135.586V192.586H575.32V93.9764H597.32L598.1 103.446C603.833 95.0464 613.167 90.8464 626.1 90.8464C633.653 90.8464 640.197 92.4097 645.73 95.5364C651.257 98.6586 655.662 103.441 658.32 109.206C660.708 103.505 664.931 98.7646 670.32 95.7364C675.88 92.4764 682.503 90.8464 690.19 90.8464C701.39 90.8464 710.277 94.2964 716.85 101.196C723.423 108.096 726.7 117.64 726.68 129.826Z"
     fill="#1D2126"
     id="path5" />
  <path
     d="M841.28 151.986H765.7C766.48 159.406 769.28 165.073 774.1 168.986C778.92 172.9 785.04 174.846 792.46 174.826C804.5 174.826 812.93 169.826 817.75 159.826L837.48 167.636C833.937 176.093 827.799 183.206 819.95 187.946C811.95 192.84 802.787 195.283 792.46 195.276C777.873 195.276 766.04 190.506 756.96 180.966C747.88 171.426 743.337 158.91 743.33 143.416C743.33 127.923 747.907 115.326 757.06 105.626C766.213 95.9264 778.173 91.0764 792.94 91.0764C807.46 91.0764 819.147 95.8597 828 105.426C836.853 114.993 841.28 127.593 841.28 143.226V151.986ZM766.09 135.376H817.26C816.8 127.376 814.377 121.273 809.99 117.066C805.603 112.86 799.693 110.78 792.26 110.826C784.927 110.826 778.927 112.956 774.26 117.216C769.593 121.476 766.87 127.53 766.09 135.376Z"
     fill="#1D2126"
     id="path6" />
  <path
     d="M993.53 158.626H937.97L925.97 192.626H900.38L953.11 46.6264H978.7L1031.53 192.626H1005.36L993.53 158.626ZM986.31 137.626L965.9 79.2264L945.29 137.626H986.31Z"
     fill="#1D2126"
     id="path7" />
  <path
     d="M1077.86 176.196C1082.74 176.196 1086.6 175.236 1089.43 173.316C1090.82 172.385 1091.94 171.108 1092.69 169.61C1093.43 168.113 1093.78 166.447 1093.68 164.776C1093.68 159.51 1090.13 155.993 1083.04 154.226L1069.46 150.616C1050.79 145.536 1041.46 135.933 1041.46 121.806C1041.46 112.76 1044.75 105.37 1051.32 99.6364C1057.89 93.903 1066.75 91.0397 1077.88 91.0464C1087.84 91.0464 1096.17 93.323 1102.88 97.8764C1106.12 99.984 1108.89 102.737 1111.01 105.963C1113.14 109.19 1114.57 112.82 1115.23 116.626L1094.04 121.626C1093.86 119.944 1093.33 118.317 1092.48 116.854C1091.63 115.391 1090.48 114.124 1089.11 113.136C1086.04 110.98 1082.36 109.881 1078.61 110.006C1074.38 110.006 1070.96 111.066 1068.36 113.186C1067.11 114.159 1066.1 115.412 1065.42 116.845C1064.74 118.278 1064.41 119.851 1064.45 121.436C1064.42 122.719 1064.67 123.994 1065.17 125.173C1065.68 126.353 1066.43 127.411 1067.38 128.276C1069.34 130.096 1072.37 131.56 1076.46 132.666L1089.84 135.986C1098.76 138.4 1105.56 142.046 1110.25 146.926C1112.56 149.322 1114.36 152.152 1115.57 155.253C1116.77 158.353 1117.34 161.662 1117.25 164.986C1117.25 174.24 1113.77 181.596 1106.8 187.056C1099.83 192.516 1090.23 195.253 1077.99 195.266C1066.66 195.266 1057.57 192.776 1050.74 187.796C1047.44 185.455 1044.65 182.454 1042.57 178.982C1040.48 175.51 1039.14 171.643 1038.63 167.626L1060.21 163.816C1060.34 165.633 1060.88 167.398 1061.78 168.978C1062.69 170.559 1063.94 171.915 1065.44 172.946C1068.6 175.116 1072.72 176.196 1077.86 176.196Z"
     fill="#1D2126"
     id="path8" />
  <path
     d="M1167.46 176.196C1172.35 176.196 1176.2 175.196 1179.04 173.316C1180.43 172.383 1181.55 171.104 1182.29 169.607C1183.03 168.11 1183.37 166.445 1183.28 164.776C1183.28 159.51 1179.73 155.993 1172.64 154.226L1159.07 150.616C1140.4 145.536 1131.07 135.933 1131.07 121.806C1131.07 112.76 1134.36 105.37 1140.93 99.6364C1147.5 93.903 1156.36 91.0397 1167.49 91.0464C1177.45 91.0464 1185.78 93.323 1192.49 97.8764C1195.73 99.9853 1198.5 102.739 1200.62 105.964C1202.75 109.19 1204.19 112.82 1204.85 116.626L1183.65 121.626C1183.47 119.944 1182.94 118.317 1182.09 116.854C1181.24 115.391 1180.09 114.124 1178.72 113.136C1175.65 110.98 1171.97 109.881 1168.22 110.006C1163.99 110.006 1160.57 111.066 1157.97 113.186C1156.72 114.16 1155.71 115.414 1155.03 116.846C1154.36 118.279 1154.02 119.851 1154.06 121.436C1154.03 122.719 1154.28 123.994 1154.79 125.173C1155.29 126.353 1156.04 127.411 1156.99 128.276C1158.99 130.096 1161.99 131.556 1166.08 132.666L1179.46 135.986C1188.37 138.4 1195.17 142.046 1199.87 146.926C1202.17 149.323 1203.98 152.154 1205.18 155.254C1206.38 158.354 1206.96 161.662 1206.87 164.986C1206.87 174.24 1203.39 181.596 1196.42 187.056C1189.45 192.516 1179.85 195.253 1167.61 195.266C1156.28 195.266 1147.19 192.776 1140.36 187.796C1137.06 185.455 1134.27 182.454 1132.19 178.982C1130.1 175.51 1128.76 171.643 1128.25 167.626L1149.84 163.816C1149.97 165.633 1150.5 167.397 1151.41 168.978C1152.31 170.558 1153.56 171.915 1155.06 172.946C1158.2 175.116 1162.32 176.196 1167.46 176.196Z"
     fill="#1D2126"
     id="path9" />
  <path
     d="M1221.91 59.8264C1221.88 57.852 1222.24 55.8907 1222.97 54.0589C1223.71 52.2271 1224.81 50.5623 1226.2 49.1631C1227.6 47.764 1229.26 46.6592 1231.09 45.9142C1232.92 45.1692 1234.88 44.7993 1236.85 44.8264C1238.81 44.7962 1240.75 45.1706 1242.56 45.926C1244.36 46.6813 1246 47.8015 1247.35 49.2164C1250.14 52.0264 1251.71 55.826 1251.71 59.7864C1251.71 63.7467 1250.14 67.5464 1247.35 70.3564C1246 71.7865 1244.38 72.9207 1242.57 73.6868C1240.76 74.453 1238.81 74.8343 1236.85 74.8064C1234.88 74.8321 1232.93 74.45 1231.11 73.6842C1229.29 72.9184 1227.66 71.7854 1226.3 70.3564C1224.9 68.9882 1223.78 67.3499 1223.03 65.5403C1222.27 63.7306 1221.89 61.7869 1221.91 59.8264ZM1248.67 94.0064V192.636H1225.03V93.9764L1248.67 94.0064Z"
     fill="#1D2126"
     id="path10" />
  <path
     d="M1305.85 176.196C1310.73 176.196 1314.59 175.236 1317.42 173.316C1318.81 172.384 1319.93 171.106 1320.68 169.609C1321.42 168.112 1321.76 166.446 1321.67 164.776C1321.67 159.51 1318.12 155.993 1311.02 154.226L1297.45 150.616C1278.78 145.536 1269.45 135.933 1269.45 121.806C1269.45 112.76 1272.74 105.37 1279.31 99.6364C1285.88 93.903 1294.74 91.0397 1305.88 91.0464C1315.84 91.0464 1324.17 93.323 1330.88 97.8764C1334.11 99.9872 1336.88 102.741 1339.01 105.967C1341.13 109.193 1342.57 112.821 1343.23 116.626L1322.04 121.626C1321.86 119.944 1321.33 118.317 1320.48 116.854C1319.63 115.391 1318.48 114.124 1317.11 113.136C1314.04 110.982 1310.36 109.884 1306.61 110.006C1302.38 110.006 1298.96 111.066 1296.35 113.186C1295.1 114.161 1294.1 115.415 1293.42 116.848C1292.74 118.281 1292.41 119.852 1292.45 121.436C1292.42 122.719 1292.67 123.994 1293.17 125.173C1293.68 126.353 1294.43 127.411 1295.38 128.276C1297.33 130.096 1300.36 131.56 1304.46 132.666L1317.84 135.986C1326.76 138.4 1333.56 142.046 1338.25 146.926C1340.56 149.322 1342.36 152.152 1343.57 155.253C1344.77 158.353 1345.34 161.662 1345.25 164.986C1345.25 174.24 1341.77 181.596 1334.8 187.056C1327.83 192.516 1318.23 195.253 1305.99 195.266C1294.66 195.266 1285.58 192.776 1278.75 187.796C1275.44 185.458 1272.66 182.458 1270.57 178.985C1268.49 175.513 1267.15 171.645 1266.64 167.626L1288.22 163.816C1288.35 165.633 1288.88 167.397 1289.79 168.978C1290.69 170.558 1291.94 171.915 1293.44 172.946C1296.58 175.116 1300.7 176.196 1305.85 176.196Z"
     fill="#1D2126"
     id="path11" />
  <path
     d="M1415.86 192.606C1410.23 193.964 1404.46 194.718 1398.67 194.856C1388.71 194.856 1380.95 192.12 1375.38 186.646C1369.81 181.173 1367.03 173.036 1367.03 162.236V113.996H1351.89V93.9964H1367.03V63.2164H1390.47V93.9764H1413.22V113.976H1390.47V157.976C1390.47 168.643 1394.6 173.976 1402.87 173.976C1406.29 173.833 1409.67 173.14 1412.87 171.926L1415.86 192.606Z"
     fill="#1D2126"
     id="path12" />
  <path
     d="M1495.01 192.606C1494.16 188.914 1493.6 185.158 1493.35 181.376C1490.28 185.78 1486.08 189.273 1481.19 191.486C1475.48 194.09 1469.26 195.375 1462.98 195.246C1452.17 195.246 1443.5 192.366 1436.98 186.606C1430.46 180.846 1427.21 173.05 1427.22 163.216C1427.22 153.576 1430.43 146.04 1436.84 140.606C1443.25 135.173 1452.02 132.453 1463.15 132.446H1492.8V128.646C1492.8 122.46 1490.99 117.836 1487.38 114.776C1483.77 111.716 1478.71 110.186 1472.2 110.186C1460.68 110.186 1452.41 115.003 1447.39 124.636L1430.21 114.576C1438.54 98.8897 1452.96 91.0464 1473.47 91.0464C1485.9 91.0464 1496.08 94.2364 1504.03 100.616C1511.98 106.996 1515.98 117.38 1516.03 131.766V171.026C1516.03 182.153 1516.61 189.346 1517.78 192.606H1495.01ZM1493.01 148.756H1468.69C1463.16 148.756 1458.87 150.026 1455.8 152.566C1454.28 153.837 1453.08 155.441 1452.28 157.254C1451.48 159.066 1451.12 161.039 1451.21 163.016C1451.21 167.636 1452.77 171.153 1455.9 173.566C1459.03 175.976 1463.48 177.176 1469.28 177.176C1476.24 177.176 1481.94 174.98 1486.37 170.586C1490.8 166.193 1493.02 159.666 1493.01 151.006V148.756Z"
     fill="#1D2126"
     id="path13" />
  <path
     d="M1629.53 131.766V192.606H1606V136.826C1606 127.446 1603.79 121.033 1599.36 117.586C1595.18 114.155 1589.92 112.323 1584.51 112.416C1581.37 112.323 1578.24 112.853 1575.31 113.975C1572.38 115.098 1569.69 116.791 1567.42 118.956C1562.87 123.316 1560.6 129.533 1560.59 137.606V192.606H1536.96V93.9764H1559.12L1559.9 104.616C1562.96 100.236 1567.19 96.803 1572.11 94.7064C1577.6 92.2344 1583.57 90.9856 1589.59 91.0464C1602.35 91.0464 1612.2 94.5764 1619.13 101.636C1626.06 108.696 1629.53 118.74 1629.53 131.766Z"
     fill="#1D2126"
     id="path14" />
  <path
     d="M1704.98 192.606C1699.35 193.952 1693.59 194.696 1687.8 194.826C1677.84 194.826 1670.08 192.09 1664.51 186.616C1658.94 181.143 1656.16 173.006 1656.16 162.206V113.996H1641.02V93.9964H1656.16V63.2164H1679.59V93.9764H1702.35V113.976H1679.59V157.976C1679.59 168.643 1683.73 173.976 1692 173.976C1695.42 173.833 1698.8 173.14 1702 171.926L1704.98 192.606Z"
     fill="#1D2126"
     id="path15" />
  <path
     style="fill:#ffffff;stroke-width:1.41201"
     d="M 320.52588,119.3147 V 46.596273 h 12.00207 12.00207 v 31.064182 31.064185 h 32.47619 32.47619 V 77.660455 46.596273 h 12.00207 12.00207 V 119.3147 192.03313 H 421.48447 409.4824 v -31.77019 -31.77019 h -32.47619 -32.47619 v 31.77019 31.77019 h -12.00207 -12.00207 z"
     id="path16" />
  <path
     style="fill:#ffffff;stroke-width:1.41201"
     d="m 495.67887,193.31472 c -15.70699,-3.07897 -28.16341,-12.97598 -35.16575,-27.94029 -3.23315,-6.90939 -3.71331,-9.76133 -3.71331,-22.05559 0,-12.32787 0.47584,-15.13719 3.74895,-22.13344 5.27047,-11.26558 13.6187,-19.77667 24.12665,-24.59731 7.72393,-3.54344 10.49414,-4.050354 22.26525,-4.074252 12.37745,-0.02513 14.19269,0.341396 22.88587,4.621034 20.12123,9.905648 30.86422,32.130638 26.63249,55.097048 -4.11574,22.33694 -18.36176,37.17333 -39.55306,41.19218 -8.64705,1.63988 -12.40214,1.62053 -21.22709,-0.10938 z m 20.65433,-20.42897 c 4.64333,-0.93817 11.52234,-7.34057 14.89115,-13.85943 3.51249,-6.79691 4.18187,-21.15683 1.36517,-29.28674 -5.54894,-16.0161 -27.09031,-23.04554 -41.46019,-13.52943 -6.56556,4.34789 -12.45852,16.45979 -12.45852,25.6062 0,23.84425 14.44482,35.76043 37.66239,31.0694 z"
     id="path17" />
  <path
     style="fill:#ffffff;stroke-width:1.41201"
     d="M 576.09938,143.31884 V 94.604555 h 10.59006 10.59006 v 5.106333 5.106332 l 5.5481,-5.012367 c 6.27536,-5.66941 13.10951,-8.008565 23.39807,-8.008565 11.94596,0 17.66276,2.369389 25.76915,10.680302 4.07718,4.18004 7.41305,7.02692 7.41305,6.32639 0,-3.02088 8.21079,-10.62679 14.76838,-13.680401 14.78041,-6.882655 35.16,-2.832381 43.98847,8.742341 6.70838,8.79515 7.60754,15.07023 7.60754,53.09241 v 35.0758 h -10.49769 -10.49769 l -0.44537,-33.5352 c -0.49465,-37.24473 -1.20464,-40.47774 -9.87373,-44.9607 -7.11203,-3.67777 -19.80362,-2.18389 -25.17623,2.96339 -2.33394,2.23606 -4.87136,6.32559 -5.63872,9.08785 -0.76736,2.76226 -1.39874,18.84233 -1.40307,35.73348 l -0.008,30.71118 H 651.00484 639.7778 l -0.42203,-35.41102 -0.42202,-35.41102 -5.44348,-4.98626 c -5.2428,-4.80244 -5.77467,-4.96517 -14.42747,-4.4142 -7.08351,0.45104 -9.77888,1.30526 -12.74161,4.03806 -7.02912,6.48364 -7.62968,9.97604 -7.62968,44.3689 v 31.81554 h -11.29607 -11.29606 z"
     id="path18" />
  <path
     style="fill:#ffffff;stroke-width:1.41201"
     d="m 779.32881,193.01719 c -14.46807,-4.10452 -24.79777,-13.12042 -31.33196,-27.34696 -2.63165,-5.72975 -3.13208,-9.30094 -3.13208,-22.35139 0,-13.13212 0.49273,-16.60561 3.18881,-22.47965 5.18132,-11.28867 12.08107,-18.53595 22.55718,-23.69332 8.60422,-4.235844 10.62216,-4.657339 22.2022,-4.63745 15.8937,0.0273 24.50144,3.471333 33.96659,13.59035 9.1847,9.81918 12.3391,17.68249 13.0901,32.63104 l 0.62071,12.35508 h -37.59094 -37.59093 l 0.0232,3.17701 c 0.0128,1.74736 1.44243,5.67097 3.17701,8.71912 4.36908,7.67771 13.11235,12.10801 23.89535,12.10801 10.44925,0 16.4384,-2.48339 21.86433,-9.06598 l 4.27044,-5.18079 7.62602,2.98834 c 4.19431,1.64359 8.20563,3.55429 8.91405,4.24599 1.70893,1.66862 -5.19093,11.53271 -11.35661,16.2355 -11.54411,8.80513 -30.75937,12.57304 -44.3935,8.7051 z m 38.22398,-60.69523 c 0,-6.61293 -6.02711,-15.66642 -12.65426,-19.0083 -10.5724,-5.33135 -25.82128,-3.09702 -32.84582,4.81272 -2.2457,2.52868 -6.74422,13.32901 -6.74422,16.19193 0,0.67897 11.75497,1.23448 26.12215,1.23448 h 26.12215 z"
     id="path19" />
  <path
     style="fill:#ffffff;stroke-width:1.41201"
     d="m 902.2461,190.97412 c -0.0149,-0.58245 11.58117,-33.30242 25.76915,-72.71104 l 25.79634,-71.652038 12.03566,-0.0074 12.03566,-0.0074 3.77128,10.23706 c 3.09565,8.403073 40.36791,111.242368 47.08171,129.904768 l 1.9049,5.29503 h -12.5278 -12.5278 l -5.5303,-16.5911 -5.5304,-16.5911 h -28.66118 -28.66119 l -5.80839,16.5911 -5.80838,16.5911 h -11.65604 c -6.41081,0 -11.66826,-0.47656 -11.68322,-1.05901 z m 84.42813,-54.36232 c -0.34193,-0.97075 -5.01659,-14.31289 -10.38813,-29.64918 -5.37154,-15.336291 -10.08413,-27.879857 -10.47244,-27.874587 -0.3883,0.0053 -5.09222,12.553144 -10.45317,27.884167 -5.36094,15.33103 -10.0356,28.66885 -10.38813,29.6396 -0.49488,1.36275 4.25499,1.76501 20.8413,1.76501 16.57605,0 21.34028,-0.4031 20.86057,-1.76501 z"
     id="path20" />
  <path
     style="fill:#ffffff;stroke-width:1.41201"
     d="m 1065.6913,193.41057 c -7.2517,-1.8309 -15.2293,-6.07117 -18.9728,-10.08435 -2.9212,-3.13172 -8.1639,-13.73099 -7.2101,-14.57691 0.7923,-0.70269 15.3482,-3.54434 18.1553,-3.54434 1.515,0 2.7545,0.84235 2.7545,1.87188 0,3.95391 6.8547,8.40699 13.9975,9.09332 12.4507,1.19635 19.8907,-2.84663 19.8907,-10.80877 0,-6.53551 -3.9167,-9.79551 -15.5321,-12.92775 -14.3197,-3.8615 -21.0194,-6.57459 -26.4882,-10.72652 -15.663,-11.89149 -12.4834,-36.10704 5.9893,-45.61341 5.9976,-3.086454 8.8549,-3.607178 19.7929,-3.607178 10.8713,0 13.8114,0.528984 19.6553,3.536346 7.6676,3.945878 14.6465,11.638502 15.2488,16.808252 0.3484,2.99066 -0.4548,3.62554 -6.6639,5.26779 -9.7711,2.58435 -11.2607,2.41548 -13.3643,-1.51513 -4.006,-7.48542 -19.0108,-9.30805 -25.2516,-3.0673 -7.0578,7.05783 -3.4114,16.52832 7.4229,19.27864 16.3032,4.13859 24.8722,7.32471 30.3268,11.276 6.2528,4.52952 11.3758,13.37869 11.4174,19.72182 0.077,11.73043 -8.3385,23.6394 -19.4404,27.51099 -8.1265,2.83398 -24.5326,3.92329 -31.728,2.10662 z"
     id="path21" />
  <path
     style="fill:#ffffff;stroke-width:1.41201"
     d="m 1153.3419,192.97677 c -8.7661,-2.48355 -15.6091,-7.33257 -20.0813,-14.2297 -6.2271,-9.60374 -5.4062,-10.75992 9.1266,-12.85302 5.9256,-0.85345 6.5536,-0.64652 8.0578,2.65477 2.5548,5.6071 9.3237,8.35689 18.8713,7.66627 10.2015,-0.7379 13.9466,-3.69449 13.9466,-11.01012 0,-7.1398 -3.1198,-9.52028 -17.93,-13.68107 -22.6771,-6.37092 -31.3786,-13.31937 -32.6002,-26.03235 -0.9464,-9.8492 0.6914,-16.192 5.6349,-21.82232 6.0192,-6.855412 14.2428,-10.721578 24.5688,-11.550446 19.3135,-1.550306 37.9303,8.338946 40.3109,21.413266 0.4032,2.21406 -0.8828,3.01457 -7.2763,4.5292 -10.5317,2.49499 -12.2636,2.39955 -13.0796,-0.72076 -2.7,-10.32496 -26.0869,-9.85238 -28.7053,0.58006 -2.3156,9.22635 1.3688,12.50273 19.6773,17.49814 23.2602,6.34644 31.9917,14.57407 31.9917,30.14572 0,10.70102 -5.534,19.17553 -15.8027,24.19954 -9.3869,4.59257 -26.5415,6.0939 -36.7105,3.21282 z"
     id="path22" />
  <path
     style="fill:#ffffff;stroke-width:1.41201"
     d="M 1225.6232,143.31884 V 94.604555 h 11.2961 11.296 v 48.714285 48.71429 h -11.296 -11.2961 z"
     id="path23" />
  <path
     style="fill:#ffffff;stroke-width:1.41201"
     d="m 1226.9266,69.297022 c -6.905,-6.904983 -4.9731,-17.813571 3.9004,-22.024352 6.2754,-2.977862 12.0695,-1.66484 16.6441,3.771773 4.0745,4.84219 4.5024,9.417623 1.4356,15.348209 -4.3062,8.327248 -15.1274,9.75712 -21.9801,2.90437 z"
     id="path24" />
  <path
     style="fill:#ffffff;stroke-width:1.41201"
     d="m 1295.5176,193.98726 c -12.2289,-3.14445 -21.2189,-9.36965 -25.5076,-17.66299 -3.9475,-7.63367 -3.1251,-8.43125 10.754,-10.43022 5.9256,-0.85345 6.5536,-0.64652 8.0578,2.65477 2.5548,5.6071 9.3237,8.35689 18.8714,7.66627 10.2014,-0.7379 13.9466,-3.69449 13.9466,-11.01012 0,-7.1398 -3.1198,-9.52028 -17.9301,-13.68107 -22.6771,-6.37092 -31.3786,-13.31937 -32.6002,-26.03235 -0.9464,-9.8492 0.6915,-16.192 5.6349,-21.82232 6.0192,-6.855412 14.2428,-10.721578 24.5688,-11.550446 19.3135,-1.550306 37.9303,8.338946 40.311,21.413266 0.4031,2.21406 -0.8829,3.01457 -7.2764,4.5292 -10.5317,2.49499 -12.2636,2.39955 -13.0796,-0.72076 -2.7226,-10.41128 -26.065,-9.93959 -28.7053,0.58006 -2.3147,9.22256 1.3711,12.50338 19.6492,17.49041 14.1232,3.85339 20.6017,7.19991 26.132,13.49862 5.3183,6.05714 6.4495,9.95249 5.5647,19.16126 -1.4982,15.59168 -13.7876,24.90999 -34.3293,26.02989 -6.1808,0.33697 -12.5087,0.28591 -14.0619,-0.11347 z"
     id="path25" />
  <path
     style="fill:#ffffff;stroke-width:1.41201"
     d="m 1391.289,193.28972 c -8.8082,-1.60302 -14.1554,-4.9107 -18.47,-11.42518 l -3.877,-5.85381 -0.4281,-31.52504 -0.4281,-31.52503 h -7.6909 -7.691 v -9.17805 -9.178055 h 7.7661 7.766 V 79.072464 63.540373 h 10.5901 10.59 v 15.532091 15.532091 h 11.2961 11.2961 v 9.178055 9.17805 h -11.2961 -11.2961 l 0.01,23.65114 c 0,13.00813 0.6693,26.03289 1.4778,28.94391 1.8762,6.75595 7.4639,9.94192 15.2522,8.69651 3.0248,-0.48368 5.8178,-0.33442 6.2066,0.3317 0.3889,0.66611 1.147,4.84182 1.6846,9.27935 0.9282,7.66076 0.8123,8.10203 -2.2947,8.73744 -7.0948,1.45092 -14.8416,1.71179 -20.4615,0.68901 z"
     id="path26" />
  <path
     style="fill:#ffffff;stroke-width:1.41201"
     d="m 1448.9784,192.1718 c -19.5025,-6.7357 -26.9791,-28.1582 -15.9158,-45.60319 6.6475,-10.48207 13.3445,-12.78196 39.4614,-13.55201 l 21.6855,-0.63938 -0.8977,-5.82526 c -1.762,-11.4346 -8.0687,-16.36157 -20.9855,-16.3945 -10.0724,-0.0257 -16.1956,2.4193 -21.3248,8.51499 l -3.9411,4.68377 -6.3316,-3.43277 c -9.3897,-5.09075 -9.8027,-6.03647 -5.2455,-12.01126 15.5838,-20.431311 58.2887,-21.463024 72.5664,-1.75314 5.8385,8.05975 6.9729,16.21481 7.3791,53.04494 l 0.3621,32.82925 -10.113,-6e-5 -10.1129,-5e-5 -0.9619,-5.6933 -0.9619,-5.6933 -5.4321,4.9076 c -9.7713,8.82778 -25.2645,11.44127 -39.2307,6.61767 z m 31.6471,-16.94705 c 7.1827,-3.26205 11.6949,-10.26485 12.8391,-19.92613 l 0.8619,-7.27704 -17.7515,0.47265 c -16.4817,0.43883 -18.0103,0.71606 -21.3694,3.87549 -1.9898,1.87156 -4.0059,5.47108 -4.4801,7.99894 -2.5444,13.56298 14.309,21.93675 29.9,14.85609 z"
     id="path27" />
  <path
     style="fill:#ffffff;stroke-width:1.41201"
     d="M 1537.677,143.31884 V 94.604555 h 10.5901 10.59 v 4.942029 c 0,5.679326 1.2732,6.172866 5.0762,1.967756 5.9819,-6.614319 13.1741,-9.031423 26.694,-8.971039 14.3125,0.06392 20.4994,2.398718 28.5331,10.767829 8.3946,8.74497 9.289,13.50674 9.9675,53.06879 l 0.6115,35.65321 h -11.3431 -11.3431 l -0.4469,-32.8292 c -0.3789,-27.83733 -0.8168,-33.50499 -2.8794,-37.27361 -2.8759,-5.25462 -12.5835,-10.39518 -19.5464,-10.35066 -7.0043,0.0448 -15.9006,4.55306 -19.815,10.04152 -3.3114,4.64291 -3.4003,5.51777 -3.8159,37.58275 l -0.4255,32.8292 h -11.2236 -11.2235 z"
     id="path28" />
  <path
     style="fill:#ffffff;stroke-width:1.41201"
     d="m 1673.2718,191.20925 c -6.5014,-2.81994 -9.6179,-5.79013 -13.2104,-12.5902 -2.7065,-5.12299 -3.0338,-8.43735 -3.5202,-35.65321 l -0.5364,-30.00518 h -6.9196 -6.9196 v -9.17805 -9.178055 h 7.0601 7.06 V 79.072464 63.540373 h 11.2961 11.296 v 15.532091 15.532091 h 11.2961 11.2961 v 9.178055 9.17805 h -11.2961 -11.2961 v 24.7555 c 0,18.444 0.5226,26.00621 2.0498,29.66116 2.5753,6.16366 7.8206,8.4171 15.2204,6.53884 2.9271,-0.74298 5.3257,-0.94188 5.3302,-0.442 0,0.49987 0.6275,4.6914 1.3846,9.3145 1.0421,6.36406 0.9544,8.67374 -0.3612,9.50944 -3.0739,1.95266 -24.0161,1.17254 -29.2298,-1.08885 z"
     id="path29" />
</svg>
