<?xml version="1.0" encoding="UTF-8" standalone="no"?>
<svg
   width="120"
   height="60"
   version="1.1"
   id="svg5"
   sodipodi:docname="html5_logo.svg"
   inkscape:version="1.4.2 (ebf0e940d0, 2025-05-08)"
   xmlns:inkscape="http://www.inkscape.org/namespaces/inkscape"
   xmlns:sodipodi="http://sodipodi.sourceforge.net/DTD/sodipodi-0.dtd"
   xmlns="http://www.w3.org/2000/svg"
   xmlns:svg="http://www.w3.org/2000/svg">
  <defs
     id="defs5" />
  <sodipodi:namedview
     id="namedview5"
     pagecolor="#505050"
     bordercolor="#eeeeee"
     borderopacity="1"
     inkscape:showpageshadow="0"
     inkscape:pageopacity="0"
     inkscape:pagecheckerboard="0"
     inkscape:deskcolor="#505050"
     inkscape:zoom="16.766667"
     inkscape:cx="60"
     inkscape:cy="29.970179"
     inkscape:window-width="2560"
     inkscape:window-height="1368"
     inkscape:window-x="0"
     inkscape:window-y="0"
     inkscape:window-maximized="1"
     inkscape:current-layer="svg5" />
  <path
     d="M6.3 21.475H12v5.63h5.213v-5.63h5.7v17.05h-5.7v-5.7H12v5.7H6.3v-17.05zm24.107 5.655H25.38v-5.654h15.736v5.654h-5.02v11.397h-5.7V27.13zm13.207-5.655h5.943l3.656 6 3.652-6H62.8v17.05h-5.676v-8.452l-3.92 6.063h-.098L49.2 30.074v8.452h-5.576zm22.03 0h5.7V32.9h8.015v5.636H65.645z"
     id="path1" />
  <path
     d="M82.07 12.06h31.637l-2.882 32.288L97.87 47.94l-12.92-3.587z"
     fill="#e44d26"
     id="path2" />
  <path
     d="M108.36 42.293l2.463-27.592H97.9v30.494z"
     fill="#f16529"
     id="path3" />
  <path
     d="M92.65 26.678l-.362-4.056H97.9v-3.96h-9.93l1.068 11.977H97.9v-3.96zm-3.446 5.942l.555 6.22 8.113 2.252.018-.005v-4.12l-.017.005-4.4-1.2-.282-3.16h-2.143z"
     fill="#ebebeb"
     id="path4" />
  <path
     d="M106.986 27.74l.097-1.064h-9.206v3.96h4.877l-.46 5.137-4.417 1.192v4.12l8.12-2.25.06-.67zm-9.1-5.118h9.567l.355-3.97h-9.922v3.95z"
     fill="#fff"
     id="path5" />
  <path
     style="fill:#ffffff;stroke-width:0.0596421"
     d="m 6.3220676,30 v -8.469185 h 2.833002 2.8330024 v 2.803181 2.803181 h 2.624254 2.624255 v -2.803181 -2.803181 h 2.833002 2.833001 V 30 38.469185 h -2.833001 -2.833002 v -2.833002 -2.833002 h -2.624255 -2.624254 v 2.833002 2.833002 H 9.1550696 6.3220676 Z"
     id="path6" />
  <path
     style="fill:#ffffff;stroke-width:0.0596421"
     d="m 30.417495,32.803181 v -5.725646 h -2.50497 -2.50497 v -2.77336 -2.77336 h 7.842942 7.842942 v 2.77336 2.77336 h -2.50497 -2.50497 v 5.725646 5.725646 h -2.833002 -2.833002 z"
     id="path7" />
  <path
     style="fill:#ffffff;stroke-width:0.0596421"
     d="m 43.658052,30 v -8.469185 h 2.947364 2.947365 l 1.809097,2.979556 c 0.995003,1.638755 1.824693,2.980704 1.843754,2.982107 0.01906,0.0014 0.85107,-1.339314 1.848907,-2.979372 l 1.814248,-2.981923 2.937376,-1.84e-4 2.937376,-1.84e-4 V 30 38.469185 h -2.802781 -2.802781 l -0.01531,-4.217068 -0.01531,-4.217069 -1.941285,3.005316 c -1.067706,1.652924 -1.966812,3.01369 -1.998012,3.023924 -0.0312,0.01023 -0.928993,-1.336499 -1.995097,-2.992741 -1.066103,-1.656241 -1.958499,-3.011474 -1.983101,-3.011626 -0.0246,-1.54e-4 -0.04473,1.891868 -0.04473,4.204493 v 4.204771 H 46.40159 43.658052 Z"
     id="path8" />
  <path
     style="fill:#ffffff;stroke-width:0.0596421"
     d="m 65.666004,30.029821 v -8.499006 h 2.833002 2.833002 v 5.695825 5.695825 h 3.996024 3.996024 v 2.803181 2.803181 H 72.49503 65.666004 Z"
     id="path9" />
</svg>
