<?xml version="1.0" encoding="UTF-8" standalone="no"?>
<svg
   width="120"
   height="60"
   version="1.1"
   id="svg2"
   sodipodi:docname="javascript_logo.svg"
   inkscape:version="1.4.2 (ebf0e940d0, 2025-05-08)"
   xmlns:inkscape="http://www.inkscape.org/namespaces/inkscape"
   xmlns:sodipodi="http://sodipodi.sourceforge.net/DTD/sodipodi-0.dtd"
   xmlns="http://www.w3.org/2000/svg"
   xmlns:svg="http://www.w3.org/2000/svg">
  <defs
     id="defs2" />
  <sodipodi:namedview
     id="namedview2"
     pagecolor="#505050"
     bordercolor="#eeeeee"
     borderopacity="1"
     inkscape:showpageshadow="0"
     inkscape:pageopacity="0"
     inkscape:pagecheckerboard="0"
     inkscape:deskcolor="#505050"
     inkscape:zoom="16.766667"
     inkscape:cx="60"
     inkscape:cy="29.970179"
     inkscape:window-width="2560"
     inkscape:window-height="1368"
     inkscape:window-x="0"
     inkscape:window-y="0"
     inkscape:window-maximized="1"
     inkscape:current-layer="svg2" />
  <path
     d="M38.805 22.53c0-.85-.3-1.453-.866-1.8-.57-.36-1.4-.538-2.494-.538v-3.137a7.96 7.96 0 0 0 1.444-.118c.43-.087.788-.223 1.076-.407a1.79 1.79 0 0 0 .643-.735c.15-.298.214-.656.197-1.076v-4.174c0-.648.083-1.2.25-1.654.166-.464.464-.84.893-1.13.438-.298 1.028-.516 1.772-.656s1.7-.2 2.835-.2v2.953c-.35.01-.67.04-.958.092-.28.053-.52.15-.722.3-.193.13-.34.315-.446.55s-.158.543-.158.92v3.925c-.053 1.636-1.076 2.608-3.072 2.914v.158c1.006.15 1.776.464 2.3.945s.788 1.133.76 1.956V25.5c0 .376.052.683.158.92a1.27 1.27 0 0 0 .446.55 1.84 1.84 0 0 0 .722.289 6.49 6.49 0 0 0 .958.092v2.967c-1.146 0-2.1-.07-2.835-.2s-1.335-.36-1.772-.656c-.43-.3-.726-.665-.893-1.13s-.25-1.02-.25-1.667V22.53m7.483 1.667c0-.4.057-.757.17-1.037a1.8 1.8 0 0 1 .499-.696c.2-.175.455-.302.735-.38s.582-.118.906-.118a3.12 3.12 0 0 1 .866.118c.28.08.525.206.735.38a1.81 1.81 0 0 1 .5.696c.123.28.184.626.184 1.037 0 .394-.06.73-.184 1s-.3.512-.5.696a1.87 1.87 0 0 1-.735.394c-.27.087-.56.13-.866.13a3.07 3.07 0 0 1-.906-.13 1.87 1.87 0 0 1-.735-.394 2.1 2.1 0 0 1-.5-.696 2.66 2.66 0 0 1-.17-1m7.405 8.336c-.42 0-.853-.03-1.3-.092s-.818-.14-1.116-.236v-3.15a4.71 4.71 0 0 0 .76.184c.236.044.503.066.8.066a1.79 1.79 0 0 0 .617-.105 1.03 1.03 0 0 0 .512-.354c.15-.166.267-.394.354-.683.088-.28.13-.643.13-1.1V11.4h4.004v16.264a6.58 6.58 0 0 1-.263 1.89c-.166.595-.442 1.1-.827 1.55-.376.446-.866.796-1.47 1.05s-1.34.38-2.205.38m.6-24.927c0-.376.057-.687.17-.932a1.54 1.54 0 0 1 .46-.604c.2-.157.433-.267.696-.328.27-.06.556-.092.853-.092s.578.03.84.092.5.17.683.328a1.49 1.49 0 0 1 .473.604c.123.245.184.556.184.932 0 .368-.06.678-.184.932-.114.254-.27.46-.473.617-.193.15-.42.258-.683.328a3.69 3.69 0 0 1-.84.092 3.86 3.86 0 0 1-.853-.092 2.06 2.06 0 0 1-.696-.328 1.65 1.65 0 0 1-.46-.617c-.114-.254-.17-.564-.17-.932m18.082 14.1c0 .77-.14 1.444-.42 2.02a3.9 3.9 0 0 1-1.195 1.444c-.516.385-1.142.674-1.877.866s-1.558.3-2.468.3c-.48 0-.928-.017-1.34-.052-.4-.026-.8-.074-1.168-.144a9.93 9.93 0 0 1-1.063-.262 8.93 8.93 0 0 1-1.037-.394v-3.308c.368.184.753.35 1.155.5l1.22.394 1.168.25c.385.06.74.092 1.063.092.36 0 .665-.03.92-.092.254-.07.46-.162.617-.276a1.07 1.07 0 0 0 .354-.42 1.21 1.21 0 0 0 .118-.525 1.19 1.19 0 0 0-.092-.486c-.053-.15-.18-.302-.38-.46-.2-.166-.5-.35-.893-.55l-1.562-.76L63.8 19c-.464-.3-.85-.608-1.155-.958-.298-.35-.52-.748-.67-1.195-.15-.455-.223-.993-.223-1.615 0-.683.13-1.278.394-1.785.263-.516.634-.945 1.116-1.286s1.06-.595 1.733-.76c.683-.175 1.44-.263 2.27-.263a10.04 10.04 0 0 1 2.494.302 12.8 12.8 0 0 1 2.428.906L70.98 15.17a17.1 17.1 0 0 0-1.903-.774 5.7 5.7 0 0 0-1.811-.302c-.543 0-.936.096-1.18.3a.96.96 0 0 0-.354.788c0 .175.03.333.092.473.06.13.184.27.368.42.184.14.442.298.774.473l1.3.617 1.68.814c.5.263.928.564 1.286.906a3.53 3.53 0 0 1 .827 1.195c.193.455.3 1.006.3 1.654m7.118 4.93c0 .648-.083 1.203-.25 1.667s-.468.84-.906 1.13c-.43.298-1.015.516-1.76.656s-1.7.2-2.835.2V27.36c.35-.01.665-.04.945-.092s.516-.15.7-.3c.2-.13.354-.315.46-.55.114-.236.17-.543.17-.92v-3.925c-.026-.823.228-1.475.76-1.956s1.3-.796 2.297-.945v-.158c-1.986-.306-3.006-1.278-3.058-2.914v-3.925c0-.376-.057-.683-.17-.92a1.23 1.23 0 0 0-.46-.55 1.73 1.73 0 0 0-.709-.289 5.97 5.97 0 0 0-.945-.092v-2.95c1.146 0 2.1.07 2.835.2s1.33.36 1.76.656c.438.3.74.665.906 1.13.166.455.25 1.006.25 1.654v4.174c-.01.42.057.78.197 1.076a1.79 1.79 0 0 0 .643.735c.3.184.643.32 1.063.407.43.08.914.118 1.457.118v3.137c-1.094 0-1.93.18-2.507.538-.57.36-.853.963-.853 1.8v4.135"
     fill="#558"
     id="path1" />
  <path
     d="M21.084 54.2c-.3 0-.56-.02-.782-.062-.223-.035-.416-.085-.58-.15V52.58a4.91 4.91 0 0 0 .642.123 4.88 4.88 0 0 0 .738.053 2.5 2.5 0 0 0 .65-.088 1.44 1.44 0 0 0 .598-.299c.182-.147.328-.35.44-.606s.167-.586.167-.984V37.93H24.6v12.674c0 .615-.088 1.148-.264 1.6a2.92 2.92 0 0 1-.721 1.116 2.78 2.78 0 0 1-1.107.659c-.428.147-1.012.22-1.533.22m11.795-4.755h-.07a5.92 5.92 0 0 1-.58.686 2.84 2.84 0 0 1-1.398.739c-.282.06-.606.088-.976.088-.404 0-.776-.06-1.116-.176a2.21 2.21 0 0 1-.888-.52c-.246-.24-.44-.54-.58-.896-.14-.363-.2-.8-.2-1.283 0-.96.337-1.7 1-2.215.68-.516 1.7-.797 3.094-.844l1.617-.062v-.606c0-.393-.044-.72-.132-.984-.082-.264-.205-.475-.37-.633a1.33 1.33 0 0 0-.598-.352 2.83 2.83 0 0 0-.809-.105 4.3 4.3 0 0 0-1.362.21 8.73 8.73 0 0 0-1.204.51l-.562-1.204c.434-.234.917-.434 1.45-.598a5.68 5.68 0 0 1 1.679-.246c.598 0 1.113.062 1.547.185.44.117.8.308 1.08.57a2.36 2.36 0 0 1 .642.993c.142.403.2.894.2 1.468v6.6H33.1zm-2.6.215a2.88 2.88 0 0 0 .993-.167 2.12 2.12 0 0 0 .79-.5c.223-.228.396-.513.52-.852.13-.346.193-.75.193-1.213v-.87l-1.257.062c-.527.023-.97.082-1.327.176s-.645.226-.86.396c-.2.164-.363.366-.457.606a2.14 2.14 0 0 0-.141.8c0 .54.14.935.422 1.187s.662.378 1.125.378m5.417-8.532h1.652L39 46.5l.23.747.264.932.237.896.15.642h.062l.15-.642.237-.896.264-.932.23-.747 1.75-5.37H44.2l-3.296 9.65h-2.03zm15.158 8.314h-.07a5.92 5.92 0 0 1-.58.686 2.84 2.84 0 0 1-1.398.739c-.282.06-.606.088-.976.088-.404 0-.776-.06-1.116-.176a2.21 2.21 0 0 1-.888-.52c-.246-.24-.44-.54-.58-.896-.14-.363-.2-.8-.2-1.283 0-.96.337-1.7 1-2.215.68-.516 1.7-.797 3.094-.844l1.617-.062v-.606c0-.393-.044-.72-.132-.984-.082-.264-.205-.475-.37-.633a1.33 1.33 0 0 0-.598-.352 2.83 2.83 0 0 0-.809-.105 4.3 4.3 0 0 0-1.362.21 8.73 8.73 0 0 0-1.204.51l-.562-1.204c.434-.234.917-.434 1.45-.598a5.68 5.68 0 0 1 1.68-.246c.598 0 1.113.062 1.547.185.44.117.8.308 1.08.57a2.36 2.36 0 0 1 .642.993c.142.403.2.894.2 1.468v6.6h-1.15zm-2.6.22a2.88 2.88 0 0 0 .993-.167 2.12 2.12 0 0 0 .79-.5c.223-.23.396-.513.52-.852.13-.346.193-.75.193-1.213v-.87l-1.257.062c-.527.023-.97.082-1.327.176s-.645.226-.86.396c-.2.164-.363.366-.457.606a2.14 2.14 0 0 0-.141.8c0 .54.14.935.422 1.187.287.252.662.378 1.125.378m13.933-2.323c0 .568-.103 1.078-.308 1.53a3.09 3.09 0 0 1-.861 1.134c-.375.3-.832.548-1.37.712-.54.158-1.146.237-1.82.237a10.06 10.06 0 0 1-1.828-.158c-.563-.1-1.034-.25-1.415-.448v-1.564l.677.28.8.237.87.176a6.71 6.71 0 0 0 .888.062c.937 0 1.63-.176 2.074-.527.45-.352.677-.855.677-1.512a2.35 2.35 0 0 0-.132-.826c-.082-.234-.23-.448-.448-.642-.2-.2-.495-.4-.853-.57a12.33 12.33 0 0 0-1.354-.606 8.44 8.44 0 0 1-1.362-.668c-.38-.246-.697-.522-.95-.826-.246-.305-.43-.65-.554-1.037-.117-.387-.176-.826-.176-1.318 0-.516.094-.975.28-1.38a2.82 2.82 0 0 1 .791-1.02 3.53 3.53 0 0 1 1.213-.642c.475-.146.996-.22 1.564-.22.697 0 1.324.067 1.88.202.557.13 1.052.296 1.485.5l-.6 1.37c-.38-.17-.814-.316-1.3-.44a5.74 5.74 0 0 0-1.494-.193c-.715 0-1.27.167-1.66.5a1.67 1.67 0 0 0-.6 1.336c0 .334.044.624.132.87a1.76 1.76 0 0 0 .439.659c.205.193.475.378.8.554.34.17.756.352 1.248.545a11.57 11.57 0 0 1 1.397.65 4.18 4.18 0 0 1 1.011.756 2.73 2.73 0 0 1 .606.976c.14.37.215.822.215 1.326m5.954 3.597c-.592 0-1.146-.1-1.66-.273a3.46 3.46 0 0 1-1.345-.88c-.38-.404-.68-.917-.896-1.538-.217-.627-.325-1.38-.325-2.26 0-.92.1-1.7.334-2.338.223-.645.527-1.166.914-1.564a3.52 3.52 0 0 1 1.37-.88c.52-.183 1.08-.273 1.68-.273a5.96 5.96 0 0 1 1.336.149 4.92 4.92 0 0 1 1.099.369l-.475 1.354c-.135-.06-.284-.114-.448-.167a5.1 5.1 0 0 0-.5-.15c-.176-.047-.35-.082-.52-.105a2.88 2.88 0 0 0-.483-.044c-.92 0-1.6.296-2.013.888-.422.586-.633 1.5-.633 2.742 0 1.236.2 2.142.633 2.716.428.568 1.075.852 1.942.852a4.82 4.82 0 0 0 1.283-.158 7.35 7.35 0 0 0 1.055-.387v1.424a4.21 4.21 0 0 1-1.02.387c-.357.088-.82.132-1.342.132m8.77-9.998l.57.026a4.07 4.07 0 0 1 .545.062l-.2 1.477-.5-.07c-.17-.024-.33-.035-.483-.035-.37 0-.706.076-1 .228a2.24 2.24 0 0 0-.791.642 2.9 2.9 0 0 0-.5 1.002 4.45 4.45 0 0 0-.176 1.292v5.203h-1.6v-9.65h1.3l.193 1.767h.07l.466-.73a3.5 3.5 0 0 1 .563-.615 2.55 2.55 0 0 1 .703-.431 2.36 2.36 0 0 1 .906-.167m4.45 9.825h-1.6v-9.65h1.6v9.65m-1.46-13.025a.98.98 0 0 1 .668-.237 1 1 0 0 1 .36.062.7.7 0 0 1 .299.176.8.8 0 0 1 .202.316c.053.123.08.273.08.448 0 .34-.094.595-.28.765-.182.164-.4.246-.66.246s-.493-.123-.675-.288c-.176-.164-.26-.42-.258-.744.001-.33.1-.586.265-.744zm8.776 13.2a3.59 3.59 0 0 1-.94-.114c-.28-.076-.536-.176-.765-.3a3.06 3.06 0 0 1-.598-.448 4.34 4.34 0 0 1-.457-.536h-.105l.053.57.035.475.018.378v4.122h-1.6V41.13h1.3l.23 1.3h.07a3.91 3.91 0 0 1 .457-.571 2.55 2.55 0 0 1 .589-.466 3.08 3.08 0 0 1 .765-.316 3.39 3.39 0 0 1 .949-.123c.55 0 1.052.105 1.503.316s.835.527 1.15.95c.322.416.57.935.747 1.556s.264 1.342.264 2.162c0 .826-.088 1.553-.264 2.18-.176.62-.425 1.143-.747 1.564-.316.422-.7.74-1.15.958-.45.2-1.063.316-1.614.316m-.197-8.675c-.445 0-.823.067-1.134.202-.305.135-.554.34-.747.615s-.328.618-.422 1.028a7.78 7.78 0 0 0-.149 1.45v.36a9.83 9.83 0 0 0 .114 1.582c.082.457.217.844.404 1.16a1.94 1.94 0 0 0 .765.712c.316.158.712.237 1.187.237.8 0 1.37-.32 1.74-.958.375-.64.562-1.556.563-2.75 0-1.22-.188-2.13-.562-2.733s-.955-.905-1.758-.905m9.312 7.365c.105 0 .223-.01.352-.018l.387-.044.334-.062.237-.062v1.213c-.076.035-.173.07-.3.105a3.29 3.29 0 0 1-.387.088c-.14.03-.287.05-.44.062a3.81 3.81 0 0 1-.448.026c-.363 0-.7-.047-1-.14a1.92 1.92 0 0 1-.81-.483c-.223-.23-.398-.536-.527-.923-.13-.393-.193-.885-.193-1.477v-5.6h-1.362v-.712l1.362-.686.686-2.022h.923v2.215h2.426v1.204h-2.426v5.6c0 .568.1.996.272 1.283s.492.43.914.43"
     stroke="#000"
     id="path2" />
  <path
     style="fill:#ffffff;stroke-width:0.0596421"
     d="m 20.436031,54.630056 c -0.224895,-0.02687 -0.580511,-0.109441 -0.790259,-0.183488 l -0.381358,-0.134631 v -1.151992 c 0,-0.88221 0.01746,-1.151827 0.07455,-1.151285 0.041,3.9e-4 0.222167,0.04058 0.402585,0.08932 1.036801,0.280071 1.933449,0.227742 2.336463,-0.136357 0.427362,-0.386096 0.407075,-0.0044 0.407075,-7.658332 v -6.848022 h 1.283489 1.283489 l -0.01655,7.082505 c -0.01541,6.598429 -0.02382,7.106823 -0.123056,7.438299 -0.303543,1.013963 -0.956735,1.828959 -1.795364,2.240097 -0.732453,0.359085 -1.782744,0.521223 -2.681071,0.413887 z"
     id="path3" />
  <path
     style="fill:#ffffff;stroke-width:0.0596421"
     d="m 28.807157,51.31753 c -0.575494,-0.151142 -1.155805,-0.474992 -1.472951,-0.822 -0.705826,-0.772286 -1.006497,-2.018095 -0.763682,-3.164264 0.330339,-1.55931 1.530641,-2.454192 3.638224,-2.712466 0.295228,-0.03618 0.724652,-0.06609 0.954274,-0.06647 0.229622,-3.77e-4 0.561944,-0.01803 0.738492,-0.03923 l 0.320997,-0.03854 -0.03407,-0.40636 c -0.08049,-0.960102 -0.454943,-1.296774 -1.448286,-1.302164 -0.612161,-0.0033 -1.243839,0.155913 -2.022371,0.509801 -0.328083,0.149132 -0.630255,0.285665 -0.671494,0.303406 -0.06826,0.02937 -0.375325,-0.560418 -0.878223,-1.686833 l -0.135905,-0.304408 0.604196,-0.301215 c 1.216632,-0.606537 2.226173,-0.82805 3.520412,-0.772446 1.268228,0.05449 1.995318,0.319474 2.632933,0.959571 0.383432,0.384925 0.612182,0.787548 0.783459,1.37897 0.09284,0.320576 0.105777,0.775811 0.124194,4.370243 l 0.02056,4.012391 -1.000963,-0.01637 -1.000962,-0.01637 -0.08606,-0.372763 c -0.04733,-0.20502 -0.102245,-0.372764 -0.122026,-0.372764 -0.01978,0 -0.182858,0.111241 -0.362393,0.247203 -0.668228,0.506047 -1.350177,0.706882 -2.384081,0.702111 -0.344853,-0.0016 -0.773636,-0.0416 -0.954274,-0.08904 z m 1.77167,-2.170153 c 0.884253,-0.153986 1.344988,-0.615464 1.541872,-1.544356 0.04619,-0.217944 0.08445,-0.541071 0.08502,-0.71806 l 10e-4,-0.321798 -0.730616,0.03294 c -1.245869,0.05617 -1.99066,0.313995 -2.227997,0.771275 -0.135716,0.261482 -0.176352,0.963557 -0.07343,1.268614 0.09406,0.278789 0.354601,0.475852 0.702731,0.53152 0.195479,0.03126 0.243392,0.06426 0.249957,0.172161 0.008,0.132053 0.0084,0.132105 0.03325,0.0048 0.02092,-0.107124 0.09094,-0.14013 0.418175,-0.197116 z"
     id="path4" />
  <path
     style="fill:#ffffff;stroke-width:0.0596421"
     d="m 38.328873,50.621272 c -0.263901,-0.747872 -3.378575,-9.900279 -3.378575,-9.927873 0,-0.01085 0.595396,-0.01251 1.323102,-0.0037 l 1.323101,0.01605 0.938327,2.862823 c 0.516079,1.574553 1.024303,3.158052 1.129387,3.518887 0.105083,0.360835 0.210637,0.677521 0.234564,0.703745 0.02393,0.02623 0.114338,-0.201906 0.200914,-0.506958 0.188953,-0.665782 2.099632,-6.54124 2.140467,-6.582077 0.01574,-0.01574 0.606818,-0.02137 1.313508,-0.01252 l 1.284891,0.0161 -1.796779,5.26342 -1.79678,5.263419 h -1.350203 -1.350204 z"
     id="path5" />
  <path
     style="fill:#ffffff;stroke-width:0.0596421"
     d="M 46.711169,51.29445 C 46.131745,51.137748 45.726178,50.910738 45.356,50.535912 c -0.648152,-0.656291 -0.890039,-1.393193 -0.84807,-2.583626 0.03027,-0.858729 0.135181,-1.206258 0.546235,-1.809553 0.624127,-0.916016 1.908331,-1.470753 3.613827,-1.561062 0.344433,-0.01824 0.824187,-0.04825 1.06612,-0.06668 l 0.439877,-0.03352 -0.02793,-0.435233 c -0.01903,-0.296582 -0.07366,-0.526492 -0.171488,-0.721705 -0.199537,-0.398185 -0.456105,-0.519878 -1.161072,-0.550711 -0.706118,-0.03088 -1.310526,0.118759 -2.195916,0.543675 l -0.65905,0.316292 -0.431006,-0.913863 c -0.237053,-0.502625 -0.447499,-0.96583 -0.467658,-1.029346 -0.07723,-0.243342 1.729208,-0.984869 2.769978,-1.13705 0.617344,-0.09027 1.922307,-0.04243 2.418663,0.08867 1.29012,0.34074 2.064685,1.133471 2.321279,2.37572 0.08023,0.38844 0.09423,1.03229 0.09423,4.335441 v 3.879254 h -0.981797 -0.981796 l -0.05864,-0.223658 c -0.03225,-0.123012 -0.07645,-0.297465 -0.09823,-0.387674 -0.02178,-0.09021 -0.05125,-0.164016 -0.06551,-0.164016 -0.01425,0 -0.165668,0.104335 -0.336477,0.231855 -0.701602,0.523791 -1.147205,0.665911 -2.18929,0.698251 -0.66997,0.02079 -0.87837,0.0052 -1.241117,-0.09291 z m 1.736705,-2.118961 c 0.522081,-0.08057 0.834654,-0.22172 1.117635,-0.504702 0.378026,-0.378025 0.543519,-0.819553 0.580283,-1.548166 l 0.02832,-0.561276 -0.738149,0.03771 c -1.569507,0.08019 -2.238191,0.431989 -2.348727,1.235687 -0.100416,0.730106 0.150235,1.188998 0.71896,1.316273 0.26168,0.05856 0.3266,0.09704 0.333139,0.197439 0.0079,0.121161 0.0088,0.121024 0.03336,-0.0048 0.01949,-0.100026 0.0822,-0.138341 0.275178,-0.168122 z"
     id="path6" />
  <path
     style="fill:#ffffff;stroke-width:0.0596421"
     d="m 56.361829,51.350744 c -0.705209,-0.09577 -1.468622,-0.298995 -1.900302,-0.505872 l -0.425742,-0.204031 v -1.254814 c 0,-0.690148 0.02203,-1.254814 0.04894,-1.254814 0.02692,0 0.290809,0.103374 0.586422,0.229722 1.145524,0.489605 2.058273,0.692178 3.092268,0.68629 1.166828,-0.0066 1.771053,-0.244475 2.070816,-0.815094 0.187237,-0.356418 0.18814,-1.15587 0.0017,-1.510621 -0.225377,-0.428852 -0.818698,-0.808569 -2.0427,-1.307301 -1.690793,-0.68893 -2.528387,-1.278235 -3.057331,-2.151044 -0.56655,-0.934862 -0.728914,-2.315103 -0.399064,-3.39239 0.663751,-2.167799 3.220586,-3.100822 6.34278,-2.314564 0.54766,0.137916 1.595217,0.539706 1.712238,0.656727 0.07091,0.0709 -0.879377,2.198195 -0.972856,2.177822 -0.04238,-0.0092 -0.224674,-0.08137 -0.405091,-0.160294 -0.863925,-0.37793 -1.96242,-0.598271 -2.758338,-0.553279 -0.666049,0.03765 -1.118812,0.243742 -1.386792,0.631247 -0.165836,0.239804 -0.17874,0.296526 -0.176381,0.775348 0.005,1.0122 0.306367,1.294492 2.263856,2.120476 2.106572,0.888892 2.92954,1.577489 3.334556,2.790106 0.685434,2.052184 -0.113838,4.043653 -1.973648,4.917549 -0.739615,0.347533 -1.278543,0.449476 -2.494108,0.47178 -0.590458,0.01083 -1.248012,-0.004 -1.461233,-0.03295 z"
     id="path7" />
  <path
     style="fill:#ffffff;stroke-width:0.0596421"
     d="m 67.061191,51.346631 c -1.546285,-0.258658 -2.70213,-1.180368 -3.282714,-2.617747 -0.39297,-0.972897 -0.554797,-2.255645 -0.443445,-3.515035 0.08753,-0.989968 0.235369,-1.55312 0.611971,-2.331145 0.262254,-0.541793 0.372459,-0.695521 0.81723,-1.13998 0.417727,-0.417435 0.609129,-0.559221 1.021055,-0.756375 0.278827,-0.133451 0.667992,-0.286093 0.864811,-0.339204 0.498875,-0.13462 1.741893,-0.183808 2.361625,-0.09345 0.553479,0.0807 1.439051,0.351224 1.821523,0.556446 l 0.246766,0.132406 -0.372721,1.060348 c -0.204996,0.583192 -0.387619,1.075248 -0.405829,1.093458 -0.01821,0.01821 -0.270179,-0.0613 -0.55993,-0.176679 -0.721682,-0.287383 -1.422708,-0.421938 -1.945263,-0.373371 -1.005362,0.09344 -1.510502,0.598884 -1.789036,1.79012 -0.09837,0.420722 -0.09345,2.229797 0.0074,2.728813 0.114359,0.565725 0.401181,1.106489 0.712506,1.343334 0.368263,0.280161 0.656432,0.348094 1.443814,0.340366 0.757018,-0.0074 1.223009,-0.124395 2.11489,-0.530838 0.250982,-0.114377 0.468263,-0.207957 0.482848,-0.207957 0.01458,0 0.02652,0.546464 0.02652,1.214364 v 1.214365 l -0.491398,0.224623 c -0.6701,0.306311 -1.394961,0.448018 -2.252141,0.440284 -0.377237,-0.0034 -0.822961,-0.02912 -0.990499,-0.05714 z"
     id="path8" />
  <path
     style="fill:#ffffff;stroke-width:0.0596421"
     d="m 72.166998,45.954274 v -5.27833 h 1.075431 c 0.807933,0 1.081329,0.01854 1.099147,0.07455 0.01304,0.041 0.04134,0.257238 0.06288,0.48052 l 0.03916,0.405966 0.289528,-0.270819 c 0.654094,-0.611828 1.285839,-0.86889 2.136954,-0.86954 0.631078,-4.83e-4 1.442643,0.116708 1.47986,0.213693 0.02518,0.06561 -0.254475,2.291052 -0.291829,2.322325 -0.009,0.0075 -0.284771,-0.02497 -0.612803,-0.07226 -0.328032,-0.04728 -0.745715,-0.07369 -0.928185,-0.05867 -0.643519,0.05294 -1.224521,0.485516 -1.519364,1.131211 -0.293396,0.642528 -0.32147,1.009572 -0.32373,4.232484 l -0.0021,2.967196 h -1.252485 -1.252485 z"
     id="path9" />
  <path
     style="fill:#ffffff;stroke-width:0.0596421"
     d="m 79.204771,45.954274 v -5.27833 h 1.252485 1.252486 v 5.039762 5.039761 h -0.238569 -0.238569 v 0.238569 0.238568 h -1.013916 -1.013917 z"
     id="path10" />
  <path
     style="fill:#ffffff;stroke-width:0.0596421"
     d="m 80.188867,39.966331 c -0.296826,-0.07594 -0.534206,-0.224168 -0.760951,-0.475147 -0.239658,-0.265273 -0.341599,-0.555466 -0.342096,-0.973838 l -3.33e-4,-0.279871 -0.252073,-0.01834 -0.252072,-0.01834 0.535373,-0.453256 c 0.626682,-0.53056 0.827261,-0.644399 1.216664,-0.690518 0.824761,-0.09768 1.555289,0.580166 1.555289,1.443131 0,0.3125 -0.127881,0.743744 -0.286684,0.966762 -0.252695,0.354876 -0.977235,0.61094 -1.413117,0.499417 z"
     id="path11" />
  <path
     style="fill:#ffffff;stroke-width:0.0596421"
     d="m 83.737575,48.131213 v -7.455269 h 1.097783 1.097783 l 0.04224,0.313122 c 0.02323,0.172216 0.05367,0.332431 0.06763,0.356033 0.01397,0.0236 0.151805,-0.04699 0.306303,-0.156878 0.661265,-0.470313 1.380015,-0.691203 2.249096,-0.691203 1.004796,0 1.874054,0.322583 2.546587,0.945043 1.150294,1.064647 1.698853,2.939725 1.535211,5.247639 -0.21833,3.079199 -1.855691,4.839408 -4.377571,4.706011 -0.634513,-0.03356 -1.389319,-0.255671 -1.755876,-0.516683 -0.09544,-0.06796 -0.189511,-0.123561 -0.209049,-0.123561 -0.01954,0 -0.03552,1.086978 -0.03552,2.415507 v 2.415507 H 85.019886 83.73758 Z m 5.363924,0.832195 c 0.714216,-0.398198 1.069203,-1.603712 1.000257,-3.396808 -0.06763,-1.758911 -0.489065,-2.586711 -1.40557,-2.760886 L 88.33002,42.736127 88.3196,42.496294 88.30918,42.256461 88.28635,42.50994 c -0.02248,0.249525 -0.02635,0.253479 -0.248491,0.253479 -0.629448,0 -1.12804,0.312336 -1.389082,0.87017 -0.275347,0.588404 -0.364652,1.288882 -0.32628,2.559254 0.05532,1.831404 0.353213,2.546469 1.184226,2.842594 0.460316,0.16403 1.234056,0.129084 1.594776,-0.07203 z"
     id="path12" />
  <path
     style="fill:#ffffff;stroke-width:0.0596421"
     d="m 96.427793,51.322864 c -1.300719,-0.330825 -1.943923,-1.236361 -2.075017,-2.921317 -0.03071,-0.394708 -0.05644,-1.811338 -0.05719,-3.148068 l -0.0014,-2.430417 h -0.656064 -0.656064 v -0.745067 -0.745068 l 0.70779,-0.354804 0.707789,-0.354804 0.365769,-1.052067 c 0.201173,-0.578637 0.36577,-1.076737 0.36577,-1.106888 0,-0.03081 0.378734,-0.05482 0.864811,-0.05482 h 0.864811 v 1.133201 1.1332 h 1.222664 1.222664 v 1.073559 1.073559 h -1.222664 -1.222664 v 2.634279 c 0,3.646582 0.0098,3.687888 0.877011,3.687673 0.284064,-7.1e-5 0.691161,-0.05485 1.046448,-0.14082 l 0.581511,-0.140704 v 1.056215 1.056214 l -0.223658,0.100396 c -0.65284,0.293046 -2.035429,0.418721 -2.712366,0.246549 z"
     id="path13" />
</svg>
