<?xml version="1.0" encoding="UTF-8" standalone="no"?>
<!-- Created with Inkscape (http://www.inkscape.org/) -->

<svg
   width="120mm"
   height="60mm"
   viewBox="0 0 120 60"
   version="1.1"
   id="svg5"
   sodipodi:docname="mui_logo.svg"
   inkscape:version="1.1.1 (3bf5ae0d25, 2021-09-20)"
   xmlns:inkscape="http://www.inkscape.org/namespaces/inkscape"
   xmlns:sodipodi="http://sodipodi.sourceforge.net/DTD/sodipodi-0.dtd"
   xmlns="http://www.w3.org/2000/svg"
   xmlns:svg="http://www.w3.org/2000/svg">
  <sodipodi:namedview
     id="namedview7"
     pagecolor="#ffffff"
     bordercolor="#666666"
     borderopacity="1.0"
     inkscape:pageshadow="2"
     inkscape:pageopacity="0.0"
     inkscape:pagecheckerboard="0"
     inkscape:document-units="px"
     showgrid="false"
     inkscape:zoom="3.1108586"
     inkscape:cx="166.83497"
     inkscape:cy="113.31277"
     inkscape:window-width="3157"
     inkscape:window-height="1391"
     inkscape:window-x="3716"
     inkscape:window-y="442"
     inkscape:window-maximized="0"
     inkscape:current-layer="layer1"
     units="mm" />
  <defs
     id="defs2" />
  <g
     inkscape:label="Layer 1"
     inkscape:groupmode="layer"
     id="layer1">
    <g
       id="g104"
       transform="matrix(0.16244078,0,0,0.16244078,29.806119,1.6783565)">
      <g
         id="g58">
        <path
           class="st0"
           d="M 52.3,139 V 20.9 l 102.3,59 v 39.4 L 86.4,79.9 v 78.7 z"
           id="path50" />
        <path
           class="st1"
           d="m 154.6,79.9 102.3,-59 V 139 l -68.2,39.4 -34.1,-19.7 68.2,-39.4 V 79.9 l -68.2,39.4 z"
           id="path52" />
        <path
           class="st0"
           d="M 154.6,158.7 V 198 l 68.2,39.4 V 198 Z"
           id="path54" />
        <path
           class="st1"
           d="m 222.8,237.4 102.3,-59 V 99.6 L 291,119.3 v 39.4 L 222.8,198 Z M 291,79.9 V 40.6 l 34.1,-19.7 v 39.4 z"
           id="path56" />
      </g>
      <g
         id="g80">
        <path
           class="st1"
           d="M 29.1,268.9 46,311 62.9,268.9 h 8.8 v 51.6 h -6.8 v -20.1 l 0.6,-21.7 -16.9,41.8 h -5.2 l -16.9,-41.6 0.7,21.6 v 20.1 H 20.4 V 269 h 8.7 z"
           id="path60" />
        <path
           class="st1"
           d="m 106.2,320.4 c -0.4,-0.8 -0.7,-2.1 -0.9,-4 -3,3.2 -6.7,4.7 -10.9,4.7 -3.8,0 -6.9,-1.1 -9.3,-3.2 -2.4,-2.1 -3.6,-4.8 -3.6,-8.1 0,-4 1.5,-7.1 4.6,-9.3 3,-2.2 7.3,-3.3 12.8,-3.3 h 6.4 v -3 c 0,-2.3 -0.7,-4.1 -2.1,-5.5 -1.4,-1.4 -3.4,-2 -6.1,-2 -2.3,0 -4.3,0.6 -5.9,1.8 -1.6,1.2 -2.4,2.6 -2.4,4.3 h -6.6 c 0,-1.9 0.7,-3.8 2,-5.5 1.4,-1.8 3.2,-3.2 5.5,-4.2 2.3,-1 4.9,-1.6 7.7,-1.6 4.4,0 7.9,1.1 10.4,3.3 2.5,2.2 3.8,5.2 3.9,9.1 v 17.6 c 0,3.5 0.4,6.3 1.3,8.4 v 0.6 h -6.8 z m -10.8,-5 c 2.1,0 4,-0.5 5.8,-1.6 1.8,-1.1 3.2,-2.4 4,-4.1 v -7.9 h -5.1 c -8,0 -12,2.3 -12,7 0,2.1 0.7,3.7 2.1,4.8 1.3,1.2 3,1.8 5.2,1.8 z"
           id="path62" />
        <path
           class="st1"
           d="m 130.9,272.8 v 9.3 h 7.2 v 5.1 h -7.2 V 311 c 0,1.5 0.3,2.7 1,3.5 0.6,0.8 1.7,1.2 3.3,1.2 0.8,0 1.8,-0.1 3.1,-0.4 v 5.3 c -1.7,0.5 -3.4,0.7 -5,0.7 -2.9,0 -5.1,-0.9 -6.6,-2.7 -1.5,-1.8 -2.2,-4.3 -2.2,-7.5 v -23.8 h -7 v -5.1 h 7 v -9.3 h 6.4 z"
           id="path64" />
        <path
           class="st1"
           d="m 161.6,321.1 c -5.2,0 -9.4,-1.7 -12.7,-5.1 -3.3,-3.4 -4.9,-8 -4.9,-13.7 v -1.2 c 0,-3.8 0.7,-7.2 2.2,-10.2 1.5,-3 3.5,-5.3 6.1,-7 2.6,-1.7 5.4,-2.5 8.5,-2.5 5,0 8.9,1.6 11.6,4.9 2.7,3.3 4.1,8 4.1,14.1 v 2.7 h -26 c 0.1,3.8 1.2,6.8 3.3,9.2 2.1,2.3 4.8,3.5 8.1,3.5 2.3,0 4.3,-0.5 5.9,-1.4 1.6,-0.9 3,-2.2 4.2,-3.8 l 4,3.1 c -3.1,5 -8,7.4 -14.4,7.4 z m -0.8,-34.3 c -2.6,0 -4.9,1 -6.7,2.9 -1.8,1.9 -2.9,4.6 -3.3,8.1 H 170 v -0.5 c -0.2,-3.3 -1.1,-5.9 -2.7,-7.7 -1.6,-1.9 -3.8,-2.8 -6.5,-2.8 z"
           id="path66" />
        <path
           class="st1"
           d="m 202.7,288 c -1,-0.2 -2.1,-0.2 -3.2,-0.2 -4.3,0 -7.2,1.8 -8.7,5.5 v 27.2 h -6.6 v -38.3 h 6.4 l 0.1,4.4 c 2.1,-3.4 5.2,-5.1 9.1,-5.1 1.3,0 2.2,0.2 2.9,0.5 z"
           id="path68" />
        <path
           class="st1"
           d="m 208.7,271.9 c 0,-1.1 0.3,-2 1,-2.7 0.7,-0.7 1.6,-1.1 2.9,-1.1 1.3,0 2.2,0.4 2.9,1.1 0.7,0.7 1,1.6 1,2.7 0,1.1 -0.3,1.9 -1,2.7 -0.7,0.7 -1.6,1.1 -2.9,1.1 -1.3,0 -2.2,-0.4 -2.9,-1.1 -0.7,-0.7 -1,-1.6 -1,-2.7 z m 7.1,48.5 h -6.6 v -38.3 h 6.6 z"
           id="path70" />
        <path
           class="st1"
           d="m 249.9,320.4 c -0.4,-0.8 -0.7,-2.1 -0.9,-4 -3,3.2 -6.7,4.7 -10.9,4.7 -3.8,0 -6.9,-1.1 -9.3,-3.2 -2.4,-2.1 -3.6,-4.8 -3.6,-8.1 0,-4 1.5,-7.1 4.6,-9.3 3,-2.2 7.3,-3.3 12.8,-3.3 h 6.4 v -3 c 0,-2.3 -0.7,-4.1 -2.1,-5.5 -1.4,-1.4 -3.4,-2 -6.1,-2 -2.3,0 -4.3,0.6 -5.9,1.8 -1.6,1.2 -2.4,2.6 -2.4,4.3 H 226 c 0,-1.9 0.7,-3.8 2,-5.5 1.4,-1.8 3.2,-3.2 5.5,-4.2 2.3,-1 4.9,-1.6 7.7,-1.6 4.4,0 7.9,1.1 10.4,3.3 2.5,2.2 3.8,5.2 3.9,9.1 v 17.6 c 0,3.5 0.4,6.3 1.3,8.4 v 0.6 h -6.9 z m -10.8,-5 c 2.1,0 4,-0.5 5.8,-1.6 1.8,-1.1 3.2,-2.4 4,-4.1 v -7.9 h -5.1 c -8,0 -12,2.3 -12,7 0,2.1 0.7,3.7 2.1,4.8 1.3,1.2 3,1.8 5.2,1.8 z"
           id="path72" />
        <path
           class="st1"
           d="m 272.9,320.4 h -6.6 V 266 h 6.6 z"
           id="path74" />
        <path
           class="st1"
           d="M 338.6,268.9 V 304 c 0,4.9 -1.6,8.8 -4.6,11.9 -3,3.1 -7.1,4.8 -12.3,5.2 l -1.8,0.1 c -5.6,0 -10.1,-1.5 -13.5,-4.6 -3.4,-3 -5.1,-7.2 -5.1,-12.6 v -35.1 h 6.7 v 34.9 c 0,3.7 1,6.6 3.1,8.7 2.1,2.1 5,3.1 8.8,3.1 3.8,0 6.8,-1 8.8,-3.1 2,-2.1 3.1,-4.9 3.1,-8.7 v -35 h 6.8 z"
           id="path76" />
        <path
           class="st1"
           d="m 356.6,320.4 h -6.8 v -51.6 h 6.8 z"
           id="path78" />
      </g>
    </g>
  </g>
  <style
     type="text/css"
     id="style48"> .st0{fill:#00B0FF;} .st1{fill:#0081CB;} </style>
</svg>
