<?xml version="1.0" encoding="UTF-8" standalone="no"?>
<svg
   width="120"
   height="60"
   version="1.1"
   id="svg22"
   sodipodi:docname="postman_logo.svg"
   inkscape:version="1.4.2 (ebf0e940d0, 2025-05-08)"
   xmlns:inkscape="http://www.inkscape.org/namespaces/inkscape"
   xmlns:sodipodi="http://sodipodi.sourceforge.net/DTD/sodipodi-0.dtd"
   xmlns="http://www.w3.org/2000/svg"
   xmlns:svg="http://www.w3.org/2000/svg">
  <defs
     id="defs22" />
  <sodipodi:namedview
     id="namedview22"
     pagecolor="#505050"
     bordercolor="#eeeeee"
     borderopacity="1"
     inkscape:showpageshadow="0"
     inkscape:pageopacity="0"
     inkscape:pagecheckerboard="0"
     inkscape:deskcolor="#505050"
     showgrid="false"
     inkscape:zoom="16.766667"
     inkscape:cx="60"
     inkscape:cy="29.970179"
     inkscape:window-width="2560"
     inkscape:window-height="1368"
     inkscape:window-x="0"
     inkscape:window-y="0"
     inkscape:window-maximized="1"
     inkscape:current-layer="svg22" />
  <style
     id="style1"><![CDATA[.C{fill:#fff}.D{fill:#ff6c37}]]></style>
  <path
     d="M32.42 20.5c-3.842-4.976-10.304-7.146-16.37-5.5S5.504 21.787 4.704 28.022s2.234 12.34 7.69 15.464 12.255 2.656 17.23-1.188c6.8-5.248 8.03-15.006 2.798-21.797z"
     class="D"
     id="path2" />
  <path
     d="M25.362 24.36l-6.553 6.605-1.852-1.904c6.45-6.45 7.097-5.867 8.418-4.7z"
     class="C"
     id="path3" />
  <path
     d="M18.808 31.147c-.058-.001-.113-.025-.155-.065l-1.865-1.865c-.087-.1-.087-.233 0-.324 6.346-6.346 7.227-6.06 8.73-4.7.05.04.08.103.078.168.01.064-.015.128-.065.168l-6.553 6.553c-.046.042-.106.065-.168.065zm-1.528-2.072l1.528 1.528 6.217-6.217a1.4 1.4 0 0 0-1.839-.311c-1.127.518-2.94 2.046-5.906 5z"
     class="D"
     id="path4" />
  <path
     d="M20.686 32.792L18.9 30.98l6.553-6.476c1.76 1.723-.855 4.598-4.766 8.29z"
     class="C"
     id="path5" />
  <path
     d="M20.686 33.025c-.057-.005-.112-.027-.155-.065l-1.813-1.787c-.027-.066-.027-.14 0-.207-.02-.054-.02-.114 0-.168l6.553-6.553c.095-.09.242-.09.337 0 .43.395.666.958.648 1.54 0 1.748-1.995 3.95-5.388 7.162-.045.045-.105.072-.168.078zm-1.45-2.072l1.464 1.464c2.6-2.46 5.05-4.973 5.077-6.683.014-.363-.106-.718-.337-.997z"
     class="D"
     id="path6" />
  <path
     d="M17.008 29.1l1.295 1.295c.017.015.026.036.026.058s-.01.044-.026.058l-2.72.583a.26.26 0 0 1-.233-.44l1.593-1.58s.052 0 .078.026z"
     class="C"
     id="path7" />
  <path
     d="M15.506 31.355c-.176-.002-.337-.095-.427-.246a.49.49 0 0 1 .091-.583l1.58-1.593a.31.31 0 0 1 .414 0l1.295 1.295c.077.073.107.183.078.285s-.115.183-.22.207l-2.72.583zm1.45-1.97l-1.464 1.464 2.422-.518zm.13-.13z"
     class="D"
     id="path8" />
  <path
     d="M28.846 20.722c-.937-.902-2.408-.94-3.4-.086s-1.15 2.315-.388 3.37 2.208 1.35 3.325.68l-1.76-1.76z"
     class="C"
     id="path9" />
  <path
     d="M27.097 25.28c-1.1-.014-2.087-.685-2.504-1.704s-.186-2.188.588-2.972a2.77 2.77 0 0 1 3.885 0 .22.22 0 0 1 0 .337l-2.098 1.982 1.593 1.554a.22.22 0 0 1 .065.194c-.008.07-.046.13-.104.168a2.81 2.81 0 0 1-1.425.427zm0-5.025a2.28 2.28 0 0 0-1.606 3.885c.66.662 1.656.852 2.513.48l-1.528-1.528c-.05-.04-.078-.1-.078-.162s.03-.123.078-.162l2.02-2.033a2.32 2.32 0 0 0-1.399-.479z"
     class="D"
     id="path10" />
  <path
     d="M28.885 20.76l-2.202 2.202 1.76 1.76a2.68 2.68 0 0 0 .492-.363 2.59 2.59 0 0 0-.039-3.601z"
     class="C"
     id="path11" />
  <path
     d="M28.392 24.918c-.06.003-.116-.02-.155-.065l-1.76-1.76c-.05-.04-.078-.1-.078-.162s.03-.123.078-.162l2.202-2.163c.043-.065.116-.104.194-.104s.15.04.194.104a2.72 2.72 0 0 1 0 3.885c-.152.162-.327.3-.518.414-.048.024-.104.03-.155.013zm-1.425-1.995l1.464 1.464c.1-.07.196-.148.285-.233a2.29 2.29 0 0 0 .673-1.619 2.23 2.23 0 0 0-.557-1.476z"
     class="D"
     id="path12" />
  <path
     d="M25.634 24.633c-.364-.342-.93-.342-1.295 0l-5.867 5.854.97.984 6.217-5.44a.96.96 0 0 0-.013-1.399z"
     class="C"
     id="path13" />
  <path
     d="M19.39 31.704c-.058-.001-.113-.025-.155-.065l-.984-.984c-.087-.1-.087-.233 0-.324l5.867-5.828a1.19 1.19 0 0 1 2.033.881c-.013.327-.158.635-.4.855l-6.217 5.44a.22.22 0 0 1-.155.039zm-.686-1.217l.648.648 6.087-5.3a.71.71 0 0 0 .246-.518c.008-.2-.073-.395-.22-.53-.283-.282-.74-.282-1.023 0z"
     class="D"
     id="path14" />
  <path
     d="M13.926 37.157a.13.13 0 0 0 0 .155l.26 1.127c.022.134-.042.268-.16.335s-.267.052-.37-.037l-1.774-1.7 5.53-5.57h1.917l1.295 1.295c-2.02 1.767-4.273 3.248-6.696 4.404z"
     class="C"
     id="path15" />
  <path
     d="M13.81 39.06c-.147-.003-.286-.063-.39-.168l-1.684-1.684c-.05-.04-.078-.1-.078-.162s.03-.123.078-.162l5.57-5.57a.22.22 0 0 1 .117-.065h1.943c.05-.018.105-.018.155 0l1.295 1.295c.05.046.074.114.065.18.002.065-.027.128-.078.168l-.104.09a31.73 31.73 0 0 1-6.644 4.261l.26 1.036c.04.164.002.337-.1.47s-.26.213-.43.216zm-1.58-2.033l1.528 1.554c.03.026.074.026.104 0 .02-.027.02-.064 0-.09l-.26-1.127c-.042-.167.04-.34.194-.414a31.85 31.85 0 0 0 6.476-4.17L19.2 31.717h-1.736zm1.865.233z"
     class="D"
     id="path16" />
  <path
     d="M10.545 38.36l1.295-1.295 1.995 1.995-3.173-.22a.26.26 0 0 1-.117-.479z"
     class="C"
     id="path17" />
  <path
     d="M13.874 39.255l-3.16-.22a.49.49 0 0 1-.311-.829l1.295-1.295c.1-.087.233-.087.324 0l1.982 1.982a.22.22 0 0 1 0 .259c-.03.048-.076.085-.13.104zm-3.16-.725l2.6.168-1.425-1.334z"
     class="D"
     id="path18" />
  <path
     d="M19.508 31.614l-2.616.39 1.515-1.502z"
     class="C"
     id="path19" />
  <path
     d="M16.892 32.26a.22.22 0 0 1-.207-.13.22.22 0 0 1 0-.259l1.502-1.515c.095-.09.242-.09.337 0l1.1 1.1a.22.22 0 0 1 0 .233.22.22 0 0 1-.181.168l-2.6.39zm1.515-1.425l-.842.842 1.45-.22z"
     class="D"
     id="path20" />
  <path
     d="M19.508 31.614l-1.813.233c-.1.023-.204-.023-.255-.112s-.037-.202.034-.276l.945-.945z"
     class="C"
     id="path21" />
  <path
     d="M17.63 32.093a.48.48 0 0 1-.414-.246c-.102-.182-.07-.4.078-.557l.945-.945c.095-.09.242-.09.337 0l1.1 1.1c.067.063.1.16.06.247s-.1.147-.202.154l-1.813.233zm0-.48l1.373-.168-.61-.61-.777.777zm11.268-9.364c-.05-.085-.156-.118-.246-.078-.043.022-.076.06-.1.107s-.01.096.013.14c.09.19.066.417-.065.583-.034.032-.053.076-.053.123s.02.09.053.123c.033.013.07.013.104 0 .06.016.126-.004.168-.052.218-.266.263-.634.117-.945zm62.288 5.362l-1.53 3.295c-.14.278-.233.648-.5.648-.372 0-.417-.372-.557-.695l-1.252-2.737c-.093-.14-.093-.417-.278-.372-.233.047-.185.324-.185.5v5.613c0 .278 0 .557-.047.835s-.233.464-.5.464c-.278-.047-.372-.233-.417-.464v-8.722c0-.372-.093-.88.324-1.02.464-.14.742.233.927.648l1.425 3.155c.14.278.185.777.557.835.417 0 .464-.557.604-.835l1.425-3.062c.185-.417.417-.835.927-.742.5.14.372.648.372 1.067v8.073c0 .417.14 1.067-.464 1.067-.648 0-.5-.648-.5-1.114v-5.336c-.047-.372.047-.742-.324-1.114zm19.903.233c-.278.278-.185.648-.185.974v5.52c0 .324.093.835-.372.835-.5.047-.5-.464-.5-.835v-8.548c0-.324-.047-.742.324-.835.417-.14.648.185.835.557l2.273 5.058c.14.372.324.695.464 1.067.093.185.093.464.372.372.233-.093.185-.372.185-.557v-5.44c0-.233 0-.417.047-.648.047-.324.233-.464.5-.464.278.047.372.278.372.557v8.583c0 .372.14.88-.324 1.02-.5.185-.695-.324-.88-.742l-2.598-5.753c-.14-.278-.185-.604-.5-.742zm-52.657 2.18c-.047 1.02.047 1.995-.093 3.015-.233 1.425-1.02 2.134-2.46 2.134-1.53 0-2.413-.648-2.598-2.088-.233-2.088-.278-4.222 0-6.3.185-1.347 1.114-1.995 2.505-1.995s2.273.695 2.505 1.995c.233 1.114.093 2.18.14 3.247zm-.927 0V27.66c-.047-1.204-.695-1.904-1.76-1.856-1.02 0-1.624.648-1.684 1.856v4.792c.047 1.204.648 1.856 1.684 1.904 1.067 0 1.716-.648 1.76-1.904.047-.777 0-1.577 0-2.413zm46.755 4.5c0 .324-.047.557-.324.604-.233.047-.417 0-.5-.278-.047-.185-.14-.417-.185-.604-.417-1.425-.417-1.425-1.684-1.425h-.407c-1.577 0-1.577 0-2.134 1.684-.093.324-.14.777-.604.648-.464-.185-.324-.648-.233-1.02l2.273-8.398c.14-.417.185-1.02.777-.974.5.047.604.557.695.974l2.134 7.978c.093.278.14.557.185.835zm-3.108-2.598h.464c1.02 0 1.067-.047.742-1.204l-.88-3.294c-.047-.233 0-.557-.278-.557s-.324.324-.372.604l-.742 2.785c-.464 1.684-.417 1.684 1.067 1.684zm-59.05-1.9v-4.3c0-.695.233-.927.777-.927h1.577c2.134.047 2.923 1.02 2.875 3.48-.047 1.684-.88 2.645-2.33 2.737-.417 0-.777.047-1.204 0-.648-.047-.88.278-.835.974.047.835 0 1.684 0 2.46 0 .324-.047.695-.464.695s-.417-.372-.417-.742V30.04zm2.18.14c1.347 0 1.856-.324 2.088-1.3s.233-1.904-.464-2.645c-.742-.742-1.716-.417-2.598-.372-.324 0-.324.417-.324.742v2.088c0 1.484 0 1.484 1.3 1.484zm22.406 5.103c-.974 0-1.76-.185-2.366-.927-.185-.233-.417-.557-.14-.88.233-.278.5-.093.695.14.557.604 1.16.777 1.904.742.695-.047 1.204-.372 1.484-1.16.275-.718.113-1.53-.417-2.088-.5-.557-1.16-.777-1.81-1.114-.927-.417-1.624-1.02-1.716-2.273-.14-1.684.604-2.598 2.228-2.923.695-.14 1.347.047 1.948.278.324.093.604.372.464.777-.14.464-.464.278-.742.14-.604-.324-1.252-.324-1.856-.233-.5.093-.974.417-1.067 1.067s0 1.204.464 1.624c.604.5 1.3.695 1.948 1.02 1.02.5 1.577 1.392 1.577 2.69 0 1.204-.278 2.134-1.3 2.737-.464.324-.974.278-1.3.372zm10.162-4.872v-3.572c.047-.88-.278-1.16-.974-1.067-.278.047-.604 0-.88 0s-.464-.14-.464-.5c0-.278.185-.464.417-.464h4.732c.233 0 .417.14.417.417 0 .324-.185.5-.464.5-.324 0-.695.047-1.02 0-.648-.047-.835.278-.835.974v7.61c0 .372-.047.777-.464.777-.464 0-.464-.417-.464-.777v-3.885z"
     class="D"
     id="path22" />
</svg>
