<?xml version="1.0" encoding="UTF-8" standalone="no"?>
<svg
   width="120"
   height="60"
   version="1.1"
   id="svg10"
   sodipodi:docname="python_logo.svg"
   inkscape:version="1.4.2 (ebf0e940d0, 2025-05-08)"
   xmlns:inkscape="http://www.inkscape.org/namespaces/inkscape"
   xmlns:sodipodi="http://sodipodi.sourceforge.net/DTD/sodipodi-0.dtd"
   xmlns="http://www.w3.org/2000/svg"
   xmlns:svg="http://www.w3.org/2000/svg">
  <sodipodi:namedview
     id="namedview10"
     pagecolor="#505050"
     bordercolor="#eeeeee"
     borderopacity="1"
     inkscape:showpageshadow="0"
     inkscape:pageopacity="0"
     inkscape:pagecheckerboard="0"
     inkscape:deskcolor="#505050"
     showgrid="false"
     inkscape:zoom="67.066667"
     inkscape:cx="102.167"
     inkscape:cy="22.656561"
     inkscape:window-width="2560"
     inkscape:window-height="1368"
     inkscape:window-x="0"
     inkscape:window-y="0"
     inkscape:window-maximized="1"
     inkscape:current-layer="svg10" />
  <defs
     id="defs6">
    <linearGradient
       id="A"
       x1="82.651"
       y1="-9.222"
       x2="134.024"
       y2="35.404"
       gradientUnits="userSpaceOnUse">
      <stop
         offset="0"
         stop-color="#5a9fd4"
         id="stop1" />
      <stop
         offset="1"
         stop-color="#306998"
         id="stop2" />
    </linearGradient>
    <linearGradient
       id="B"
       x1="141.232"
       y1="72.494"
       x2="122.887"
       y2="46.288"
       gradientUnits="userSpaceOnUse">
      <stop
         offset="0"
         stop-color="#ffd43b"
         id="stop3" />
      <stop
         offset="1"
         stop-color="#ffe873"
         id="stop4" />
    </linearGradient>
    <radialGradient
       id="C"
       gradientTransform="matrix(2.382716e-8,-0.296405,1.43676,4.683673e-7,-128.544,150.5202)"
       cx="61.519"
       cy="132.286"
       fx="61.519"
       fy="132.286"
       r="29.037"
       gradientUnits="userSpaceOnUse">
      <stop
         offset="0"
         stop-color="#b8b8b8"
         stop-opacity=".498"
         id="stop5" />
      <stop
         offset="1"
         stop-color="#7f7f7f"
         stop-opacity="0"
         id="stop6" />
    </radialGradient>
  </defs>
  <g
     transform="matrix(.281963 0 0 .281963 -17.339271 18.541234)"
     id="g10">
    <path
       d="M232.618 37.297c0-12.2-3.478-18.46-10.435-18.804-2.768-.13-5.47.3-8.1 1.33-2.098.75-3.5 1.494-4.254 2.245v29.117c4.45 2.792 8.402 4.1 11.848 3.887 7.3-.482 10.94-6.4 10.94-17.776zm8.582.506c0 6.197-1.453 11.34-4.377 15.432-3.258 4.63-7.773 7.014-13.546 7.145-4.352.14-8.835-1.225-13.448-4.083V82.76l-7.463-2.662V21.36c1.225-1.502 2.8-2.792 4.7-3.887 4.442-2.588 9.84-3.92 16.2-3.985l.106.106c5.805-.073 10.28 2.3 13.423 7.144 2.93 4.434 4.4 10.117 4.4 17.065zm45.6 17.367c0 8.312-.833 14.07-2.5 17.27-1.674 3.2-4.858 5.756-9.56 7.66-3.813 1.502-7.937 2.32-12.362 2.458l-1.233-4.703c4.5-.612 7.667-1.225 9.504-1.837 3.617-1.225 6.1-3.103 7.463-5.618 1.094-2.05 1.633-5.96 1.633-11.75v-1.943a38.34 38.34 0 0 1-16.045 3.47c-3.674 0-6.916-1.15-9.708-3.47-3.135-2.523-4.703-5.724-4.703-9.602v-31.06l7.463-2.556v31.264c0 3.34 1.078 5.912 3.233 7.716s4.948 2.67 8.37 2.605c3.42-.073 7.087-1.396 10.982-3.985V14.615h7.463V55.17zm29.143 4.802l-2.458.106c-4.22 0-7.512-1.004-9.863-3.02-2.343-2.017-3.52-4.8-3.52-8.353V19.3h-5.1v-4.695h5.1V2.146l7.455-2.654v15.122h8.386v4.695h-8.386v29.2c0 2.8.75 4.785 2.254 5.944 1.3.955 3.34 1.502 6.132 1.64v3.887zm45.187-.612h-7.463V30.553c0-2.93-.686-5.454-2.05-7.56-1.576-2.384-3.764-3.576-6.573-3.576-3.42 0-7.7 1.804-12.836 5.413v34.53h-7.463V-9.497l7.463-2.352v31.362c4.768-3.47 9.978-5.2 15.636-5.2 3.952 0 7.153 1.33 9.602 3.985 2.458 2.654 3.682 5.96 3.682 9.912v31.16zm39.666-23.238c0-4.687-.9-8.557-2.662-11.62-2.107-3.73-5.38-5.7-9.806-5.903-8.18.474-12.264 6.336-12.264 17.57 0 5.152.85 9.455 2.564 12.9 2.188 4.4 5.47 6.573 9.847 6.5 8.214-.065 12.32-6.548 12.32-19.458zm8.173.05c0 6.67-1.707 12.223-5.1 16.657-3.748 4.964-8.925 7.455-15.53 7.455-6.548 0-11.652-2.5-15.334-7.455-3.34-4.434-5.005-9.986-5.005-16.657 0-6.27 1.805-11.546 5.413-15.84 3.813-4.556 8.827-6.842 15.024-6.842s11.243 2.286 15.13 6.842c3.6 4.295 5.413 9.57 5.413 15.84zm42.785 23.188h-7.463V28.92c0-3.34-1.004-5.944-3.013-7.822-2-1.87-4.687-2.776-8.026-2.703-3.544.065-6.916 1.225-10.117 3.47V59.36h-7.463V20.943c4.295-3.127 8.247-5.17 11.856-6.124 3.405-.9 6.4-1.33 8.998-1.33 1.772 0 3.438.17 5.005.514 2.93.678 5.315 1.935 7.153 3.78 2.05 2.04 3.07 4.5 3.07 7.357v34.22z"
       fill="#646464"
       id="path6" />
    <path
       d="M128.657-9.22c-3.84.018-7.507.345-10.733.916-9.505 1.68-11.23 5.194-11.23 11.675v8.56h22.46v2.853h-30.9c-6.528 0-12.244 3.924-14.03 11.387-2.062 8.555-2.154 13.894 0 22.827 1.597 6.65 5.41 11.387 11.937 11.387h7.723V50.124c0-7.414 6.414-13.953 14.03-13.953h22.435c6.245 0 11.23-5.142 11.23-11.414V3.37c0-6.087-5.135-10.66-11.23-11.675-3.858-.642-7.862-.934-11.702-.916zM116.5-2.337c2.32 0 4.215 1.926 4.215 4.293 0 2.36-1.895 4.267-4.215 4.267-2.328 0-4.215-1.908-4.215-4.267 0-2.368 1.886-4.293 4.215-4.293z"
       fill="url(#A)"
       id="path7" />
    <path
       d="M154.4 14.784v9.974c0 7.733-6.556 14.24-14.03 14.24h-22.435c-6.145 0-11.23 5.26-11.23 11.414V71.8c0 6.087 5.293 9.667 11.23 11.414 7.1 2.09 13.928 2.468 22.435 0 5.655-1.637 11.23-4.932 11.23-11.414v-8.56h-22.435v-2.853h33.665c6.528 0 8.96-4.553 11.23-11.387 2.345-7.036 2.245-13.802 0-22.827-1.613-6.498-4.694-11.387-11.23-11.387h-8.43zm-12.618 54.163c2.328 0 4.215 1.908 4.215 4.267 0 2.368-1.886 4.293-4.215 4.293-2.32 0-4.215-1.926-4.215-4.293 0-2.36 1.895-4.267 4.215-4.267z"
       fill="url(#B)"
       id="path8" />
    <path
       d="M466.287 7.96h1.308V-.245h3.1v-.978h-7.508v.978h3.1V7.96m5.568 0h1.118V.466L475.4 7.96h1.245l2.528-7.47v7.47h1.22v-9.184h-1.613l-2.763 7.868-2.356-7.868h-1.804V7.96"
       fill="#646464"
       id="path9" />
    <path
       transform="matrix(.614922 0 0 .678138 91.579792 8.0448)"
       d="M110.467 132.286c0 4.753-21.915 8.607-48.948 8.607s-48.948-3.853-48.948-8.607 21.915-8.607 48.948-8.607 48.948 3.853 48.948 8.607z"
       opacity=".444"
       fill="url(#C)"
       id="path10" />
  </g>
  <path
     style="fill:#ffffff;stroke-width:0.0596421"
     d="m 40.705765,41.45489 -0.954274,-0.347892 -0.01512,-8.259193 -0.01512,-8.259195 0.35091,-0.341813 c 1.019282,-0.992862 2.58893,-1.622922 4.540163,-1.822432 0.735035,-0.07516 1.935617,-1.65e-4 2.445328,0.15274 1.711869,0.513532 3.006119,2.28715 3.436396,4.709177 0.134695,0.758203 0.153133,2.816477 0.03126,3.489066 -0.37084,2.046484 -1.45824,3.635567 -2.9638,4.331178 -0.693172,0.320265 -1.12891,0.403 -2.114189,0.401424 -1.103589,-0.0018 -1.705535,-0.150169 -2.79345,-0.688705 -0.415392,-0.205625 -0.775387,-0.38327 -0.799989,-0.394765 -0.0246,-0.0115 -0.04473,1.645351 -0.04473,3.681882 0,2.924162 -0.01568,3.702114 -0.07455,3.699601 -0.041,-0.0018 -0.503976,-0.159733 -1.028827,-0.351073 z m 4.801193,-7.4019 c 1.510984,-0.239376 2.403018,-1.435769 2.6884,-3.605674 0.105394,-0.801368 0.03795,-3.004094 -0.113218,-3.697813 -0.373414,-1.71359 -0.992069,-2.560807 -2.120163,-2.903455 -0.571895,-0.173708 -1.673428,-0.130583 -2.440153,0.09553 -0.574379,0.16939 -1.216979,0.443917 -1.518434,0.648694 l -0.19343,0.131396 -4.07e-4,4.129471 -4.08e-4,4.12947 0.225865,0.142582 c 0.663186,0.418651 1.552348,0.779329 2.219463,0.900298 0.560466,0.101631 0.766542,0.106484 1.252485,0.0295 z"
     id="path11" />
  <path
     style="fill:#ffffff;stroke-width:0.0596421"
     d="m 56.600006,41.558847 c -0.03649,-0.141163 -0.114812,-0.43236 -0.17405,-0.647104 l -0.107707,-0.390444 0.865883,-0.138163 c 1.859221,-0.296662 2.73863,-0.652071 3.480302,-1.406546 0.607289,-0.617771 0.812224,-1.381925 0.867856,-3.236033 0.01993,-0.664265 0.01542,-1.207754 -0.01002,-1.207754 -0.02544,0 -0.279072,0.09315 -0.563628,0.206998 -1.167582,0.467142 -2.407486,0.705799 -3.702186,0.7126 -1.091319,0.0057 -1.362199,-0.04857 -2.147117,-0.430384 -0.470136,-0.228695 -0.65394,-0.362342 -1.079601,-0.785001 -0.367562,-0.364969 -0.566351,-0.61929 -0.70118,-0.897056 -0.362771,-0.747358 -0.364161,-0.769212 -0.365301,-5.740556 -5.69e-4,-2.484841 0.0059,-4.517893 0.01427,-4.517893 0.0084,0 0.478102,-0.16031 1.043738,-0.356243 l 1.028428,-0.356243 7.08e-4,4.665388 c 7.56e-4,4.986944 -0.0017,4.942022 0.300003,5.565185 0.296982,0.613485 1.033599,1.158769 1.862827,1.378969 0.527598,0.140103 1.545296,0.124093 2.142534,-0.0337 0.513222,-0.135599 1.186844,-0.431478 1.720793,-0.755836 l 0.354845,-0.215556 V 27.818747 22.66402 h 1.043737 1.043738 l -5.77e-4,5.949304 c -6.88e-4,7.092531 -0.0489,8.184799 -0.421764,9.55556 -0.30992,1.139358 -1.105727,2.021207 -2.410661,2.671299 -0.870838,0.433834 -2.139915,0.792634 -3.101392,0.876839 -0.229622,0.02011 -0.530141,0.0505 -0.667819,0.06753 l -0.250323,0.03096 z"
     id="path12" />
  <path
     style="fill:#ffffff;stroke-width:0.0596421"
     d="m 69.964335,35.362523 c -1.084555,-0.212746 -1.90523,-0.766997 -2.307206,-1.558195 -0.352418,-0.693654 -0.341108,-0.527414 -0.36536,-5.369934 l -0.02233,-4.458251 H 66.557186 65.84493 V 23.32008 22.664016 h 0.715706 0.715706 v -1.748304 -1.748304 l 1.028827,-0.361379 1.028827,-0.36138 0.01566,2.109683 0.01566,2.109684 h 1.192089 1.19209 v 0.656064 0.656063 h -1.194647 -1.194647 l 0.01671,4.489396 0.01671,4.489397 0.200211,0.406615 c 0.157914,0.320714 0.258715,0.443792 0.477137,0.582585 0.326598,0.207534 0.752257,0.340688 1.272525,0.398072 l 0.376171,0.04149 0.01723,0.521869 0.01723,0.521868 -0.762759,-0.0065 c -0.419518,-0.0036 -0.881692,-0.02986 -1.027053,-0.05838 z"
     id="path13" />
  <path
     style="fill:#ffffff;stroke-width:0.0596421"
     d="m 74.254473,25.560679 c 0,-9.175293 0.0055,-9.68942 0.104374,-9.717885 0.05741,-0.01653 0.49578,-0.152534 0.974166,-0.30223 0.478386,-0.149696 0.88768,-0.272174 0.909543,-0.272174 0.02186,0 0.03975,1.972664 0.03975,4.383697 0,2.411034 0.01723,4.383698 0.03829,4.383698 0.02106,0 0.203047,-0.104056 0.40442,-0.231234 1.202961,-0.759739 2.337445,-1.121631 3.702422,-1.181046 0.525606,-0.02288 0.834519,-0.0061 1.163022,0.06311 1.233966,0.260025 2.213659,1.15589 2.659069,2.431546 l 0.173933,0.498145 0.01692,4.816104 0.01692,4.816103 H 83.444227 82.43115 l -0.0213,-4.398608 c -0.01883,-3.888947 -0.03292,-4.441871 -0.121586,-4.771985 -0.236832,-0.881766 -0.735833,-1.548715 -1.405313,-1.8783 -0.362556,-0.178485 -0.434706,-0.192586 -0.960537,-0.187719 -0.886235,0.0082 -1.829805,0.365576 -3.076809,1.165326 l -0.563297,0.361263 v 4.855011 4.855012 H 75.26839 74.254473 Z"
     id="path14" />
  <path
     style="fill:#ffffff;stroke-width:0.0596421"
     d="m 90.954274,35.400808 c -1.074494,-0.226462 -1.913414,-0.691234 -2.657928,-1.472527 -1.334355,-1.40027 -1.971074,-3.443425 -1.80967,-5.807009 0.06621,-0.96958 0.272839,-1.754593 0.675048,-2.564612 1.07471,-2.164388 3.027367,-3.316142 5.373067,-3.169244 1.844456,0.115507 3.287995,0.944032 4.311947,2.474857 0.403502,0.603241 0.676425,1.224042 0.893301,2.031935 0.140598,0.523745 0.153667,0.674655 0.157915,1.823486 0.0036,0.973364 -0.01867,1.366713 -0.09992,1.765052 -0.282792,1.386368 -0.847617,2.514259 -1.71044,3.415554 -0.67897,0.709246 -1.32876,1.109599 -2.252155,1.387618 -0.458337,0.137997 -0.65074,0.160608 -1.509392,0.177377 -0.673355,0.01315 -1.106509,-0.0066 -1.37177,-0.06249 z m 1.978549,-1.252647 c 0.58529,-0.124048 1.04191,-0.369878 1.450493,-0.780899 0.618792,-0.622483 0.992698,-1.519052 1.191295,-2.856536 0.122501,-0.824995 0.12541,-2.513138 0.0055,-3.194623 -0.240942,-1.36942 -0.8995,-2.541451 -1.707325,-3.03851 -1.240957,-0.763569 -2.837825,-0.623834 -3.878194,0.339365 -0.893278,0.827018 -1.307176,2.147572 -1.306375,4.168032 5.92e-4,1.493588 0.21358,2.54417 0.728889,3.595321 0.725484,1.479872 1.955708,2.098481 3.51571,1.76785 z"
     id="path15" />
  <path
     style="fill:#ffffff;stroke-width:0.0596421"
     d="m 99.915191,29.838574 0.01523,-5.409934 0.506959,-0.346477 c 0.59075,-0.403748 1.8874,-1.060737 2.44532,-1.239003 1.63797,-0.523359 3.46909,-0.601271 4.70593,-0.200233 1.30266,0.422381 2.24075,1.44123 2.39078,2.596599 0.0316,0.243014 0.0575,2.557519 0.0585,5.222701 l 0.002,4.786282 h -1.04374 -1.04373 l -8.9e-4,-4.517893 c -9.5e-4,-4.902807 -0.002,-4.919936 -0.33275,-5.572695 -0.0856,-0.168845 -0.29376,-0.44343 -0.46265,-0.61019 -0.59681,-0.589243 -1.28259,-0.834431 -2.30511,-0.824146 -0.94282,0.0095 -1.82243,0.275838 -2.63916,0.79917 l -0.2833,0.181529 v 5.272113 5.272112 h -1.01423 -1.01423 z"
     id="path16" />
  <path
     style="fill:#ffffff;stroke-width:0.0149105"
     d="m 115.72068,19.495527 v -1.289762 h 0.24542 0.24543 l 0.0284,0.09319 c 0.0156,0.05126 0.16456,0.548067 0.33096,1.104026 0.16641,0.55596 0.3076,1.005512 0.31375,0.999006 0.006,-0.0065 0.16992,-0.464736 0.3639,-1.01829 0.19399,-0.553554 0.36661,-1.045042 0.3836,-1.092197 l 0.0309,-0.08574 h 0.22166 0.22166 v 1.289762 1.289761 h -0.16401 -0.16402 v -1.054175 c 0,-0.580869 -0.006,-1.047815 -0.0127,-1.04001 -0.007,0.0078 -0.11897,0.329523 -0.24887,0.714961 -0.1299,0.385437 -0.28784,0.851764 -0.35096,1.036282 l -0.11478,0.335487 -0.16949,0.0042 -0.16949,0.0042 -0.22048,-0.682599 c -0.12126,-0.375429 -0.27669,-0.853697 -0.34539,-1.062818 l -0.12492,-0.380218 -10e-4,1.062376 -0.001,1.062375 h -0.14911 -0.1491 z"
     id="path17" />
  <path
     style="fill:#ffffff;stroke-width:0.0149105"
     d="m 114.14016,19.622266 v -1.163021 h -0.43241 -0.4324 v -0.12674 -0.12674 h 1.05119 1.05119 v 0.126515 0.126514 l -0.43613,0.004 -0.43613,0.004 -0.004,1.159294 -0.004,1.159294 h -0.17884 -0.17883 z"
     id="path18" />
</svg>
