<?xml version="1.0" encoding="UTF-8" standalone="no"?>
<svg
   width="120"
   height="60"
   version="1.1"
   id="svg4"
   sodipodi:docname="raspberrypi_logo.svg"
   inkscape:version="1.4.2 (ebf0e940d0, 2025-05-08)"
   xmlns:inkscape="http://www.inkscape.org/namespaces/inkscape"
   xmlns:sodipodi="http://sodipodi.sourceforge.net/DTD/sodipodi-0.dtd"
   xmlns="http://www.w3.org/2000/svg"
   xmlns:svg="http://www.w3.org/2000/svg">
  <defs
     id="defs4" />
  <sodipodi:namedview
     id="namedview4"
     pagecolor="#505050"
     bordercolor="#eeeeee"
     borderopacity="1"
     inkscape:showpageshadow="0"
     inkscape:pageopacity="0"
     inkscape:pagecheckerboard="0"
     inkscape:deskcolor="#505050"
     showgrid="false"
     inkscape:zoom="16.766667"
     inkscape:cx="60"
     inkscape:cy="29.970179"
     inkscape:window-width="2560"
     inkscape:window-height="1368"
     inkscape:window-x="0"
     inkscape:window-y="0"
     inkscape:window-maximized="1"
     inkscape:current-layer="svg4" />
  <g
     transform="matrix(1.188851 0 0 1.188851 -4.923022 -8.243344)"
     id="g3">
    <path
       d="M13.453 17.838a.714.714 0 0 0-.426.174.975.975 0 0 0-1.096.104.748.748 0 0 0-.818.235 1.288 1.288 0 0 0-1.183.357c-.87-.104-1.123.496-.818 1.062a.731.731 0 0 0 .052 1.044.87.87 0 0 0 .287.966.818.818 0 0 0 .4.87 1.149 1.149 0 0 0 .67.983.94.94 0 0 0 .87.792.94.94 0 0 0 .87.661 4.046 4.046 0 0 0-2.323 4.064l-.165.296a3.924 3.924 0 0 0-.696 5.882 11.008 11.008 0 0 0 .54 1.74 4.351 4.351 0 0 0 2.689 3.481 9.067 9.067 0 0 0 2.611 1.462 4.264 4.264 0 0 0 3.159 1.418h.052a4.264 4.264 0 0 0 3.159-1.418 9.067 9.067 0 0 0 2.611-1.462 4.351 4.351 0 0 0 2.689-3.481 11.008 11.008 0 0 0 .54-1.74 3.924 3.924 0 0 0-.696-5.882l-.278-.296a4.055 4.055 0 0 0-2.28-4.003.94.94 0 0 0 .87-.661.94.94 0 0 0 .87-.792 1.149 1.149 0 0 0 .67-.983.818.818 0 0 0 .4-.87.87.87 0 0 0 .287-.966.731.731 0 0 0 .052-1.044c.305-.557 0-1.157-.818-1.062a1.288 1.288 0 0 0-1.227-.418.748.748 0 0 0-.809-.235.975.975 0 0 0-1.096-.104.948.948 0 0 0-1.114.044.992.992 0 0 0-.957.165.983.983 0 0 0-1.079.487h-.34a3.855 3.855 0 0 0-1.532 2.202 3.855 3.855 0 0 0-1.532-2.254h-.34a.983.983 0 0 0-1.079-.435.992.992 0 0 0-.975-.165 2.115 2.115 0 0 0-.67-.218z"
       id="path1" />
    <path
       d="M11.635 20.213a16.42 16.42 0 0 1 4.612 3.124c-.383 1.584-2.463 1.662-3.22 1.62a.566.566 0 0 0 .331-.287 8.702 8.702 0 0 1-1.331-.278.444.444 0 0 0 .357-.209 3.82 3.82 0 0 1-1.201-.496.679.679 0 0 0 .479-.104 4.647 4.647 0 0 1-1.149-.714.87.87 0 0 0 .487-.078 4.429 4.429 0 0 1-.922-.748.679.679 0 0 0 .479-.044 3.69 3.69 0 0 1-.792-.87.583.583 0 0 0 .548 0 4.699 4.699 0 0 1-.722-.87 1.157 1.157 0 0 0 .513 0 2.428 2.428 0 0 0-.461-.87 8.188 8.188 0 0 0 1.175 0l-.287-.348a2.349 2.349 0 0 1 1.297.131c.157-.122 0-.278-.2-.435a4.716 4.716 0 0 1 1.088.27c.165-.157-.122-.296-.26-.47a2.776 2.776 0 0 1 1.14.444c.2-.183 0-.33-.113-.487a2.785 2.785 0 0 1 .957.618.339.339 0 0 0 .052-.487 2.428 2.428 0 0 1 .766.661.426.426 0 0 0 .122-.47 7.605 7.605 0 0 1 .87.87.731.731 0 0 0 .139-.383c.818.792 1.975 2.793.296 3.585a15.768 15.768 0 0 0-5.056-2.671zm12.878 0a16.42 16.42 0 0 0-4.612 3.124c.4 1.584 2.463 1.662 3.22 1.62a.566.566 0 0 1-.296-.296 8.702 8.702 0 0 0 1.331-.278.444.444 0 0 1-.348-.209 3.82 3.82 0 0 0 1.201-.496.679.679 0 0 1-.487-.104 4.647 4.647 0 0 0 1.149-.714.87.87 0 0 1-.487-.078 4.429 4.429 0 0 0 .922-.748.679.679 0 0 1-.479-.044 3.69 3.69 0 0 0 .792-.87.583.583 0 0 1-.548 0 4.699 4.699 0 0 0 .722-.87 1.157 1.157 0 0 1-.513 0 2.428 2.428 0 0 1 .461-.87 8.188 8.188 0 0 1-1.175 0l.296-.305a2.349 2.349 0 0 0-1.297.131c-.157-.122 0-.278.2-.435a4.716 4.716 0 0 0-1.088.27c-.2-.2.078-.33.226-.505a2.776 2.776 0 0 0-1.14.444c-.2-.183 0-.33.113-.487a2.785 2.785 0 0 0-.957.618.339.339 0 0 1-.061-.487 2.428 2.428 0 0 0-.766.661.426.426 0 0 1-.122-.47 7.605 7.605 0 0 0-.87.87.731.731 0 0 1-.139-.383c-.818.792-1.975 2.793-.296 3.585a15.75 15.75 0 0 1 5.021-2.671z"
       fill="#75a928"
       id="path2" />
    <path
       d="M21.015 36.372a2.802 2.802 0 0 1-2.889 2.698 2.802 2.802 0 0 1-2.924-2.671 2.802 2.802 0 0 1 2.889-2.698 2.802 2.802 0 0 1 2.924 2.671zm-4.595-7.657a2.863 2.863 0 0 1 .487 3.994 2.889 2.889 0 0 1-3.881 1.14 2.863 2.863 0 0 1-.487-3.994 2.889 2.889 0 0 1 3.881-1.14zm3.255-.148a2.863 2.863 0 0 0-.487 3.994 2.889 2.889 0 0 0 3.881 1.14 2.863 2.863 0 0 0 .487-3.994 2.889 2.889 0 0 0-3.881-1.14zM10.4 30.02c1.305-.348.435 5.386-.618 4.916a3.098 3.098 0 0 1 .618-4.916zm15.036-.087c-1.305-.348-.435 5.386.618 4.916a3.098 3.098 0 0 0-.618-4.916zm-4.42-4.263c2.245-.383 4.116.957 4.038 3.394-.07.957-4.838-3.263-4.038-3.394zM14.8 25.6c-2.245-.383-4.116.957-4.038 3.394.07.93 4.864-3.254 4.038-3.394zm3.23-.565c-1.34 0-2.6.992-2.6 1.592s1.062 1.47 2.6 1.488 2.6-.592 2.6-1.34-1.47-1.74-2.654-1.74zm.087 14.87c1.166-.052 2.732.374 2.74.94s-1.418 1.793-2.82 1.74-2.863-1.183-2.845-1.62c0-.635 1.74-1.13 2.924-1.096zm-4.317-3.36c.87 1 1.2 2.767.513 3.28s-2.254.235-3.385-1.392c-.757-1.375-.66-2.758-.122-3.194.8-.487 2.045.174 3.002 1.28zm8.468-.32c-.87 1.053-1.4 2.976-.748 3.594.627.48 2.315.418 3.56-1.314a3.307 3.307 0 0 0 .087-3.611c-.766-.592-1.87.165-2.898 1.33z"
       fill="#bc1142"
       id="path3" />
  </g>
  <path
     d="M36.627 24.18c.238.042.473.097.705.165a3.2 3.2 0 0 1 2.271 2.663c.196 1.1-.2 2.224-1.044 2.96l-.087.078a2.68 2.68 0 0 1 .74.931 3.03 3.03 0 0 1 .296 1.262q0 .426.052.87c.013.062.05.115.104.148a.87.87 0 0 1 .487.87.87.87 0 0 1-.87.722 1.27 1.27 0 0 1-1.227-.818 3.62 3.62 0 0 1-.261-1.227c0-.26 0-.522-.044-.774a1.41 1.41 0 0 0-.87-1.044 1.92 1.92 0 0 0-.957-.226h-1.497v3.324a.87.87 0 0 1-.801.87.87.87 0 0 1-.87-.661V24.86c.1-.33.35-.587.68-.68h3.272zM34.4 27.505v1.444c0 .14 0 .183.174.183h1.68a1.86 1.86 0 0 0 .418-.044c.804-.17 1.347-.924 1.253-1.74-.1-.816-.796-1.43-1.62-1.427h-1.74c-.14 0-.157.052-.157.165l-.01 1.427zm33.536-3.325a.87.87 0 0 1 .653.6c.032.13.046.266.044.4v2.758c1.65-1.118 3.9-.734 5.073.87a3.97 3.97 0 0 1 0 4.751c-.375.512-.87.92-1.444 1.192a3.59 3.59 0 0 1-1.87.313 4.01 4.01 0 0 1-1.74-.635.87.87 0 0 1-.687.644.87.87 0 0 1-.983-.792v-9.05c-.06-.47.23-.915.687-1.044h.322zm4.882 6.96c0-.183-.052-.374-.096-.557a2.09 2.09 0 0 0-2.506-1.523c-.65.197-1.177.68-1.43 1.3s-.203 1.344.133 1.935a2.06 2.06 0 0 0 2.149 1.053c1.05-.212 1.792-1.15 1.758-2.22zM58.06 38.008a3.21 3.21 0 0 1-.435-.313.74.74 0 0 1-.191-.548q0-4.5 0-8.98a.87.87 0 0 1 .653-.87.87.87 0 0 1 1.009.557v.044c1.03-.685 2.33-.82 3.48-.365a3.7 3.7 0 0 1 1.81 1.523c.933 1.46.802 3.356-.322 4.673a3.61 3.61 0 0 1-2.323 1.27 3.7 3.7 0 0 1-2.611-.592v.2q0 1.236 0 2.48a.87.87 0 0 1-.627.87h-.444zm5.22-6.805a2.4 2.4 0 0 0-.357-1.236 2.02 2.02 0 0 0-3.046-.479 2.36 2.36 0 0 0-.157 3.272 2 2 0 0 0 2.001.583 2.18 2.18 0 0 0 1.584-2.132zm46.173-7.023c.238.042.473.097.705.165a3.24 3.24 0 0 1 2.315 2.828 3.3 3.3 0 0 1-2.732 3.62 4.16 4.16 0 0 1-.609.061h-1.906v3.385a.87.87 0 0 1-1.645.348.87.87 0 0 1-.07-.339q0-4.603 0-9.206a.87.87 0 0 1 .627-.809h3.324zm-2.228 3.315v1.488c0 .087 0 .148.113.14h2.036a1.55 1.55 0 0 0 1.392-1.584 1.62 1.62 0 0 0-1.627-1.601h-1.74c-.13 0-.148.044-.148.157l-.026 1.4zm8.12 6.8c0 .07 0 .13-.052.2a.87.87 0 0 1-1.645-.226q0-3.046 0-6.1a.87.87 0 0 1 1.662-.087c-.002.017-.002.035 0 .052v6.152zm0-8.902c-.025.112-.057.223-.096.33a.87.87 0 0 1-.94.479.87.87 0 0 1-.653-.801c-.02-.188-.02-.378 0-.566a.87.87 0 0 1 .67-.644h.322a.87.87 0 0 1 .6.505c0 .096.052.2.087.305v.392zM101.02 34.77a9.19 9.19 0 0 1-1.027.261 3.08 3.08 0 0 1-2.611-.87 3.23 3.23 0 0 1-1.044-2.463q0-1.8 0-3.594a.87.87 0 0 1 .609-.801.79.79 0 0 1 .922.392 1.27 1.27 0 0 1 .104.513v3.576c-.022.7.422 1.327 1.088 1.54a1.63 1.63 0 0 0 1.793-.635 1.53 1.53 0 0 0 .27-.87q0-1.836 0-3.672a.82.82 0 0 1 .574-.827.87.87 0 0 1 .957.383.95.95 0 0 1 .104.426v5.943a3.69 3.69 0 0 1-5.308 3.272.8.8 0 0 1 .296-1.54.93.93 0 0 1 .418.096c1.024.484 2.246.048 2.732-.975zm-54.403-6.804a2.76 2.76 0 0 1 .235-.365.78.78 0 0 1 .87-.252.87.87 0 0 1 .566.766v.078q0 3 0 6.022a.82.82 0 0 1-.722.87.81.81 0 0 1-.818-.426c0-.07-.07-.14-.104-.226a3.62 3.62 0 0 1-5.526-1.827 3.94 3.94 0 0 1 .513-3.855 3.48 3.48 0 0 1 3.341-1.436 3.37 3.37 0 0 1 1.479.557zM42.5 31.36a4.35 4.35 0 0 0 .104.6 1.92 1.92 0 0 0 1.462 1.4 1.95 1.95 0 0 0 1.914-.566 2.41 2.41 0 0 0 0-3.176c-.653-.725-1.737-.862-2.55-.322-.647.48-1 1.26-.93 2.062zm35.174.4a2 2 0 0 0 1.009 1.401 2.53 2.53 0 0 0 2.367.087 1.46 1.46 0 0 0 .322-.209.79.79 0 0 1 1.314.444.6.6 0 0 1-.209.583 3.91 3.91 0 0 1-6.526-2.201 3.91 3.91 0 0 1 2.454-4.351 3.71 3.71 0 0 1 3.19.26c.97.564 1.635 1.536 1.805 2.646a3.3 3.3 0 0 1 .061.435c.032.24-.05.48-.22.65s-.4.252-.65.22h-4.916zm4.35-1.33a2.5 2.5 0 0 0-2.436-1.679c-.952.038-1.76.708-1.975 1.636h4.35zm-29.002-3.134a3.55 3.55 0 0 1 1.836.531l.505.322a.87.87 0 0 1 .191 1.175.87.87 0 0 1-1.149.191 3.48 3.48 0 0 0-1.062-.531c-.45-.115-.927-.026-1.305.244a.74.74 0 0 0-.131.122.28.28 0 0 0-.107.26c.013.1.076.185.168.226a2.68 2.68 0 0 0 .975.357 6.51 6.51 0 0 1 1.949.644 2.06 2.06 0 0 1 1.105 1.558 2.03 2.03 0 0 1-.6 1.74 3.03 3.03 0 0 1-1.74.87 4.2 4.2 0 0 1-3.48-1.044.87.87 0 0 1-.113-1.079.81.81 0 0 1 1.14-.244 1.54 1.54 0 0 1 .2.139 2.83 2.83 0 0 0 1.54.644 1.98 1.98 0 0 0 1.13-.26.73.73 0 0 0 .174-.148.39.39 0 0 0-.087-.687 3.9 3.9 0 0 0-1.366-.461 4.55 4.55 0 0 1-1.679-.627c-.525-.334-.86-.897-.905-1.518s.207-1.226.68-1.632a2.94 2.94 0 0 1 1.74-.757zm33.518.888a2.81 2.81 0 0 1 1.444-.766 4.04 4.04 0 0 1 .87-.087.78.78 0 0 1 .73.8.81.81 0 0 1-.731.809 1.95 1.95 0 0 0-1.61.87c-.283.367-.5.775-.67 1.2a1.65 1.65 0 0 0-.113.592v2.654a.87.87 0 0 1-1.645.218 1.01 1.01 0 0 1 0-.252q0-3.028 0-6.1a.8.8 0 0 1 .609-.827.87.87 0 0 1 .94.365 2.61 2.61 0 0 1 .174.505zm6.03.016c.44-.458 1.018-.763 1.645-.87a2.7 2.7 0 0 1 .87 0 .76.76 0 0 1 .574.81.82.82 0 0 1-.792.766c-.628.018-1.207.344-1.55.87a4.35 4.35 0 0 0-.705 1.314 1.13 1.13 0 0 0-.06.365v2.7a.87.87 0 0 1-.748.914.81.81 0 0 1-.922-.722q0-3.167 0-6.326c.006-.292.194-.55.47-.644a.87.87 0 0 1 1.218.835z"
     id="path4" />
  <path
     style="fill:#ffffff;stroke-width:0.0596421"
     d="m 33.360931,34.883667 c -0.103278,-0.02911 -0.271021,-0.147733 -0.372764,-0.263611 l -0.184986,-0.210688 3.93e-4,-4.814028 c 3.77e-4,-4.615432 0.005,-4.821062 0.112801,-4.984527 0.257689,-0.390861 0.28139,-0.395275 2.124585,-0.395708 1.497414,-3.52e-4 1.716649,0.01221 2.108485,0.12079 0.240518,0.06665 0.548627,0.177068 0.684686,0.245372 0.715032,0.358954 1.30774,1.035648 1.574409,1.797499 0.181596,0.518807 0.242555,1.34 0.137155,1.84763 -0.09896,0.476628 -0.41673,1.083232 -0.78166,1.49216 l -0.3077,0.344799 0.269797,0.288435 c 0.509591,0.544794 0.679883,1.014454 0.754712,2.081466 l 0.05144,0.733456 0.268454,0.25064 c 0.337214,0.314838 0.406981,0.587867 0.235212,0.920495 -0.167903,0.325144 -0.505089,0.506727 -0.869795,0.468406 -0.848653,-0.08917 -1.247487,-0.731082 -1.347371,-2.168561 -0.07449,-1.071965 -0.297813,-1.436423 -1.070928,-1.747701 -0.290402,-0.116923 -0.472379,-0.13888 -1.332827,-0.160813 l -0.996506,-0.0254 -0.01741,1.820791 c -0.01656,1.73146 -0.02344,1.828867 -0.14038,1.985381 -0.253514,0.339319 -0.564121,0.468325 -0.899797,0.373719 z m 3.713805,-5.910722 c 0.563566,-0.29516 0.865125,-0.802994 0.865125,-1.456898 0,-0.658864 -0.302472,-1.139199 -0.924962,-1.468871 -0.221756,-0.117443 -0.353931,-0.13214 -1.365834,-0.151874 -0.820017,-0.01599 -1.143755,-0.0024 -1.207753,0.05072 -0.07267,0.06031 -0.08744,0.33152 -0.08744,1.606017 0,0.843399 0.02013,1.553643 0.04473,1.578321 0.0246,0.02468 0.568092,0.03534 1.207754,0.02369 1.12582,-0.0205 1.172789,-0.02629 1.468374,-0.181101 z"
     id="path5" />
  <path
     style="fill:#ffffff;stroke-width:0.0596421"
     d=""
     id="path6" />
  <path
     style="fill:#ffffff;stroke-width:0.0596421"
     d="m 52.095141,34.922059 c -0.731303,-0.159202 -1.83331,-0.792837 -2.025601,-1.164685 -0.04918,-0.09511 -0.08942,-0.294096 -0.08942,-0.442197 0,-0.215746 0.03654,-0.310899 0.183833,-0.478651 0.206862,-0.235603 0.512136,-0.345995 0.760124,-0.274873 0.09148,0.02623 0.343461,0.168976 0.559966,0.317201 0.69696,0.477158 1.391096,0.656454 2.028856,0.524056 0.582902,-0.121011 1.014366,-0.512905 0.906391,-0.823267 -0.08157,-0.234454 -0.647688,-0.519786 -1.337778,-0.674257 -1.288909,-0.28851 -1.866973,-0.549633 -2.324161,-1.049869 -0.688518,-0.753349 -0.674866,-1.8792 0.03161,-2.606634 0.900003,-0.926703 2.35445,-1.174577 3.615116,-0.616105 0.485441,0.21505 1.047144,0.612625 1.151997,0.815386 0.21674,0.41913 0.05569,0.898175 -0.364441,1.084018 -0.320835,0.141921 -0.476674,0.11683 -0.920154,-0.148147 -0.567974,-0.339361 -0.910428,-0.457709 -1.320306,-0.456284 -0.788002,0.0027 -1.430133,0.517171 -1.081157,0.866147 0.160228,0.160228 0.60017,0.325963 1.211064,0.456232 1.783023,0.380218 2.638176,1.000417 2.870023,2.081482 0.07742,0.360989 -0.006,0.894728 -0.199005,1.273011 -0.2858,0.560215 -1.095211,1.137652 -1.841145,1.313482 -0.462471,0.109012 -1.324596,0.110889 -1.815809,0.004 z"
     id="path7" />
  <path
     style="fill:#ffffff;stroke-width:0.0596421"
     d="m 57.766327,37.748031 c -0.125061,-0.109805 -0.235167,-0.277871 -0.27224,-0.415547 -0.0414,-0.153735 -0.05666,-1.765202 -0.04556,-4.810655 0.01559,-4.277529 0.02376,-4.592438 0.123954,-4.775958 0.260328,-0.476817 0.875707,-0.568032 1.267873,-0.18793 0.112956,0.109481 0.205375,0.234051 0.205375,0.27682 0,0.107165 0.0093,0.104595 0.478413,-0.131626 0.535205,-0.269525 1.035142,-0.385049 1.671084,-0.38615 1.440487,-0.0025 2.683822,0.785297 3.340246,2.116415 0.346146,0.701927 0.434177,1.12008 0.401555,1.907414 -0.04364,1.053318 -0.377387,1.832428 -1.095376,2.557097 -1.130506,1.141026 -2.792635,1.42315 -4.255158,0.722255 -0.23716,-0.113656 -0.442433,-0.206647 -0.456161,-0.206647 -0.01373,0 -0.02496,0.647191 -0.02496,1.438202 0,1.34927 -0.0077,1.451943 -0.124906,1.660441 -0.161478,0.287311 -0.393065,0.420244 -0.732122,0.420244 -0.218986,0 -0.312964,-0.03595 -0.482013,-0.184375 z m 3.935854,-4.380212 c 0.809539,-0.208208 1.446394,-0.909729 1.600972,-1.763534 0.05618,-0.310294 -0.06285,-1.043738 -0.227889,-1.404228 -0.193856,-0.423437 -0.575666,-0.820672 -0.979349,-1.018916 -0.295969,-0.145346 -0.404675,-0.165236 -0.903072,-0.165236 -0.498853,0 -0.606968,0.01982 -0.904207,0.165792 -0.418711,0.20562 -0.723059,0.536185 -0.966278,1.049513 -0.170299,0.359427 -0.186834,0.446102 -0.183453,0.961633 0.0029,0.439668 0.03366,0.642781 0.1374,0.906658 0.248962,0.633289 0.878561,1.170751 1.520219,1.297746 0.376749,0.07456 0.519333,0.06993 0.905657,-0.02943 z"
     id="path8" />
  <path
     style="fill:#ffffff;stroke-width:0.0596421"
     d="m 43.787341,34.978123 c -0.83963,-0.182249 -1.718367,-0.786708 -2.20662,-1.517873 -0.407411,-0.610103 -0.722524,-1.616397 -0.724815,-2.314653 -0.0026,-0.790302 0.334769,-1.749949 0.857847,-2.440203 1.074131,-1.417421 2.98955,-1.798506 4.550591,-0.905368 l 0.329678,0.188622 0.235303,-0.275281 c 0.312354,-0.365422 0.599362,-0.458939 0.922512,-0.300585 0.125783,0.06164 0.289438,0.203265 0.363678,0.314726 l 0.134982,0.202657 v 3.279369 c 0,3.18382 -0.0035,3.285036 -0.120224,3.473895 -0.125659,0.203321 -0.433957,0.386154 -0.651143,0.386154 -0.316186,0 -0.682703,-0.28255 -0.794347,-0.612367 -0.0085,-0.02517 -0.230049,0.06287 -0.492285,0.195645 -0.776466,0.393141 -1.587274,0.502791 -2.405157,0.325262 z m 1.603279,-1.733748 c 0.425306,-0.190867 0.78054,-0.555604 1.000229,-1.026988 0.140299,-0.301038 0.157944,-0.41154 0.158839,-0.994723 9.42e-4,-0.613333 -0.01123,-0.681901 -0.186939,-1.052758 -0.230962,-0.487484 -0.581971,-0.848122 -1.025892,-1.054033 -0.476562,-0.221053 -1.149393,-0.222382 -1.619163,-0.0032 -1.09964,0.513063 -1.55779,1.952367 -1.015692,3.190849 0.222335,0.507949 0.764737,0.945028 1.358391,1.09462 0.358187,0.09026 0.935055,0.02357 1.330227,-0.153768 z"
     id="path9" />
  <path
     style="fill:#ffffff;stroke-width:0.0596421"
     d="m 67.602133,35.008295 c -0.09964,-0.03016 -0.260675,-0.137818 -0.357852,-0.239233 l -0.176687,-0.184393 -0.02982,-4.752573 c -0.0164,-2.613915 -0.0071,-4.850433 0.02059,-4.97004 0.11811,-0.50947 0.715896,-0.791671 1.132105,-0.53444 0.376539,0.232714 0.397997,0.345553 0.397997,2.092928 0,0.85886 0.02013,1.552424 0.04473,1.541254 0.0246,-0.01117 0.207168,-0.10505 0.405702,-0.208623 0.591325,-0.308487 0.992768,-0.402715 1.696683,-0.398251 0.509928,0.0032 0.714864,0.03327 1.10338,0.161746 1.240499,0.410196 2.17012,1.418401 2.504027,2.715698 0.124445,0.483493 0.125749,1.408034 0.0027,1.884928 -0.329434,1.276346 -1.326216,2.374283 -2.491482,2.744324 -0.943889,0.29974 -1.778813,0.233983 -2.710489,-0.213475 -0.26869,-0.129045 -0.500621,-0.234626 -0.515403,-0.234626 -0.01478,0 -0.04341,0.06589 -0.06363,0.146423 -0.04559,0.181652 -0.375082,0.439916 -0.607405,0.476102 -0.09567,0.0149 -0.255471,0.0024 -0.355113,-0.02775 z m 3.991724,-1.811627 c 1.123693,-0.549773 1.54027,-1.818914 0.998811,-3.042973 -0.377658,-0.853758 -1.526291,-1.361573 -2.457974,-1.086679 -0.669904,0.197656 -1.27836,0.858318 -1.462637,1.588132 -0.293955,1.164187 0.417466,2.399807 1.549574,2.691352 0.36712,0.09454 1.018002,0.02347 1.372226,-0.149832 z"
     id="path10" />
  <path
     style="fill:#ffffff;stroke-width:0.0596421"
     d="M 78.880704,34.974047 C 78.381806,34.853375 77.742647,34.528891 77.342379,34.193081 75.87183,32.959345 75.50147,30.8248 76.471933,29.176319 c 0.323967,-0.550307 0.979373,-1.157435 1.552953,-1.438559 0.708858,-0.347427 1.141244,-0.441986 1.865392,-0.407946 1.722559,0.08097 3.109573,1.277382 3.45568,2.980793 0.117685,0.579206 0.117076,0.724864 -0.0041,0.980223 -0.185049,0.389962 -0.158297,0.386647 -3.074216,0.380991 l -2.627452,-0.0051 0.04174,0.222511 c 0.269747,1.437876 2.387872,2.134035 3.669104,1.205915 0.461508,-0.334314 0.93982,-0.276998 1.196109,0.14333 0.228601,0.374918 0.125828,0.65103 -0.385357,1.035294 -0.481478,0.361934 -0.848987,0.541607 -1.39176,0.680425 -0.537494,0.137468 -1.367014,0.146181 -1.889325,0.01985 z m 3.038064,-4.854213 C 81.61647,29.523279 81.05434,29.046582 80.40594,28.836928 c -0.23782,-0.0769 -0.451688,-0.09674 -0.834991,-0.07747 -0.612373,0.03078 -0.95106,0.163223 -1.344247,0.52565 -0.250196,0.230623 -0.632269,0.866168 -0.632269,1.051725 0,0.06416 0.422261,0.08218 2.22167,0.09485 1.221919,0.0086 2.230184,0.01159 2.240591,0.0067 0.01041,-0.0049 -0.05166,-0.148265 -0.137926,-0.318502 z"
     id="path11" />
  <path
     style="fill:#ffffff;stroke-width:0.0596421"
     d="m 85.238403,34.84954 c -0.390352,-0.192342 -0.373828,-0.02722 -0.369123,-3.688509 0.0038,-2.982538 0.01443,-3.341459 0.10307,-3.491516 0.344358,-0.582953 1.265546,-0.412513 1.461208,0.270354 0.03799,0.132575 0.07617,0.250757 0.08486,0.262628 0.0087,0.01187 0.133387,-0.07478 0.277109,-0.192544 0.473884,-0.388312 1.198308,-0.634207 1.868419,-0.634207 0.567155,0 0.876502,0.281274 0.869473,0.790571 -0.0062,0.447014 -0.270955,0.678784 -0.87286,0.764024 -0.882408,0.124965 -1.466054,0.654686 -2.019288,1.832722 l -0.187831,0.399959 -0.0309,1.650436 -0.0309,1.650435 -0.149105,0.161426 c -0.167917,0.181792 -0.465339,0.325654 -0.669059,0.323621 -0.07486,-7.47e-4 -0.225648,-0.04548 -0.335083,-0.0994 z"
     id="path12" />
  <path
     style="fill:#ffffff;stroke-width:0.0596421"
     d="m 91.469735,35.008258 c -0.09373,-0.02809 -0.224923,-0.09959 -0.291532,-0.158889 -0.279952,-0.249233 -0.283571,-0.296322 -0.283571,-3.690328 0,-3.645955 -0.01498,-3.525302 0.464038,-3.737195 0.182753,-0.08084 0.326573,-0.104966 0.467797,-0.07847 0.284265,0.05333 0.603824,0.351454 0.680014,0.634404 l 0.06282,0.233284 0.31268,-0.236076 c 0.623669,-0.470874 1.437351,-0.722327 2.043337,-0.631454 0.409783,0.06145 0.681379,0.339857 0.680168,0.697223 -0.0017,0.515773 -0.240848,0.739149 -0.916829,0.856536 -0.257744,0.04476 -0.57085,0.1459 -0.717234,0.231687 -0.505329,0.296143 -1.076728,1.078832 -1.330032,1.821848 -0.124352,0.364763 -0.133457,0.49563 -0.135101,1.941818 -0.002,1.772757 -0.01911,1.843968 -0.494597,2.059812 -0.279345,0.126808 -0.298447,0.128775 -0.541955,0.0558 z"
     id="path13" />
  <path
     style="fill:#ffffff;stroke-width:0.0596421"
     d="m 98.292059,37.600704 c -0.764595,-0.16575 -1.313928,-0.567672 -1.313928,-0.96134 0,-0.248033 0.165029,-0.549156 0.369175,-0.673621 0.253462,-0.154531 0.502541,-0.152533 0.896013,0.0072 0.483367,0.196213 1.158296,0.182971 1.63446,-0.03207 0.200671,-0.09062 0.472681,-0.276768 0.604481,-0.413653 0.26488,-0.275127 0.58301,-0.755841 0.5002,-0.755841 -0.0291,0 -0.26424,0.05327 -0.52262,0.118369 -1.215565,0.306281 -2.273427,0.02039 -3.134174,-0.847022 -0.24574,-0.247643 -0.46903,-0.545373 -0.583689,-0.778278 -0.34529,-0.701384 -0.358806,-0.821924 -0.359336,-3.204799 -4.58e-4,-2.054613 0.0061,-2.187668 0.115938,-2.36788 0.224127,-0.36758 0.69491,-0.480271 1.064652,-0.254845 0.355394,0.216677 0.369175,0.311876 0.369175,2.550342 0,2.272729 0.02212,2.432329 0.397924,2.871374 0.59895,0.699739 1.6871,0.728024 2.35394,0.06119 0.45109,-0.451089 0.46881,-0.562477 0.46881,-2.946486 0,-1.854892 0.01,-2.050638 0.10898,-2.236058 0.11815,-0.220304 0.43122,-0.421173 0.65643,-0.421173 0.22687,0 0.55176,0.184539 0.67411,0.382901 0.10842,0.175789 0.11261,0.333947 0.0973,3.672765 l -0.016,3.489066 -0.18609,0.458707 c -0.69489,1.712875 -2.44018,2.661749 -4.195811,2.281162 z"
     id="path14" />
  <path
     style="fill:#ffffff;stroke-width:0.0596421"
     d="m 106.00905,34.952156 c -0.0683,-0.02762 -0.19576,-0.135337 -0.2833,-0.239364 l -0.15915,-0.189141 v -4.886956 -4.886956 l 0.20406,-0.222782 0.20406,-0.222782 1.80886,-0.02982 c 1.61823,-0.02668 1.85282,-0.01838 2.22594,0.07878 1.14216,0.297397 1.99949,1.135254 2.33001,2.277089 0.0663,0.228992 0.10336,0.561882 0.10296,0.924453 -0.001,0.950021 -0.33181,1.694921 -1.05163,2.368218 -0.75906,0.710007 -1.45603,0.9121 -3.14561,0.9121 h -1.06831 l -2.2e-4,1.804175 c -2.1e-4,1.684204 -0.008,1.816872 -0.11665,1.995116 -0.19816,0.324992 -0.6761,0.469543 -1.05102,0.317875 z m 3.62379,-5.848727 c 1.16867,-0.324593 1.5448,-1.838317 0.67332,-2.709791 -0.41325,-0.413256 -0.63015,-0.471289 -1.84692,-0.494173 -0.59045,-0.01111 -1.10801,0.0033 -1.15012,0.03201 -0.0571,0.03896 -0.086,0.431012 -0.11367,1.545788 -0.0204,0.821472 -0.0204,1.537272 1.3e-4,1.590665 0.0325,0.0848 0.17521,0.09704 1.1276,0.09675 0.59969,-1.83e-4 1.18903,-0.02774 1.30966,-0.06125 z"
     id="path15" />
  <path
     style="fill:#ffffff;stroke-width:0.0596421"
     d="m 114.12525,34.860521 c -0.0984,-0.0516 -0.23261,-0.166577 -0.29821,-0.255501 -0.11522,-0.156165 -0.11985,-0.269001 -0.13572,-3.307812 -0.0182,-3.480116 -0.0274,-3.38808 0.36227,-3.625666 0.3552,-0.216577 0.84375,-0.120632 1.11013,0.218013 0.12281,0.156122 0.12455,0.20336 0.12455,3.371849 v 3.213509 l -0.19754,0.215549 c -0.16548,0.180573 -0.24532,0.219471 -0.49204,0.239715 -0.19366,0.01589 -0.35579,-0.008 -0.47344,-0.06966 z"
     id="path16" />
  <path
     style="fill:#ffffff;stroke-width:0.0596421"
     d="m 114.08934,26.047519 c -0.27917,-0.186496 -0.4112,-0.47582 -0.41131,-0.901314 -1.2e-4,-0.427002 0.14486,-0.694552 0.45646,-0.84242 0.43682,-0.207285 0.94316,0.02007 1.09947,0.493685 0.10956,0.331982 0.0436,0.878233 -0.12836,1.062251 -0.32169,0.34433 -0.68222,0.410953 -1.01626,0.187798 z"
     id="path17" />
</svg>
