<?xml version="1.0" encoding="UTF-8" standalone="no"?>
<svg
   width="120"
   height="60"
   version="1.1"
   id="svg2"
   sodipodi:docname="socketio_logo.svg"
   inkscape:version="1.4.2 (ebf0e940d0, 2025-05-08)"
   xmlns:inkscape="http://www.inkscape.org/namespaces/inkscape"
   xmlns:sodipodi="http://sodipodi.sourceforge.net/DTD/sodipodi-0.dtd"
   xmlns="http://www.w3.org/2000/svg"
   xmlns:svg="http://www.w3.org/2000/svg">
  <defs
     id="defs2" />
  <sodipodi:namedview
     id="namedview2"
     pagecolor="#505050"
     bordercolor="#eeeeee"
     borderopacity="1"
     inkscape:showpageshadow="0"
     inkscape:pageopacity="0"
     inkscape:pagecheckerboard="0"
     inkscape:deskcolor="#505050"
     showgrid="false"
     inkscape:zoom="16.766667"
     inkscape:cx="60"
     inkscape:cy="29.970179"
     inkscape:window-width="2560"
     inkscape:window-height="1368"
     inkscape:window-x="0"
     inkscape:window-y="0"
     inkscape:window-maximized="1"
     inkscape:current-layer="svg2" />
  <path
     d="M45.2 29.57c-.106-6.514-3.734-12.843-9.348-16.18-4.422-2.754-10-3.495-15.04-2.224-7.573 1.907-13.6 8.765-14.38 16.577-.953 7.388 2.78 15.067 9.162 18.854 6.25 3.92 14.75 3.76 20.867-.37 5.508-3.575 8.924-10.1 8.74-16.656zm-18.377 17c-8.844.874-17.398-6.62-17.636-15.5-.662-7.203 4.078-14.326 10.857-16.7 9.506-3.813 21.184 3.23 22.164 13.426 1.536 9.162-6.1 18.483-15.385 18.775zm-5.826-17.555l12.8-10.46-6.9 10.486c-1.96 0-3.92 0-5.88-.026zm3.6 1.933l5.88.026-12.8 10.486 6.9-10.513z"
     fill="#010101"
     id="path1" />
  <path
     d="M51.065 35.91c.648.367 1.62.627 2.7.627 2.356 0 3.61-1.167 3.61-2.766-.022-1.318-.756-2.14-2.356-2.7-1.124-.41-1.556-.67-1.556-1.232 0-.54.432-.93 1.232-.93.778 0 1.49.28 1.88.52l.432-1.578c-.52-.28-1.36-.52-2.356-.52-2.053 0-3.35 1.2-3.35 2.788-.022 1.037.713 1.988 2.442 2.593 1.102.39 1.448.692 1.448 1.297 0 .583-.432.972-1.426.972-.8 0-1.772-.324-2.27-.627zm11.39-8.623c-2.68 0-4.582 1.794-4.582 4.7 0 2.83 1.923 4.56 4.43 4.56 2.248 0 4.538-1.448 4.538-4.71.022-2.68-1.75-4.538-4.387-4.538zm-.043 1.642c1.534 0 2.14 1.578 2.14 2.96 0 1.794-.886 3.047-2.16 3.047-1.36 0-2.204-1.297-2.204-3.004 0-1.47.627-3.004 2.226-3.004zm11.735 5.49a4.49 4.49 0 0 1-1.772.346c-1.534 0-2.7-1.037-2.7-2.853-.022-1.62.994-2.874 2.7-2.874.8 0 1.318.173 1.686.346l.41-1.664c-.52-.238-1.34-.41-2.16-.41-3.112 0-4.927 2.075-4.927 4.733 0 2.745 1.794 4.517 4.56 4.517 1.102 0 2.03-.238 2.507-.454zm3.436-10.978h-2.248v12.923h2.248V33.34l.756-.886 2.55 3.912h2.745l-3.74-5.23 3.285-3.63h-2.7l-2.14 2.853c-.238.303-.497.692-.713 1.037h-.043zM91.24 32.54c.043-.194.065-.52.065-.95 0-1.945-.95-4.322-3.825-4.322-2.83 0-4.322 2.312-4.322 4.776 0 2.7 1.686 4.473 4.56 4.473 1.275 0 2.334-.238 3.1-.54l-.324-1.556c-.67.26-1.426.41-2.464.41-1.426 0-2.68-.692-2.723-2.29zm-5.92-1.556c.086-.908.67-2.16 2.053-2.16 1.49 0 1.86 1.34 1.837 2.16zm7.413-5.49v2h-1.253v1.664h1.275v4.17c0 1.167.216 1.967.692 2.464.41.454 1.102.735 1.923.735.713 0 1.297-.086 1.62-.216l-.043-1.707c-.194.065-.497.108-.864.108-.864 0-1.145-.562-1.145-1.642v-3.912h2.14v-1.664h-2.14v-2.55zM99 36.56c.843 0 1.383-.627 1.383-1.448 0-.864-.562-1.448-1.383-1.448-.8 0-1.383.605-1.383 1.448 0 .82.562 1.448 1.383 1.448zm4.668-.216v-8.86h-2.248v8.86zm-1.124-12.556c-.756 0-1.253.52-1.253 1.2 0 .67.497 1.2 1.232 1.2.778 0 1.275-.52 1.275-1.2-.022-.67-.497-1.2-1.253-1.2zm6.786 3.5c-2.68 0-4.582 1.794-4.582 4.7 0 2.83 1.923 4.56 4.43 4.56 2.248 0 4.538-1.448 4.538-4.71.022-2.68-1.75-4.538-4.387-4.538zm-.043 1.642c1.534 0 2.14 1.578 2.14 2.96 0 1.794-.886 3.047-2.16 3.047-1.36 0-2.204-1.297-2.204-3.004 0-1.47.627-3.004 2.226-3.004z"
     id="path2" />
  <path
     style="fill:#ffffff;stroke-width:0.0596421"
     d="M 23.856859,49.322778 C 19.651232,48.889898 15.93893,47.261343 12.763419,44.45618 9.8509682,41.883396 7.6569537,38.107387 6.7722811,34.145129 6.0419992,30.874354 6.2248912,27.164466 7.2735972,23.976143 9.5027752,17.198896 15.423111,12.044526 22.306163,10.888473 c 0.475646,-0.07989 1.207806,-0.177283 1.627022,-0.216434 0.977177,-0.09126 3.462067,-0.03982 4.396835,0.09102 3.247897,0.454614 6.123485,1.599631 8.767396,3.491048 4.212764,3.013755 7.06454,7.706664 7.883116,12.972529 0.153182,0.985411 0.217626,3.569467 0.114089,4.574689 -0.759951,7.378236 -5.524125,13.670483 -12.351082,16.312599 -1.30997,0.506975 -2.863095,0.900088 -4.44334,1.124657 -0.769845,0.109403 -3.665377,0.164267 -4.44334,0.08419 z m 4.115308,-2.802327 c 3.379455,-0.391538 6.646083,-1.983228 9.237273,-4.500934 2.654285,-2.579012 4.362678,-5.746959 5.002297,-9.275978 0.143638,-0.792504 0.157027,-1.001947 0.160131,-2.50497 0.0035,-1.718691 -0.07519,-2.54339 -0.386455,-4.047818 -1.050295,-5.076294 -4.982728,-9.565012 -10.22113,-11.667018 -2.114032,-0.848294 -3.908375,-1.193297 -6.207623,-1.193553 -2.193772,-2.45e-4 -3.516496,0.245734 -5.606362,1.042584 -1.456005,0.555163 -2.31965,0.991907 -3.437062,1.738118 -1.3246,0.88457 -2.885066,2.333936 -3.851476,3.577263 -1.850711,2.381017 -3.0803596,5.293478 -3.4431884,8.155299 -0.1591818,1.25555 -0.09994,3.807053 0.1193106,5.138663 0.528041,3.207032 2.1497068,6.292377 4.5898178,8.732489 2.69113,2.69113 6.161898,4.411798 9.809875,4.863347 0.562594,0.06964 3.479064,0.03004 4.234592,-0.05749 z"
     id="path3" />
  <path
     style="fill:#ffffff;stroke-width:0.0596421"
     d="m 21.262425,28.842562 c 0.09841,-0.0786 2.889138,-2.358063 6.201618,-5.065472 3.31248,-2.707409 6.032641,-4.912613 6.044801,-4.900453 0.01216,0.01216 -1.46676,2.285051 -3.286489,5.050867 l -3.308597,5.028758 -2.915129,0.0146 -2.91513,0.01461 z"
     id="path4" />
  <path
     style="fill:#ffffff;stroke-width:0.0596421"
     d="m 17.959459,41.111285 c 0.01246,-0.03212 1.512211,-2.332989 3.332788,-5.113042 l 3.310139,-5.054642 1.371769,0.03502 c 0.754473,0.01926 2.052374,0.03508 2.884223,0.03516 l 1.512455,1.38e-4 -0.82657,0.679773 c -2.947665,2.424169 -11.457351,9.383328 -11.525162,9.425192 -0.04953,0.03058 -0.07327,0.02755 -0.05964,-0.0076 z"
     id="path5" />
  <path
     style="fill:#ffffff;stroke-width:0.0596421"
     d="m 52.932406,36.458837 c -0.622476,-0.08448 -1.819086,-0.467185 -1.819086,-0.581783 0,-0.05538 0.368308,-1.370004 0.39737,-1.41836 0.01464,-0.02436 0.13057,0.0087 0.257624,0.07356 0.127054,0.06482 0.46779,0.189622 0.757192,0.277341 0.431259,0.130718 0.649919,0.160458 1.212069,0.164854 0.600505,0.0047 0.716736,-0.01111 0.933726,-0.127015 0.805053,-0.430002 0.723765,-1.388492 -0.155545,-1.834073 -0.151961,-0.077 -0.554105,-0.250131 -0.893653,-0.384726 -1.081498,-0.4287 -1.693733,-0.891582 -2.061467,-1.558575 -0.168294,-0.305252 -0.178926,-0.363521 -0.178926,-0.9806 0,-0.614735 0.01206,-0.681514 0.191368,-1.060069 0.495308,-1.045664 1.632578,-1.653648 3.093244,-1.653648 0.3363,0 0.808399,0.03789 1.049107,0.08421 0.422413,0.08127 1.103666,0.302966 1.20033,0.390608 0.03757,0.03406 -0.287933,1.398974 -0.35466,1.487168 -0.0098,0.01299 -0.172747,-0.04554 -0.362047,-0.13005 -0.47263,-0.211008 -1.267958,-0.363791 -1.675038,-0.321777 -0.663687,0.0685 -1.08465,0.438023 -1.08465,0.952115 0,0.50565 0.304182,0.768376 1.368711,1.182174 1.345754,0.523115 1.938139,0.951838 2.282932,1.652213 0.187778,0.381431 0.195275,0.424188 0.195275,1.11362 0,0.671878 -0.011,0.739461 -0.174928,1.074813 -0.513303,1.050073 -1.757757,1.651477 -3.373779,1.630439 -0.344434,-0.0045 -0.70676,-0.01908 -0.805169,-0.03244 z"
     id="path6" />
  <path
     style="fill:#ffffff;stroke-width:0.0596421"
     d="m 61.376254,36.436148 c -1.808512,-0.354824 -3.104374,-1.720199 -3.405571,-3.588256 -0.09239,-0.572994 -0.04609,-1.713739 0.09137,-2.251471 0.05451,-0.21322 0.223068,-0.642644 0.37458,-0.954274 0.509944,-1.048849 1.482281,-1.83199 2.679467,-2.158098 0.363961,-0.09914 0.638579,-0.126853 1.269586,-0.128113 0.957036,-0.0019 1.408556,0.09213 2.147117,0.447215 0.708511,0.340634 1.416975,1.05167 1.772918,1.779354 0.397315,0.812262 0.462485,1.13204 0.461885,2.266402 -4.46e-4,0.845218 -0.01972,1.050953 -0.136548,1.457857 -0.468228,1.630756 -1.676405,2.764337 -3.303494,3.099527 -0.492008,0.101356 -1.507671,0.116896 -1.95131,0.02986 z m 1.693768,-1.609677 c 1.594636,-0.59663 2.047117,-3.709631 0.76829,-5.285728 -0.127385,-0.156997 -0.346646,-0.321098 -0.587372,-0.439607 -0.364691,-0.179537 -0.412107,-0.187852 -0.937804,-0.164459 -0.470721,0.02095 -0.601093,0.05052 -0.870008,0.197345 -0.813162,0.443983 -1.260759,1.433517 -1.263166,2.792574 -0.0027,1.516914 0.635915,2.652557 1.668945,2.967929 0.298637,0.09117 0.88252,0.05863 1.221115,-0.06805 z"
     id="path7" />
  <path
     style="fill:#ffffff;stroke-width:0.0596421"
     d="m 71.421471,36.498313 c -0.662072,-0.05612 -1.166365,-0.1946 -1.759443,-0.48313 -0.411623,-0.200252 -0.602294,-0.343199 -1.013917,-0.760133 -0.739775,-0.749321 -1.053905,-1.436449 -1.197198,-2.618756 -0.126785,-1.046096 0.109144,-2.247104 0.608813,-3.09919 0.269708,-0.459933 1.065508,-1.244989 1.54266,-1.521832 0.871906,-0.50588 2.176555,-0.761938 3.266681,-0.641138 0.5618,0.06225 1.481419,0.273558 1.529559,0.351451 0.01813,0.02933 -0.313451,1.539498 -0.351745,1.602026 -0.0045,0.0074 -0.146897,-0.03918 -0.316335,-0.103562 -0.169438,-0.06438 -0.540576,-0.143477 -0.824751,-0.175767 -1.95501,-0.222144 -3.240523,0.900757 -3.243059,2.832825 -0.0017,1.280644 0.523651,2.194125 1.533613,2.666744 0.362353,0.169565 0.470501,0.19062 1.093124,0.212819 0.652433,0.02326 1.257782,-0.06612 1.734339,-0.256083 0.08313,-0.03314 0.116492,0.06858 0.228116,0.695497 0.07191,0.40387 0.141647,0.768718 0.15497,0.810771 0.04618,0.145765 -0.935364,0.412408 -1.703121,0.462665 -0.278827,0.01825 -0.574055,0.0404 -0.656063,0.04921 -0.08201,0.0088 -0.363817,-0.0022 -0.626243,-0.02442 z"
     id="path8" />
  <path
     style="fill:#ffffff;stroke-width:0.0596421"
     d="m 75.387674,29.880716 v -6.441352 h 1.073559 1.073558 v 3.996024 c 0,2.215991 0.02304,3.996024 0.05172,3.996024 0.02844,0 0.125833,-0.114066 0.21642,-0.25348 0.09059,-0.139413 0.731215,-1.01168 1.423617,-1.938369 l 1.258913,-1.684891 h 1.304011 1.304012 l -0.289286,0.316755 c -0.159107,0.174215 -0.889305,0.980091 -1.622664,1.790836 l -1.333379,1.474082 1.717223,2.399024 c 0.944473,1.319464 1.78252,2.486251 1.862327,2.592862 l 0.145104,0.193837 H 82.235652 80.898494 L 79.64905,34.403274 c -0.687195,-1.055336 -1.276284,-1.925427 -1.309087,-1.933534 -0.0328,-0.0081 -0.227385,0.182312 -0.432405,0.423157 l -0.372764,0.4379 v 1.495635 1.495636 h -1.073558 -1.073559 z"
     id="path9" />
  <path
     style="fill:#ffffff;stroke-width:0.0596421"
     d="m 86.888467,36.4346 c -1.632786,-0.210573 -2.916478,-1.208217 -3.420867,-2.658586 -0.21333,-0.613431 -0.286216,-1.204877 -0.248511,-2.016571 0.124076,-2.670982 1.817766,-4.44334 4.24612,-4.44334 1.563085,0 2.66701,0.666818 3.307735,1.998012 0.359308,0.746513 0.443139,1.166271 0.44667,2.236581 l 0.003,0.924453 -2.975342,0.01547 -2.975343,0.01547 0.04018,0.34185 c 0.109912,0.935183 0.755398,1.625531 1.773189,1.896425 0.664127,0.176764 2.357723,0.07788 3.089768,-0.180399 0.143543,-0.05065 0.27118,-0.08189 0.283636,-0.06943 0.01246,0.01246 0.08973,0.339354 0.171715,0.72644 0.167435,0.790513 0.182584,0.746152 -0.303604,0.889117 -1.155482,0.339773 -2.405358,0.457734 -3.438394,0.324507 z m 2.335477,-5.674163 c -0.0024,-0.859905 -0.5237,-1.658429 -1.217871,-1.86553 -1.18617,-0.353885 -2.290563,0.32486 -2.626377,1.614136 -0.05028,0.193055 -0.09143,0.385628 -0.09143,0.427941 0,0.06126 0.400929,0.07693 1.968191,0.07693 h 1.968191 z"
     id="path10" />
  <path
     style="fill:#ffffff;stroke-width:0.0596421"
     d="M 94.592445,36.39713 C 93.878958,36.202641 93.438528,35.854966 93.127094,35.240382 92.839314,34.672475 92.803181,34.263624 92.803181,31.57527 V 29.105368 H 92.147117 91.491054 V 28.300199 27.49503 h 0.626242 0.626243 v -0.981797 -0.981796 l 0.223658,-0.05876 c 0.123012,-0.03232 0.559145,-0.141926 0.969185,-0.24358 0.410039,-0.101654 0.792495,-0.198833 0.8499,-0.215953 0.09709,-0.02895 0.104374,0.05661 0.104374,1.225377 v 1.256504 h 1.073559 1.073558 v 0.805169 0.805169 h -1.073558 -1.073559 l 0.0012,2.072564 c 0.0013,2.179259 0.03841,2.687096 0.222515,3.041857 0.209223,0.403163 0.35247,0.46212 1.12281,0.46212 h 0.68137 l 0.01217,0.551689 c 0.02575,1.167282 0.05329,1.042965 -0.250799,1.13187 -0.147614,0.04316 -0.590457,0.09171 -0.984095,0.107903 -0.568618,0.02338 -0.795378,0.0077 -1.10338,-0.07624 z"
     id="path11" />
  <path
     style="fill:#ffffff;stroke-width:0.0596421"
     d="M 101.45129,31.908549 V 27.49503 h 1.10338 1.10338 v 4.413519 4.413519 h -1.10338 -1.10338 z"
     id="path12" />
  <path
     style="fill:#ffffff;stroke-width:0.0596421"
     d="m 102.25646,26.128416 c -0.24269,-0.06082 -0.51562,-0.207825 -0.63902,-0.344175 -0.36721,-0.405765 -0.36714,-1.182453 1.4e-4,-1.588604 0.30575,-0.3381 1.07474,-0.474597 1.47993,-0.262689 0.387,0.202396 0.681,0.686527 0.67818,1.116754 -10e-4,0.20306 -0.19267,0.60941 -0.36433,0.773712 -0.26489,0.253538 -0.79823,0.39439 -1.1549,0.305002 z"
     id="path13" />
  <path
     style="fill:#ffffff;stroke-width:0.0596421"
     d="m 98.439364,36.417026 c -0.252348,-0.111838 -0.474246,-0.335295 -0.634658,-0.639116 -0.187622,-0.355356 -0.18962,-0.986365 -0.0043,-1.343712 0.406516,-0.783682 1.45546,-0.983693 2.100883,-0.400592 0.416881,0.376626 0.557951,1.06656 0.336591,1.646179 -0.1102,0.288575 -0.470615,0.664849 -0.732002,0.764229 -0.215861,0.08207 -0.857095,0.06584 -1.066558,-0.02699 z"
     id="path14" />
  <path
     style="fill:#ffffff;stroke-width:0.0596421"
     d="m 108.153,36.411938 c -0.46236,-0.100554 -1.00407,-0.31852 -1.43074,-0.575679 -0.41245,-0.248588 -1.07164,-0.933342 -1.32529,-1.376677 -0.77438,-1.353471 -0.81378,-3.327235 -0.0959,-4.802976 0.51359,-1.055742 1.49267,-1.845393 2.69373,-2.172557 0.36276,-0.09881 0.64065,-0.127049 1.26958,-0.128992 0.94718,-0.0029 1.38397,0.08905 2.14712,0.452124 0.40852,0.194355 0.60044,0.335129 0.98836,0.724957 0.70526,0.708733 1.05377,1.407585 1.222,2.450444 0.0968,0.600014 0.0406,1.711262 -0.11709,2.314837 -0.41624,1.593362 -1.66775,2.772927 -3.29851,3.108872 -0.55182,0.113679 -1.544,0.116408 -2.05329,0.0056 z m 1.79575,-1.585467 c 0.63055,-0.235921 1.14165,-0.917668 1.38269,-1.844364 0.12339,-0.474369 0.13706,-1.548656 0.0262,-2.057654 -0.17869,-0.820322 -0.64881,-1.531329 -1.21102,-1.831528 -0.22011,-0.117528 -0.34363,-0.136663 -0.88219,-0.136663 -0.58135,0 -0.64891,0.01256 -0.94255,0.175234 -0.57495,0.31851 -0.93293,0.844791 -1.14882,1.688932 -0.13964,0.545967 -0.15314,1.526452 -0.0291,2.111764 0.2074,0.97852 0.811,1.726442 1.58368,1.962333 0.29864,0.09117 0.88252,0.05863 1.22112,-0.06805 z"
     id="path15" />
</svg>
